# MagicaVoxel @ Ephtracy

# group
g Apple_Tree_Small

# material
mtllib Apple_Tree_Small.mtl
usemtl palette

# normals
vn -1 0 0
vn 1 0 0
vn 0 0 1
vn 0 0 -1
vn 0 -1 0
vn 0 1 0

# texcoords
vt 0.146484 0.5
vt 0.318359 0.5
vt 0.556641 0.5

# verts
v -60 14 -54
v -60 14 -57
v -60 16 -54
v -60 16 -57
v -59 10 -52
v -59 10 -58
v -59 11 -53
v -59 11 -54
v -59 12 -53
v -59 12 -54
v -59 12 -56
v -59 12 -57
v -59 13 -56
v -59 13 -57
v -59 14 -54
v -59 14 -57
v -59 15 -53
v -59 15 -54
v -59 16 -53
v -59 16 -54
v -59 16 -57
v -59 17 -52
v -59 17 -58
v -57 0 -54
v -57 0 -56
v -57 10 -54
v -57 10 -56
v -57 14 -58
v -57 14 -59
v -57 16 -58
v -57 16 -59
v -56 12 -51
v -56 12 -52
v -56 15 -51
v -56 15 -52
v -55 0 -54
v -55 0 -56
v -55 10 -54
v -55 10 -56
v -55 14 -58
v -55 14 -59
v -55 16 -58
v -55 16 -59
v -54 12 -51
v -54 12 -52
v -54 15 -51
v -54 15 -52
v -53 10 -52
v -53 10 -58
v -53 11 -53
v -53 11 -54
v -53 11 -57
v -53 12 -53
v -53 12 -54
v -53 14 -54
v -53 14 -57
v -53 15 -55
v -53 15 -56
v -53 16 -55
v -53 16 -56
v -53 17 -52
v -53 17 -58
v -52 11 -54
v -52 11 -57
v -52 14 -54
v -52 14 -57
v -56 12 -51
v -56 15 -51
v -54 12 -51
v -54 15 -51
v -59 10 -52
v -59 17 -52
v -57 11 -52
v -57 12 -52
v -56 11 -52
v -56 12 -52
v -56 15 -52
v -56 16 -52
v -55 10 -52
v -55 11 -52
v -55 15 -52
v -55 16 -52
v -54 10 -52
v -54 11 -52
v -54 12 -52
v -54 15 -52
v -53 10 -52
v -53 17 -52
v -60 14 -54
v -60 16 -54
v -59 14 -54
v -59 15 -54
v -59 16 -54
v -57 0 -54
v -57 10 -54
v -55 0 -54
v -55 10 -54
v -53 11 -54
v -53 12 -54
v -53 14 -54
v -52 11 -54
v -52 14 -54
v -57 0 -56
v -57 10 -56
v -55 0 -56
v -55 10 -56
v -60 14 -57
v -60 16 -57
v -59 14 -57
v -59 16 -57
v -53 11 -57
v -53 14 -57
v -52 11 -57
v -52 14 -57
v -59 10 -58
v -59 17 -58
v -58 12 -58
v -58 13 -58
v -57 12 -58
v -57 13 -58
v -57 14 -58
v -57 16 -58
v -56 10 -58
v -56 11 -58
v -55 10 -58
v -55 11 -58
v -55 13 -58
v -55 14 -58
v -55 16 -58
v -54 13 -58
v -54 14 -58
v -53 10 -58
v -53 17 -58
v -57 14 -59
v -57 16 -59
v -55 14 -59
v -55 16 -59
v -57 0 -54
v -55 0 -54
v -57 0 -56
v -55 0 -56
v -59 10 -52
v -55 10 -52
v -54 10 -52
v -53 10 -52
v -55 10 -53
v -54 10 -53
v -57 10 -54
v -55 10 -54
v -57 10 -56
v -55 10 -56
v -56 10 -57
v -55 10 -57
v -59 10 -58
v -56 10 -58
v -55 10 -58
v -53 10 -58
v -53 11 -54
v -52 11 -54
v -53 11 -57
v -52 11 -57
v -56 12 -51
v -54 12 -51
v -56 12 -52
v -54 12 -52
v -60 14 -54
v -59 14 -54
v -60 14 -57
v -59 14 -57
v -57 14 -58
v -55 14 -58
v -57 14 -59
v -55 14 -59
v -53 14 -54
v -52 14 -54
v -53 14 -57
v -52 14 -57
v -56 15 -51
v -54 15 -51
v -56 15 -52
v -55 15 -52
v -54 15 -52
v -60 16 -54
v -59 16 -54
v -60 16 -57
v -59 16 -57
v -57 16 -58
v -55 16 -58
v -57 16 -59
v -55 16 -59
v -59 17 -52
v -53 17 -52
v -56 17 -54
v -55 17 -54
v -56 17 -55
v -55 17 -55
v -58 17 -56
v -57 17 -56
v -58 17 -57
v -57 17 -57
v -59 17 -58
v -53 17 -58

# faces
f 3/3/1 2/3/1 1/3/1
f 4/3/1 2/3/1 3/3/1
f 7/3/1 6/3/1 5/3/1
f 8/3/1 6/3/1 7/3/1
f 9/3/1 7/3/1 5/3/1
f 9/1/1 8/1/1 7/1/1
f 10/3/1 6/3/1 8/3/1
f 10/1/1 8/1/1 9/1/1
f 11/3/1 6/3/1 10/3/1
f 12/3/1 6/3/1 11/3/1
f 13/3/1 10/3/1 9/3/1
f 13/3/1 11/3/1 10/3/1
f 13/1/1 12/1/1 11/1/1
f 14/3/1 6/3/1 12/3/1
f 14/1/1 12/1/1 13/1/1
f 15/3/1 13/3/1 9/3/1
f 15/3/1 14/3/1 13/3/1
f 16/3/1 6/3/1 14/3/1
f 16/3/1 14/3/1 15/3/1
f 17/3/1 9/3/1 5/3/1
f 17/3/1 15/3/1 9/3/1
f 18/3/1 15/3/1 17/3/1
f 19/3/1 17/3/1 5/3/1
f 19/1/1 18/1/1 17/1/1
f 20/1/1 18/1/1 19/1/1
f 21/3/1 6/3/1 16/3/1
f 22/3/1 20/3/1 19/3/1
f 22/3/1 21/3/1 20/3/1
f 22/3/1 19/3/1 5/3/1
f 23/3/1 6/3/1 21/3/1
f 23/3/1 21/3/1 22/3/1
f 26/2/1 25/2/1 24/2/1
f 27/2/1 25/2/1 26/2/1
f 30/3/1 29/3/1 28/3/1
f 31/3/1 29/3/1 30/3/1
f 34/3/1 33/3/1 32/3/1
f 35/3/1 33/3/1 34/3/1
f 36/2/2 37/2/2 38/2/2
f 38/2/2 37/2/2 39/2/2
f 40/3/2 41/3/2 42/3/2
f 42/3/2 41/3/2 43/3/2
f 44/3/2 45/3/2 46/3/2
f 46/3/2 45/3/2 47/3/2
f 48/3/2 49/3/2 50/3/2
f 50/3/2 49/3/2 51/3/2
f 51/3/2 49/3/2 52/3/2
f 48/3/2 50/3/2 53/3/2
f 50/1/2 51/1/2 53/1/2
f 53/1/2 51/1/2 54/1/2
f 53/3/2 54/3/2 55/3/2
f 52/3/2 49/3/2 56/3/2
f 55/3/2 56/3/2 57/3/2
f 57/3/2 56/3/2 58/3/2
f 55/3/2 57/3/2 59/3/2
f 57/1/2 58/1/2 59/1/2
f 58/3/2 56/3/2 60/3/2
f 59/1/2 58/1/2 60/1/2
f 53/3/2 55/3/2 61/3/2
f 48/3/2 53/3/2 61/3/2
f 59/3/2 60/3/2 61/3/2
f 55/3/2 59/3/2 61/3/2
f 60/3/2 56/3/2 62/3/2
f 61/3/2 60/3/2 62/3/2
f 56/3/2 49/3/2 62/3/2
f 63/3/2 64/3/2 65/3/2
f 65/3/2 64/3/2 66/3/2
f 69/3/3 68/3/3 67/3/3
f 70/3/3 68/3/3 69/3/3
f 73/3/3 72/3/3 71/3/3
f 74/3/3 72/3/3 73/3/3
f 75/3/3 73/3/3 71/3/3
f 75/1/3 74/1/3 73/1/3
f 76/3/3 72/3/3 74/3/3
f 76/1/3 74/1/3 75/1/3
f 77/3/3 72/3/3 76/3/3
f 78/3/3 72/3/3 77/3/3
f 79/3/3 75/3/3 71/3/3
f 79/3/3 76/3/3 75/3/3
f 80/3/3 76/3/3 79/3/3
f 81/1/3 78/1/3 77/1/3
f 82/3/3 72/3/3 78/3/3
f 82/1/3 78/1/3 81/1/3
f 83/1/3 80/1/3 79/1/3
f 84/3/3 76/3/3 80/3/3
f 84/1/3 80/1/3 83/1/3
f 85/3/3 76/3/3 84/3/3
f 86/3/3 82/3/3 81/3/3
f 87/3/3 85/3/3 84/3/3
f 87/3/3 86/3/3 85/3/3
f 87/3/3 84/3/3 83/3/3
f 88/3/3 72/3/3 82/3/3
f 88/3/3 86/3/3 87/3/3
f 88/3/3 82/3/3 86/3/3
f 91/3/3 90/3/3 89/3/3
f 92/3/3 90/3/3 91/3/3
f 93/3/3 90/3/3 92/3/3
f 96/2/3 95/2/3 94/2/3
f 97/2/3 95/2/3 96/2/3
f 101/3/3 99/3/3 98/3/3
f 101/3/3 100/3/3 99/3/3
f 102/3/3 100/3/3 101/3/3
f 103/2/4 104/2/4 105/2/4
f 105/2/4 104/2/4 106/2/4
f 107/3/4 108/3/4 109/3/4
f 109/3/4 108/3/4 110/3/4
f 111/3/4 112/3/4 113/3/4
f 113/3/4 112/3/4 114/3/4
f 115/3/4 116/3/4 117/3/4
f 117/3/4 116/3/4 118/3/4
f 115/3/4 117/3/4 119/3/4
f 117/1/4 118/1/4 119/1/4
f 118/3/4 116/3/4 120/3/4
f 119/1/4 118/1/4 120/1/4
f 120/3/4 116/3/4 121/3/4
f 121/3/4 116/3/4 122/3/4
f 115/3/4 119/3/4 123/3/4
f 119/3/4 120/3/4 123/3/4
f 120/3/4 121/3/4 123/3/4
f 123/3/4 121/3/4 124/3/4
f 123/1/4 124/1/4 125/1/4
f 124/3/4 121/3/4 126/3/4
f 125/1/4 124/1/4 126/1/4
f 126/3/4 121/3/4 127/3/4
f 127/3/4 121/3/4 128/3/4
f 122/3/4 116/3/4 129/3/4
f 127/1/4 128/1/4 130/1/4
f 125/3/4 126/3/4 130/3/4
f 126/3/4 127/3/4 130/3/4
f 128/3/4 129/3/4 131/3/4
f 130/1/4 128/1/4 131/1/4
f 125/3/4 130/3/4 132/3/4
f 130/3/4 131/3/4 132/3/4
f 131/3/4 129/3/4 133/3/4
f 132/3/4 131/3/4 133/3/4
f 129/3/4 116/3/4 133/3/4
f 134/3/4 135/3/4 136/3/4
f 136/3/4 135/3/4 137/3/4
f 140/2/5 139/2/5 138/2/5
f 141/2/5 139/2/5 140/2/5
f 146/3/5 143/3/5 142/3/5
f 146/1/5 144/1/5 143/1/5
f 147/3/5 145/3/5 144/3/5
f 147/1/5 144/1/5 146/1/5
f 148/3/5 146/3/5 142/3/5
f 148/3/5 147/3/5 146/3/5
f 149/3/5 147/3/5 148/3/5
f 150/3/5 148/3/5 142/3/5
f 151/3/5 147/3/5 149/3/5
f 152/3/5 151/3/5 150/3/5
f 153/3/5 147/3/5 151/3/5
f 153/3/5 151/3/5 152/3/5
f 154/3/5 150/3/5 142/3/5
f 154/3/5 152/3/5 150/3/5
f 155/1/5 153/1/5 152/1/5
f 155/3/5 152/3/5 154/3/5
f 156/3/5 147/3/5 153/3/5
f 156/1/5 153/1/5 155/1/5
f 157/3/5 145/3/5 147/3/5
f 157/3/5 147/3/5 156/3/5
f 160/3/5 159/3/5 158/3/5
f 161/3/5 159/3/5 160/3/5
f 164/3/5 163/3/5 162/3/5
f 165/3/5 163/3/5 164/3/5
f 168/3/5 167/3/5 166/3/5
f 169/3/5 167/3/5 168/3/5
f 172/3/5 171/3/5 170/3/5
f 173/3/5 171/3/5 172/3/5
f 174/3/6 175/3/6 176/3/6
f 176/3/6 175/3/6 177/3/6
f 178/3/6 179/3/6 180/3/6
f 180/3/6 179/3/6 181/3/6
f 181/3/6 179/3/6 182/3/6
f 183/3/6 184/3/6 185/3/6
f 185/3/6 184/3/6 186/3/6
f 187/3/6 188/3/6 189/3/6
f 189/3/6 188/3/6 190/3/6
f 191/3/6 192/3/6 193/3/6
f 193/3/6 192/3/6 194/3/6
f 191/3/6 193/3/6 195/3/6
f 193/1/6 194/1/6 195/1/6
f 194/3/6 192/3/6 196/3/6
f 195/1/6 194/1/6 196/1/6
f 191/3/6 195/3/6 197/3/6
f 195/3/6 196/3/6 197/3/6
f 197/3/6 196/3/6 198/3/6
f 191/3/6 197/3/6 199/3/6
f 197/1/6 198/1/6 199/1/6
f 198/3/6 196/3/6 200/3/6
f 199/1/6 198/1/6 200/1/6
f 191/3/6 199/3/6 201/3/6
f 199/3/6 200/3/6 201/3/6
f 196/3/6 192/3/6 202/3/6
f 201/3/6 200/3/6 202/3/6
f 200/3/6 196/3/6 202/3/6
