# MagicaVoxel @ Ephtracy

# group
g Tree_Small

# material
mtllib Tree_Small.mtl
usemtl palette

# normals
vn -1 0 0
vn 1 0 0
vn 0 0 1
vn 0 0 -1
vn 0 -1 0
vn 0 1 0

# texcoords
vt 0.318359 0.5
vt 0.556641 0.5

# verts
v -60 14 -42
v -60 14 -45
v -60 16 -42
v -60 16 -45
v -59 10 -40
v -59 10 -46
v -59 14 -42
v -59 14 -45
v -59 16 -42
v -59 16 -45
v -59 17 -40
v -59 17 -46
v -57 0 -42
v -57 0 -44
v -57 10 -42
v -57 10 -44
v -57 14 -46
v -57 14 -47
v -57 16 -46
v -57 16 -47
v -56 12 -39
v -56 12 -40
v -56 15 -39
v -56 15 -40
v -55 0 -42
v -55 0 -44
v -55 10 -42
v -55 10 -44
v -55 14 -46
v -55 14 -47
v -55 16 -46
v -55 16 -47
v -54 12 -39
v -54 12 -40
v -54 15 -39
v -54 15 -40
v -53 10 -40
v -53 10 -46
v -53 11 -42
v -53 11 -45
v -53 14 -42
v -53 14 -45
v -53 17 -40
v -53 17 -46
v -52 11 -42
v -52 11 -45
v -52 14 -42
v -52 14 -45
v -56 12 -39
v -56 15 -39
v -54 12 -39
v -54 15 -39
v -59 10 -40
v -59 17 -40
v -56 12 -40
v -56 15 -40
v -54 12 -40
v -54 15 -40
v -53 10 -40
v -53 17 -40
v -60 14 -42
v -60 16 -42
v -59 14 -42
v -59 16 -42
v -57 0 -42
v -57 10 -42
v -55 0 -42
v -55 10 -42
v -53 11 -42
v -53 14 -42
v -52 11 -42
v -52 14 -42
v -57 0 -44
v -57 10 -44
v -55 0 -44
v -55 10 -44
v -60 14 -45
v -60 16 -45
v -59 14 -45
v -59 16 -45
v -53 11 -45
v -53 14 -45
v -52 11 -45
v -52 14 -45
v -59 10 -46
v -59 17 -46
v -57 14 -46
v -57 16 -46
v -55 14 -46
v -55 16 -46
v -53 10 -46
v -53 17 -46
v -57 14 -47
v -57 16 -47
v -55 14 -47
v -55 16 -47
v -57 0 -42
v -55 0 -42
v -57 0 -44
v -55 0 -44
v -59 10 -40
v -53 10 -40
v -57 10 -42
v -55 10 -42
v -57 10 -44
v -55 10 -44
v -59 10 -46
v -53 10 -46
v -53 11 -42
v -52 11 -42
v -53 11 -45
v -52 11 -45
v -56 12 -39
v -54 12 -39
v -56 12 -40
v -54 12 -40
v -60 14 -42
v -59 14 -42
v -60 14 -45
v -59 14 -45
v -57 14 -46
v -55 14 -46
v -57 14 -47
v -55 14 -47
v -53 14 -42
v -52 14 -42
v -53 14 -45
v -52 14 -45
v -56 15 -39
v -54 15 -39
v -56 15 -40
v -54 15 -40
v -60 16 -42
v -59 16 -42
v -60 16 -45
v -59 16 -45
v -57 16 -46
v -55 16 -46
v -57 16 -47
v -55 16 -47
v -59 17 -40
v -53 17 -40
v -59 17 -46
v -53 17 -46

# faces
f 3/2/1 2/2/1 1/2/1
f 4/2/1 2/2/1 3/2/1
f 7/2/1 6/2/1 5/2/1
f 8/2/1 6/2/1 7/2/1
f 9/2/1 7/2/1 5/2/1
f 10/2/1 6/2/1 8/2/1
f 11/2/1 9/2/1 5/2/1
f 11/2/1 10/2/1 9/2/1
f 12/2/1 6/2/1 10/2/1
f 12/2/1 10/2/1 11/2/1
f 15/1/1 14/1/1 13/1/1
f 16/1/1 14/1/1 15/1/1
f 19/2/1 18/2/1 17/2/1
f 20/2/1 18/2/1 19/2/1
f 23/2/1 22/2/1 21/2/1
f 24/2/1 22/2/1 23/2/1
f 25/1/2 26/1/2 27/1/2
f 27/1/2 26/1/2 28/1/2
f 29/2/2 30/2/2 31/2/2
f 31/2/2 30/2/2 32/2/2
f 33/2/2 34/2/2 35/2/2
f 35/2/2 34/2/2 36/2/2
f 37/2/2 38/2/2 39/2/2
f 39/2/2 38/2/2 40/2/2
f 37/2/2 39/2/2 41/2/2
f 40/2/2 38/2/2 42/2/2
f 37/2/2 41/2/2 43/2/2
f 41/2/2 42/2/2 43/2/2
f 42/2/2 38/2/2 44/2/2
f 43/2/2 42/2/2 44/2/2
f 45/2/2 46/2/2 47/2/2
f 47/2/2 46/2/2 48/2/2
f 51/2/3 50/2/3 49/2/3
f 52/2/3 50/2/3 51/2/3
f 55/2/3 54/2/3 53/2/3
f 56/2/3 54/2/3 55/2/3
f 57/2/3 55/2/3 53/2/3
f 58/2/3 54/2/3 56/2/3
f 59/2/3 57/2/3 53/2/3
f 59/2/3 58/2/3 57/2/3
f 60/2/3 54/2/3 58/2/3
f 60/2/3 58/2/3 59/2/3
f 63/2/3 62/2/3 61/2/3
f 64/2/3 62/2/3 63/2/3
f 67/1/3 66/1/3 65/1/3
f 68/1/3 66/1/3 67/1/3
f 71/2/3 70/2/3 69/2/3
f 72/2/3 70/2/3 71/2/3
f 73/1/4 74/1/4 75/1/4
f 75/1/4 74/1/4 76/1/4
f 77/2/4 78/2/4 79/2/4
f 79/2/4 78/2/4 80/2/4
f 81/2/4 82/2/4 83/2/4
f 83/2/4 82/2/4 84/2/4
f 85/2/4 86/2/4 87/2/4
f 87/2/4 86/2/4 88/2/4
f 85/2/4 87/2/4 89/2/4
f 88/2/4 86/2/4 90/2/4
f 85/2/4 89/2/4 91/2/4
f 89/2/4 90/2/4 91/2/4
f 90/2/4 86/2/4 92/2/4
f 91/2/4 90/2/4 92/2/4
f 93/2/4 94/2/4 95/2/4
f 95/2/4 94/2/4 96/2/4
f 99/1/5 98/1/5 97/1/5
f 100/1/5 98/1/5 99/1/5
f 103/2/5 102/2/5 101/2/5
f 104/2/5 102/2/5 103/2/5
f 105/2/5 103/2/5 101/2/5
f 106/2/5 102/2/5 104/2/5
f 107/2/5 105/2/5 101/2/5
f 107/2/5 106/2/5 105/2/5
f 108/2/5 102/2/5 106/2/5
f 108/2/5 106/2/5 107/2/5
f 111/2/5 110/2/5 109/2/5
f 112/2/5 110/2/5 111/2/5
f 115/2/5 114/2/5 113/2/5
f 116/2/5 114/2/5 115/2/5
f 119/2/5 118/2/5 117/2/5
f 120/2/5 118/2/5 119/2/5
f 123/2/5 122/2/5 121/2/5
f 124/2/5 122/2/5 123/2/5
f 125/2/6 126/2/6 127/2/6
f 127/2/6 126/2/6 128/2/6
f 129/2/6 130/2/6 131/2/6
f 131/2/6 130/2/6 132/2/6
f 133/2/6 134/2/6 135/2/6
f 135/2/6 134/2/6 136/2/6
f 137/2/6 138/2/6 139/2/6
f 139/2/6 138/2/6 140/2/6
f 141/2/6 142/2/6 143/2/6
f 143/2/6 142/2/6 144/2/6
