# MagicaVoxel @ Ephtracy

# group
g Tree_Medium

# material
mtllib Tree_Medium.mtl
usemtl palette

# normals
vn -1 0 0
vn 1 0 0
vn 0 0 1
vn 0 0 -1
vn 0 -1 0
vn 0 1 0

# texcoords
vt 0.318359 0.5
vt 0.556641 0.5

# verts
v -62 18 -11
v -62 18 -13
v -62 20 -11
v -62 20 -13
v -62 22 -14
v -62 22 -18
v -62 25 -14
v -62 25 -18
v -61 16 -10
v -61 16 -20
v -61 18 -11
v -61 18 -13
v -61 20 -11
v -61 20 -13
v -61 22 -14
v -61 22 -18
v -61 25 -14
v -61 25 -18
v -61 26 -10
v -61 26 -20
v -60 17 -9
v -60 17 -10
v -60 21 -9
v -60 21 -10
v -60 26 -11
v -60 26 -15
v -60 27 -11
v -60 27 -15
v -58 18 -20
v -58 18 -21
v -58 21 -20
v -58 21 -21
v -57 0 -13
v -57 0 -17
v -57 16 -13
v -57 16 -17
v -55 22 -9
v -55 22 -10
v -55 24 -9
v -55 24 -10
v -54 23 -20
v -54 23 -21
v -54 25 -20
v -54 25 -21
v -54 26 -16
v -54 26 -18
v -54 27 -16
v -54 27 -18
v -56 17 -9
v -56 17 -10
v -56 21 -9
v -56 21 -10
v -56 26 -11
v -56 26 -15
v -56 27 -11
v -56 27 -15
v -55 18 -20
v -55 18 -21
v -55 21 -20
v -55 21 -21
v -54 0 -13
v -54 0 -17
v -54 16 -13
v -54 16 -17
v -53 22 -9
v -53 22 -10
v -53 24 -9
v -53 24 -10
v -52 23 -20
v -52 23 -21
v -52 25 -20
v -52 25 -21
v -52 26 -16
v -52 26 -18
v -52 27 -16
v -52 27 -18
v -50 16 -10
v -50 16 -20
v -50 18 -14
v -50 18 -18
v -50 22 -14
v -50 22 -18
v -50 26 -10
v -50 26 -20
v -49 18 -14
v -49 18 -18
v -49 22 -14
v -49 22 -18
v -60 17 -9
v -60 21 -9
v -56 17 -9
v -56 21 -9
v -55 22 -9
v -55 24 -9
v -53 22 -9
v -53 24 -9
v -61 16 -10
v -61 26 -10
v -60 17 -10
v -60 21 -10
v -56 17 -10
v -56 21 -10
v -55 22 -10
v -55 24 -10
v -53 22 -10
v -53 24 -10
v -50 16 -10
v -50 26 -10
v -62 18 -11
v -62 20 -11
v -61 18 -11
v -61 20 -11
v -60 26 -11
v -60 27 -11
v -56 26 -11
v -56 27 -11
v -57 0 -13
v -57 16 -13
v -54 0 -13
v -54 16 -13
v -62 22 -14
v -62 25 -14
v -61 22 -14
v -61 25 -14
v -50 18 -14
v -50 22 -14
v -49 18 -14
v -49 22 -14
v -54 26 -16
v -54 27 -16
v -52 26 -16
v -52 27 -16
v -62 18 -13
v -62 20 -13
v -61 18 -13
v -61 20 -13
v -60 26 -15
v -60 27 -15
v -56 26 -15
v -56 27 -15
v -57 0 -17
v -57 16 -17
v -54 0 -17
v -54 16 -17
v -62 22 -18
v -62 25 -18
v -61 22 -18
v -61 25 -18
v -54 26 -18
v -54 27 -18
v -52 26 -18
v -52 27 -18
v -50 18 -18
v -50 22 -18
v -49 18 -18
v -49 22 -18
v -61 16 -20
v -61 26 -20
v -58 18 -20
v -58 21 -20
v -55 18 -20
v -55 21 -20
v -54 23 -20
v -54 25 -20
v -52 23 -20
v -52 25 -20
v -50 16 -20
v -50 26 -20
v -58 18 -21
v -58 21 -21
v -55 18 -21
v -55 21 -21
v -54 23 -21
v -54 25 -21
v -52 23 -21
v -52 25 -21
v -57 0 -13
v -54 0 -13
v -57 0 -17
v -54 0 -17
v -61 16 -10
v -50 16 -10
v -57 16 -13
v -54 16 -13
v -57 16 -17
v -54 16 -17
v -61 16 -20
v -50 16 -20
v -60 17 -9
v -56 17 -9
v -60 17 -10
v -56 17 -10
v -62 18 -11
v -61 18 -11
v -62 18 -13
v -61 18 -13
v -50 18 -14
v -49 18 -14
v -50 18 -18
v -49 18 -18
v -58 18 -20
v -55 18 -20
v -58 18 -21
v -55 18 -21
v -55 22 -9
v -53 22 -9
v -55 22 -10
v -53 22 -10
v -62 22 -14
v -61 22 -14
v -62 22 -18
v -61 22 -18
v -54 23 -20
v -52 23 -20
v -54 23 -21
v -52 23 -21
v -62 20 -11
v -61 20 -11
v -62 20 -13
v -61 20 -13
v -60 21 -9
v -56 21 -9
v -60 21 -10
v -56 21 -10
v -58 21 -20
v -55 21 -20
v -58 21 -21
v -55 21 -21
v -50 22 -14
v -49 22 -14
v -50 22 -18
v -49 22 -18
v -55 24 -9
v -53 24 -9
v -55 24 -10
v -53 24 -10
v -62 25 -14
v -61 25 -14
v -62 25 -18
v -61 25 -18
v -54 25 -20
v -52 25 -20
v -54 25 -21
v -52 25 -21
v -61 26 -10
v -50 26 -10
v -60 26 -11
v -56 26 -11
v -60 26 -15
v -56 26 -15
v -54 26 -16
v -52 26 -16
v -54 26 -18
v -52 26 -18
v -61 26 -20
v -50 26 -20
v -60 27 -11
v -56 27 -11
v -60 27 -15
v -56 27 -15
v -54 27 -16
v -52 27 -16
v -54 27 -18
v -52 27 -18

# faces
f 3/2/1 2/2/1 1/2/1
f 4/2/1 2/2/1 3/2/1
f 7/2/1 6/2/1 5/2/1
f 8/2/1 6/2/1 7/2/1
f 11/2/1 10/2/1 9/2/1
f 12/2/1 10/2/1 11/2/1
f 13/2/1 11/2/1 9/2/1
f 14/2/1 10/2/1 12/2/1
f 15/2/1 10/2/1 14/2/1
f 15/2/1 14/2/1 13/2/1
f 16/2/1 10/2/1 15/2/1
f 17/2/1 15/2/1 13/2/1
f 18/2/1 10/2/1 16/2/1
f 19/2/1 13/2/1 9/2/1
f 19/2/1 18/2/1 17/2/1
f 19/2/1 17/2/1 13/2/1
f 20/2/1 10/2/1 18/2/1
f 20/2/1 18/2/1 19/2/1
f 23/2/1 22/2/1 21/2/1
f 24/2/1 22/2/1 23/2/1
f 27/2/1 26/2/1 25/2/1
f 28/2/1 26/2/1 27/2/1
f 31/2/1 30/2/1 29/2/1
f 32/2/1 30/2/1 31/2/1
f 35/1/1 34/1/1 33/1/1
f 36/1/1 34/1/1 35/1/1
f 39/2/1 38/2/1 37/2/1
f 40/2/1 38/2/1 39/2/1
f 43/2/1 42/2/1 41/2/1
f 44/2/1 42/2/1 43/2/1
f 47/2/1 46/2/1 45/2/1
f 48/2/1 46/2/1 47/2/1
f 49/2/2 50/2/2 51/2/2
f 51/2/2 50/2/2 52/2/2
f 53/2/2 54/2/2 55/2/2
f 55/2/2 54/2/2 56/2/2
f 57/2/2 58/2/2 59/2/2
f 59/2/2 58/2/2 60/2/2
f 61/1/2 62/1/2 63/1/2
f 63/1/2 62/1/2 64/1/2
f 65/2/2 66/2/2 67/2/2
f 67/2/2 66/2/2 68/2/2
f 69/2/2 70/2/2 71/2/2
f 71/2/2 70/2/2 72/2/2
f 73/2/2 74/2/2 75/2/2
f 75/2/2 74/2/2 76/2/2
f 77/2/2 78/2/2 79/2/2
f 79/2/2 78/2/2 80/2/2
f 77/2/2 79/2/2 81/2/2
f 80/2/2 78/2/2 82/2/2
f 77/2/2 81/2/2 83/2/2
f 81/2/2 82/2/2 83/2/2
f 82/2/2 78/2/2 84/2/2
f 83/2/2 82/2/2 84/2/2
f 85/2/2 86/2/2 87/2/2
f 87/2/2 86/2/2 88/2/2
f 91/2/3 90/2/3 89/2/3
f 92/2/3 90/2/3 91/2/3
f 95/2/3 94/2/3 93/2/3
f 96/2/3 94/2/3 95/2/3
f 99/2/3 98/2/3 97/2/3
f 100/2/3 98/2/3 99/2/3
f 101/2/3 99/2/3 97/2/3
f 102/2/3 98/2/3 100/2/3
f 103/2/3 98/2/3 102/2/3
f 103/2/3 102/2/3 101/2/3
f 104/2/3 98/2/3 103/2/3
f 105/2/3 103/2/3 101/2/3
f 106/2/3 98/2/3 104/2/3
f 107/2/3 101/2/3 97/2/3
f 107/2/3 106/2/3 105/2/3
f 107/2/3 105/2/3 101/2/3
f 108/2/3 98/2/3 106/2/3
f 108/2/3 106/2/3 107/2/3
f 111/2/3 110/2/3 109/2/3
f 112/2/3 110/2/3 111/2/3
f 115/2/3 114/2/3 113/2/3
f 116/2/3 114/2/3 115/2/3
f 119/1/3 118/1/3 117/1/3
f 120/1/3 118/1/3 119/1/3
f 123/2/3 122/2/3 121/2/3
f 124/2/3 122/2/3 123/2/3
f 127/2/3 126/2/3 125/2/3
f 128/2/3 126/2/3 127/2/3
f 131/2/3 130/2/3 129/2/3
f 132/2/3 130/2/3 131/2/3
f 133/2/4 134/2/4 135/2/4
f 135/2/4 134/2/4 136/2/4
f 137/2/4 138/2/4 139/2/4
f 139/2/4 138/2/4 140/2/4
f 141/1/4 142/1/4 143/1/4
f 143/1/4 142/1/4 144/1/4
f 145/2/4 146/2/4 147/2/4
f 147/2/4 146/2/4 148/2/4
f 149/2/4 150/2/4 151/2/4
f 151/2/4 150/2/4 152/2/4
f 153/2/4 154/2/4 155/2/4
f 155/2/4 154/2/4 156/2/4
f 157/2/4 158/2/4 159/2/4
f 159/2/4 158/2/4 160/2/4
f 157/2/4 159/2/4 161/2/4
f 160/2/4 158/2/4 162/2/4
f 162/2/4 158/2/4 163/2/4
f 161/2/4 162/2/4 163/2/4
f 163/2/4 158/2/4 164/2/4
f 161/2/4 163/2/4 165/2/4
f 164/2/4 158/2/4 166/2/4
f 157/2/4 161/2/4 167/2/4
f 165/2/4 166/2/4 167/2/4
f 161/2/4 165/2/4 167/2/4
f 166/2/4 158/2/4 168/2/4
f 167/2/4 166/2/4 168/2/4
f 169/2/4 170/2/4 171/2/4
f 171/2/4 170/2/4 172/2/4
f 173/2/4 174/2/4 175/2/4
f 175/2/4 174/2/4 176/2/4
f 179/1/5 178/1/5 177/1/5
f 180/1/5 178/1/5 179/1/5
f 183/2/5 182/2/5 181/2/5
f 184/2/5 182/2/5 183/2/5
f 185/2/5 183/2/5 181/2/5
f 186/2/5 182/2/5 184/2/5
f 187/2/5 185/2/5 181/2/5
f 187/2/5 186/2/5 185/2/5
f 188/2/5 182/2/5 186/2/5
f 188/2/5 186/2/5 187/2/5
f 191/2/5 190/2/5 189/2/5
f 192/2/5 190/2/5 191/2/5
f 195/2/5 194/2/5 193/2/5
f 196/2/5 194/2/5 195/2/5
f 199/2/5 198/2/5 197/2/5
f 200/2/5 198/2/5 199/2/5
f 203/2/5 202/2/5 201/2/5
f 204/2/5 202/2/5 203/2/5
f 207/2/5 206/2/5 205/2/5
f 208/2/5 206/2/5 207/2/5
f 211/2/5 210/2/5 209/2/5
f 212/2/5 210/2/5 211/2/5
f 215/2/5 214/2/5 213/2/5
f 216/2/5 214/2/5 215/2/5
f 217/2/6 218/2/6 219/2/6
f 219/2/6 218/2/6 220/2/6
f 221/2/6 222/2/6 223/2/6
f 223/2/6 222/2/6 224/2/6
f 225/2/6 226/2/6 227/2/6
f 227/2/6 226/2/6 228/2/6
f 229/2/6 230/2/6 231/2/6
f 231/2/6 230/2/6 232/2/6
f 233/2/6 234/2/6 235/2/6
f 235/2/6 234/2/6 236/2/6
f 237/2/6 238/2/6 239/2/6
f 239/2/6 238/2/6 240/2/6
f 241/2/6 242/2/6 243/2/6
f 243/2/6 242/2/6 244/2/6
f 245/2/6 246/2/6 247/2/6
f 247/2/6 246/2/6 248/2/6
f 245/2/6 247/2/6 249/2/6
f 248/2/6 246/2/6 250/2/6
f 250/2/6 246/2/6 251/2/6
f 249/2/6 250/2/6 251/2/6
f 251/2/6 246/2/6 252/2/6
f 249/2/6 251/2/6 253/2/6
f 252/2/6 246/2/6 254/2/6
f 245/2/6 249/2/6 255/2/6
f 253/2/6 254/2/6 255/2/6
f 249/2/6 253/2/6 255/2/6
f 254/2/6 246/2/6 256/2/6
f 255/2/6 254/2/6 256/2/6
f 257/2/6 258/2/6 259/2/6
f 259/2/6 258/2/6 260/2/6
f 261/2/6 262/2/6 263/2/6
f 263/2/6 262/2/6 264/2/6
