# MagicaVoxel @ Ephtracy

# group
g Tree_Large

# material
mtllib Tree_Large.mtl
usemtl palette

# normals
vn -1 0 0
vn 1 0 0
vn 0 0 1
vn 0 0 -1
vn 0 -1 0
vn 0 1 0

# texcoords
vt 0.318359 0.5
vt 0.556641 0.5

# verts
v -44 27 48
v -44 27 43
v -44 32 48
v -44 32 43
v -43 22 51
v -43 22 49
v -43 24 51
v -43 24 49
v -42 20 53
v -42 20 41
v -42 22 51
v -42 22 49
v -42 24 51
v -42 24 49
v -42 27 48
v -42 27 43
v -42 32 48
v -42 32 43
v -42 33 53
v -42 33 41
v -41 33 52
v -41 33 48
v -41 34 52
v -41 34 48
v -40 23 54
v -40 23 53
v -40 25 54
v -40 25 53
v -38 0 49
v -38 0 45
v -38 20 49
v -38 20 45
v -36 12 51
v -36 12 49
v -36 14 51
v -36 14 49
v -36 18 57
v -36 18 55
v -36 20 57
v -36 20 55
v -36 27 54
v -36 27 53
v -36 30 54
v -36 30 53
v -35 12 53
v -35 12 51
v -35 14 53
v -35 14 51
v -35 17 60
v -35 17 54
v -35 18 57
v -35 18 55
v -35 20 57
v -35 20 55
v -35 23 60
v -35 23 54
v -35 29 41
v -35 29 40
v -35 32 41
v -35 32 40
v -35 33 45
v -35 33 43
v -35 34 45
v -35 34 43
v -34 12 55
v -34 12 53
v -34 13 56
v -34 13 55
v -34 14 54
v -34 14 53
v -34 15 57
v -34 15 56
v -34 15 55
v -34 15 54
v -34 16 57
v -34 16 55
v -34 23 58
v -34 23 56
v -34 24 58
v -34 24 56
v -33 13 57
v -33 13 56
v -33 14 58
v -33 14 57
v -33 15 57
v -33 15 56
v -33 16 57
v -33 16 56
v -33 17 58
v -33 17 56
v -32 20 61
v -32 20 60
v -32 22 61
v -32 22 60
v -38 23 54
v -38 23 53
v -38 25 54
v -38 25 53
v -37 33 52
v -37 33 48
v -37 34 52
v -37 34 48
v -34 0 49
v -34 0 45
v -34 12 51
v -34 12 49
v -34 14 51
v -34 14 49
v -34 20 49
v -34 20 45
v -33 12 53
v -33 12 51
v -33 14 53
v -33 14 51
v -33 27 54
v -33 27 53
v -33 29 41
v -33 29 40
v -33 30 54
v -33 30 53
v -33 32 41
v -33 32 40
v -32 12 55
v -32 12 53
v -32 13 57
v -32 13 55
v -32 14 57
v -32 14 56
v -32 14 54
v -32 14 53
v -32 15 55
v -32 15 54
v -32 16 56
v -32 16 55
v -32 23 58
v -32 23 56
v -32 24 58
v -32 24 56
v -32 33 45
v -32 33 43
v -32 34 45
v -32 34 43
v -31 14 58
v -31 14 56
v -31 17 58
v -31 17 56
v -30 20 61
v -30 20 60
v -30 20 53
v -30 20 41
v -30 22 61
v -30 22 60
v -30 22 48
v -30 22 43
v -30 27 48
v -30 27 43
v -30 33 53
v -30 33 41
v -29 17 60
v -29 17 54
v -29 18 57
v -29 18 55
v -29 20 57
v -29 20 55
v -29 23 60
v -29 23 54
v -28 18 57
v -28 18 55
v -28 20 57
v -28 20 55
v -28 22 48
v -28 22 43
v -28 27 48
v -28 27 43
v -32 20 61
v -32 22 61
v -30 20 61
v -30 22 61
v -35 17 60
v -35 23 60
v -32 20 60
v -32 22 60
v -30 20 60
v -30 22 60
v -29 17 60
v -29 23 60
v -34 23 58
v -34 24 58
v -33 14 58
v -33 17 58
v -32 23 58
v -32 24 58
v -31 14 58
v -31 17 58
v -36 18 57
v -36 20 57
v -35 18 57
v -35 20 57
v -34 15 57
v -34 16 57
v -33 13 57
v -33 14 57
v -33 15 57
v -33 16 57
v -32 13 57
v -32 14 57
v -29 18 57
v -29 20 57
v -28 18 57
v -28 20 57
v -34 13 56
v -34 15 56
v -33 13 56
v -33 15 56
v -34 12 55
v -34 13 55
v -32 12 55
v -32 13 55
v -40 23 54
v -40 25 54
v -38 23 54
v -38 25 54
v -36 27 54
v -36 30 54
v -33 27 54
v -33 30 54
v -42 20 53
v -42 33 53
v -40 23 53
v -40 25 53
v -38 23 53
v -38 25 53
v -36 27 53
v -36 30 53
v -35 12 53
v -35 14 53
v -34 12 53
v -34 14 53
v -33 27 53
v -33 30 53
v -30 20 53
v -30 33 53
v -41 33 52
v -41 34 52
v -37 33 52
v -37 34 52
v -43 22 51
v -43 24 51
v -42 22 51
v -42 24 51
v -36 12 51
v -36 14 51
v -35 12 51
v -35 14 51
v -38 0 49
v -38 20 49
v -36 12 49
v -36 14 49
v -34 0 49
v -34 12 49
v -34 14 49
v -34 20 49
v -44 27 48
v -44 32 48
v -42 27 48
v -42 32 48
v -30 22 48
v -30 27 48
v -28 22 48
v -28 27 48
v -35 33 45
v -35 34 45
v -32 33 45
v -32 34 45
v -34 23 56
v -34 24 56
v -33 16 56
v -33 17 56
v -32 14 56
v -32 16 56
v -32 23 56
v -32 24 56
v -31 14 56
v -31 17 56
v -36 18 55
v -36 20 55
v -35 18 55
v -35 20 55
v -34 15 55
v -34 16 55
v -32 15 55
v -32 16 55
v -29 18 55
v -29 20 55
v -28 18 55
v -28 20 55
v -35 17 54
v -35 23 54
v -34 14 54
v -34 15 54
v -32 14 54
v -32 15 54
v -29 17 54
v -29 23 54
v -33 12 53
v -33 14 53
v -32 12 53
v -32 14 53
v -34 12 51
v -34 14 51
v -33 12 51
v -33 14 51
v -43 22 49
v -43 24 49
v -42 22 49
v -42 24 49
v -41 33 48
v -41 34 48
v -37 33 48
v -37 34 48
v -38 0 45
v -38 20 45
v -34 0 45
v -34 20 45
v -44 27 43
v -44 32 43
v -42 27 43
v -42 32 43
v -35 33 43
v -35 34 43
v -32 33 43
v -32 34 43
v -30 22 43
v -30 27 43
v -28 22 43
v -28 27 43
v -42 20 41
v -42 33 41
v -35 29 41
v -35 32 41
v -33 29 41
v -33 32 41
v -30 20 41
v -30 33 41
v -35 29 40
v -35 32 40
v -33 29 40
v -33 32 40
v -38 0 49
v -34 0 49
v -38 0 45
v -34 0 45
v -34 12 55
v -32 12 55
v -35 12 53
v -34 12 53
v -33 12 53
v -32 12 53
v -36 12 51
v -35 12 51
v -34 12 51
v -33 12 51
v -36 12 49
v -34 12 49
v -33 13 57
v -32 13 57
v -34 13 56
v -33 13 56
v -34 13 55
v -32 13 55
v -33 14 58
v -31 14 58
v -33 14 57
v -32 14 57
v -32 14 56
v -31 14 56
v -34 15 57
v -33 15 57
v -34 15 56
v -33 15 56
v -35 17 60
v -29 17 60
v -33 17 58
v -31 17 58
v -33 17 56
v -31 17 56
v -35 17 54
v -29 17 54
v -36 18 57
v -35 18 57
v -29 18 57
v -28 18 57
v -36 18 55
v -35 18 55
v -29 18 55
v -28 18 55
v -32 20 61
v -30 20 61
v -32 20 60
v -30 20 60
v -42 20 53
v -30 20 53
v -38 20 49
v -34 20 49
v -38 20 45
v -34 20 45
v -42 20 41
v -30 20 41
v -43 22 51
v -42 22 51
v -43 22 49
v -42 22 49
v -30 22 48
v -28 22 48
v -30 22 43
v -28 22 43
v -40 23 54
v -38 23 54
v -40 23 53
v -38 23 53
v -36 27 54
v -33 27 54
v -36 27 53
v -33 27 53
v -44 27 48
v -42 27 48
v -44 27 43
v -42 27 43
v -35 29 41
v -33 29 41
v -35 29 40
v -33 29 40
v -34 14 54
v -32 14 54
v -35 14 53
v -34 14 53
v -33 14 53
v -32 14 53
v -36 14 51
v -35 14 51
v -34 14 51
v -33 14 51
v -36 14 49
v -34 14 49
v -34 15 55
v -32 15 55
v -34 15 54
v -32 15 54
v -34 16 57
v -33 16 57
v -33 16 56
v -32 16 56
v -34 16 55
v -32 16 55
v -36 20 57
v -35 20 57
v -29 20 57
v -28 20 57
v -36 20 55
v -35 20 55
v -29 20 55
v -28 20 55
v -32 22 61
v -30 22 61
v -32 22 60
v -30 22 60
v -35 23 60
v -29 23 60
v -34 23 58
v -32 23 58
v -34 23 56
v -32 23 56
v -35 23 54
v -29 23 54
v -34 24 58
v -32 24 58
v -34 24 56
v -32 24 56
v -43 24 51
v -42 24 51
v -43 24 49
v -42 24 49
v -40 25 54
v -38 25 54
v -40 25 53
v -38 25 53
v -30 27 48
v -28 27 48
v -30 27 43
v -28 27 43
v -36 30 54
v -33 30 54
v -36 30 53
v -33 30 53
v -44 32 48
v -42 32 48
v -44 32 43
v -42 32 43
v -35 32 41
v -33 32 41
v -35 32 40
v -33 32 40
v -42 33 53
v -30 33 53
v -41 33 52
v -37 33 52
v -41 33 48
v -37 33 48
v -35 33 45
v -32 33 45
v -35 33 43
v -32 33 43
v -42 33 41
v -30 33 41
v -41 34 52
v -37 34 52
v -41 34 48
v -37 34 48
v -35 34 45
v -32 34 45
v -35 34 43
v -32 34 43

# faces
f 3/2/1 2/2/1 1/2/1
f 4/2/1 2/2/1 3/2/1
f 7/2/1 6/2/1 5/2/1
f 8/2/1 6/2/1 7/2/1
f 11/2/1 10/2/1 9/2/1
f 12/2/1 10/2/1 11/2/1
f 13/2/1 11/2/1 9/2/1
f 14/2/1 10/2/1 12/2/1
f 15/2/1 10/2/1 14/2/1
f 15/2/1 14/2/1 13/2/1
f 16/2/1 10/2/1 15/2/1
f 17/2/1 15/2/1 13/2/1
f 18/2/1 10/2/1 16/2/1
f 19/2/1 13/2/1 9/2/1
f 19/2/1 18/2/1 17/2/1
f 19/2/1 17/2/1 13/2/1
f 20/2/1 10/2/1 18/2/1
f 20/2/1 18/2/1 19/2/1
f 23/2/1 22/2/1 21/2/1
f 24/2/1 22/2/1 23/2/1
f 27/2/1 26/2/1 25/2/1
f 28/2/1 26/2/1 27/2/1
f 31/1/1 30/1/1 29/1/1
f 32/1/1 30/1/1 31/1/1
f 35/1/1 34/1/1 33/1/1
f 36/1/1 34/1/1 35/1/1
f 39/2/1 38/2/1 37/2/1
f 40/2/1 38/2/1 39/2/1
f 43/2/1 42/2/1 41/2/1
f 44/2/1 42/2/1 43/2/1
f 47/1/1 46/1/1 45/1/1
f 48/1/1 46/1/1 47/1/1
f 51/2/1 50/2/1 49/2/1
f 52/2/1 50/2/1 51/2/1
f 53/2/1 51/2/1 49/2/1
f 54/2/1 50/2/1 52/2/1
f 55/2/1 53/2/1 49/2/1
f 55/2/1 54/2/1 53/2/1
f 56/2/1 50/2/1 54/2/1
f 56/2/1 54/2/1 55/2/1
f 59/2/1 58/2/1 57/2/1
f 60/2/1 58/2/1 59/2/1
f 63/2/1 62/2/1 61/2/1
f 64/2/1 62/2/1 63/2/1
f 68/1/1 66/1/1 65/1/1
f 69/1/1 66/1/1 68/1/1
f 69/1/1 68/1/1 67/1/1
f 70/1/1 66/1/1 69/1/1
f 72/1/1 69/1/1 67/1/1
f 73/1/1 69/1/1 72/1/1
f 74/1/1 69/1/1 73/1/1
f 75/1/1 72/1/1 71/1/1
f 75/1/1 73/1/1 72/1/1
f 76/1/1 73/1/1 75/1/1
f 79/2/1 78/2/1 77/2/1
f 80/2/1 78/2/1 79/2/1
f 84/1/1 82/1/1 81/1/1
f 85/1/1 82/1/1 84/1/1
f 85/1/1 84/1/1 83/1/1
f 86/1/1 82/1/1 85/1/1
f 87/1/1 85/1/1 83/1/1
f 89/1/1 87/1/1 83/1/1
f 89/1/1 88/1/1 87/1/1
f 90/1/1 88/1/1 89/1/1
f 93/2/1 92/2/1 91/2/1
f 94/2/1 92/2/1 93/2/1
f 95/2/2 96/2/2 97/2/2
f 97/2/2 96/2/2 98/2/2
f 99/2/2 100/2/2 101/2/2
f 101/2/2 100/2/2 102/2/2
f 103/1/2 104/1/2 106/1/2
f 105/1/2 106/1/2 107/1/2
f 106/1/2 104/1/2 108/1/2
f 107/1/2 106/1/2 108/1/2
f 108/1/2 104/1/2 109/1/2
f 109/1/2 104/1/2 110/1/2
f 111/1/2 112/1/2 113/1/2
f 113/1/2 112/1/2 114/1/2
f 115/2/2 116/2/2 119/2/2
f 119/2/2 116/2/2 120/2/2
f 117/2/2 118/2/2 121/2/2
f 121/2/2 118/2/2 122/2/2
f 123/1/2 124/1/2 126/1/2
f 125/1/2 126/1/2 127/1/2
f 127/1/2 126/1/2 128/1/2
f 126/1/2 124/1/2 129/1/2
f 128/1/2 126/1/2 129/1/2
f 129/1/2 124/1/2 130/1/2
f 128/1/2 129/1/2 131/1/2
f 131/1/2 129/1/2 132/1/2
f 128/1/2 131/1/2 133/1/2
f 133/1/2 131/1/2 134/1/2
f 135/2/2 136/2/2 137/2/2
f 137/2/2 136/2/2 138/2/2
f 139/2/2 140/2/2 141/2/2
f 141/2/2 140/2/2 142/2/2
f 143/1/2 144/1/2 145/1/2
f 145/1/2 144/1/2 146/1/2
f 147/2/2 148/2/2 151/2/2
f 151/2/2 148/2/2 152/2/2
f 149/2/2 150/2/2 153/2/2
f 153/2/2 150/2/2 154/2/2
f 149/2/2 153/2/2 155/2/2
f 154/2/2 150/2/2 156/2/2
f 149/2/2 155/2/2 157/2/2
f 155/2/2 156/2/2 157/2/2
f 156/2/2 150/2/2 158/2/2
f 157/2/2 156/2/2 158/2/2
f 159/2/2 160/2/2 161/2/2
f 161/2/2 160/2/2 162/2/2
f 159/2/2 161/2/2 163/2/2
f 162/2/2 160/2/2 164/2/2
f 159/2/2 163/2/2 165/2/2
f 163/2/2 164/2/2 165/2/2
f 164/2/2 160/2/2 166/2/2
f 165/2/2 164/2/2 166/2/2
f 167/2/2 168/2/2 169/2/2
f 169/2/2 168/2/2 170/2/2
f 171/2/2 172/2/2 173/2/2
f 173/2/2 172/2/2 174/2/2
f 177/2/3 176/2/3 175/2/3
f 178/2/3 176/2/3 177/2/3
f 181/2/3 180/2/3 179/2/3
f 182/2/3 180/2/3 181/2/3
f 183/2/3 181/2/3 179/2/3
f 184/2/3 180/2/3 182/2/3
f 185/2/3 183/2/3 179/2/3
f 185/2/3 184/2/3 183/2/3
f 186/2/3 180/2/3 184/2/3
f 186/2/3 184/2/3 185/2/3
f 191/2/3 188/2/3 187/2/3
f 192/2/3 188/2/3 191/2/3
f 193/1/3 190/1/3 189/1/3
f 194/1/3 190/1/3 193/1/3
f 197/2/3 196/2/3 195/2/3
f 198/2/3 196/2/3 197/2/3
f 203/1/3 200/1/3 199/1/3
f 204/1/3 200/1/3 203/1/3
f 205/1/3 202/1/3 201/1/3
f 206/1/3 202/1/3 205/1/3
f 209/2/3 208/2/3 207/2/3
f 210/2/3 208/2/3 209/2/3
f 213/1/3 212/1/3 211/1/3
f 214/1/3 212/1/3 213/1/3
f 217/1/3 216/1/3 215/1/3
f 218/1/3 216/1/3 217/1/3
f 221/2/3 220/2/3 219/2/3
f 222/2/3 220/2/3 221/2/3
f 225/2/3 224/2/3 223/2/3
f 226/2/3 224/2/3 225/2/3
f 229/2/3 228/2/3 227/2/3
f 230/2/3 228/2/3 229/2/3
f 231/2/3 229/2/3 227/2/3
f 232/2/3 228/2/3 230/2/3
f 233/2/3 228/2/3 232/2/3
f 233/2/3 232/2/3 231/2/3
f 234/2/3 228/2/3 233/2/3
f 237/1/3 236/1/3 235/1/3
f 238/1/3 236/1/3 237/1/3
f 239/2/3 233/2/3 231/2/3
f 240/2/3 228/2/3 234/2/3
f 241/2/3 231/2/3 227/2/3
f 241/2/3 240/2/3 239/2/3
f 241/2/3 239/2/3 231/2/3
f 242/2/3 228/2/3 240/2/3
f 242/2/3 240/2/3 241/2/3
f 245/2/3 244/2/3 243/2/3
f 246/2/3 244/2/3 245/2/3
f 249/2/3 248/2/3 247/2/3
f 250/2/3 248/2/3 249/2/3
f 253/1/3 252/1/3 251/1/3
f 254/1/3 252/1/3 253/1/3
f 257/1/3 256/1/3 255/1/3
f 258/1/3 256/1/3 257/1/3
f 259/1/3 257/1/3 255/1/3
f 260/1/3 257/1/3 259/1/3
f 261/1/3 256/1/3 258/1/3
f 262/1/3 256/1/3 261/1/3
f 265/2/3 264/2/3 263/2/3
f 266/2/3 264/2/3 265/2/3
f 269/2/3 268/2/3 267/2/3
f 270/2/3 268/2/3 269/2/3
f 273/2/3 272/2/3 271/2/3
f 274/2/3 272/2/3 273/2/3
f 277/1/4 278/1/4 280/1/4
f 275/2/4 276/2/4 281/2/4
f 281/2/4 276/2/4 282/2/4
f 279/1/4 280/1/4 283/1/4
f 280/1/4 278/1/4 284/1/4
f 283/1/4 280/1/4 284/1/4
f 285/2/4 286/2/4 287/2/4
f 287/2/4 286/2/4 288/2/4
f 289/1/4 290/1/4 291/1/4
f 291/1/4 290/1/4 292/1/4
f 293/2/4 294/2/4 295/2/4
f 295/2/4 294/2/4 296/2/4
f 299/1/4 300/1/4 301/1/4
f 301/1/4 300/1/4 302/1/4
f 297/2/4 298/2/4 303/2/4
f 303/2/4 298/2/4 304/2/4
f 305/1/4 306/1/4 307/1/4
f 307/1/4 306/1/4 308/1/4
f 309/1/4 310/1/4 311/1/4
f 311/1/4 310/1/4 312/1/4
f 313/2/4 314/2/4 315/2/4
f 315/2/4 314/2/4 316/2/4
f 317/2/4 318/2/4 319/2/4
f 319/2/4 318/2/4 320/2/4
f 321/1/4 322/1/4 323/1/4
f 323/1/4 322/1/4 324/1/4
f 325/2/4 326/2/4 327/2/4
f 327/2/4 326/2/4 328/2/4
f 329/2/4 330/2/4 331/2/4
f 331/2/4 330/2/4 332/2/4
f 333/2/4 334/2/4 335/2/4
f 335/2/4 334/2/4 336/2/4
f 337/2/4 338/2/4 339/2/4
f 339/2/4 338/2/4 340/2/4
f 337/2/4 339/2/4 341/2/4
f 340/2/4 338/2/4 342/2/4
f 337/2/4 341/2/4 343/2/4
f 341/2/4 342/2/4 343/2/4
f 342/2/4 338/2/4 344/2/4
f 343/2/4 342/2/4 344/2/4
f 345/2/4 346/2/4 347/2/4
f 347/2/4 346/2/4 348/2/4
f 351/1/5 350/1/5 349/1/5
f 352/1/5 350/1/5 351/1/5
f 356/1/5 354/1/5 353/1/5
f 357/1/5 354/1/5 356/1/5
f 358/1/5 354/1/5 357/1/5
f 360/1/5 356/1/5 355/1/5
f 360/1/5 357/1/5 356/1/5
f 361/1/5 357/1/5 360/1/5
f 362/1/5 357/1/5 361/1/5
f 363/1/5 360/1/5 359/1/5
f 363/1/5 361/1/5 360/1/5
f 364/1/5 361/1/5 363/1/5
f 368/1/5 366/1/5 365/1/5
f 369/1/5 368/1/5 367/1/5
f 370/1/5 366/1/5 368/1/5
f 370/1/5 368/1/5 369/1/5
f 373/1/5 372/1/5 371/1/5
f 374/1/5 372/1/5 373/1/5
f 375/1/5 372/1/5 374/1/5
f 376/1/5 372/1/5 375/1/5
f 379/1/5 378/1/5 377/1/5
f 380/1/5 378/1/5 379/1/5
f 383/2/5 382/2/5 381/2/5
f 384/2/5 382/2/5 383/2/5
f 385/2/5 383/2/5 381/2/5
f 386/2/5 382/2/5 384/2/5
f 387/2/5 385/2/5 381/2/5
f 387/2/5 386/2/5 385/2/5
f 388/2/5 382/2/5 386/2/5
f 388/2/5 386/2/5 387/2/5
f 393/2/5 390/2/5 389/2/5
f 394/2/5 390/2/5 393/2/5
f 395/2/5 392/2/5 391/2/5
f 396/2/5 392/2/5 395/2/5
f 399/2/5 398/2/5 397/2/5
f 400/2/5 398/2/5 399/2/5
f 403/2/5 402/2/5 401/2/5
f 404/2/5 402/2/5 403/2/5
f 405/2/5 403/2/5 401/2/5
f 406/2/5 402/2/5 404/2/5
f 407/2/5 405/2/5 401/2/5
f 407/2/5 406/2/5 405/2/5
f 408/2/5 402/2/5 406/2/5
f 408/2/5 406/2/5 407/2/5
f 411/2/5 410/2/5 409/2/5
f 412/2/5 410/2/5 411/2/5
f 415/2/5 414/2/5 413/2/5
f 416/2/5 414/2/5 415/2/5
f 419/2/5 418/2/5 417/2/5
f 420/2/5 418/2/5 419/2/5
f 423/2/5 422/2/5 421/2/5
f 424/2/5 422/2/5 423/2/5
f 427/2/5 426/2/5 425/2/5
f 428/2/5 426/2/5 427/2/5
f 431/2/5 430/2/5 429/2/5
f 432/2/5 430/2/5 431/2/5
f 433/1/6 434/1/6 436/1/6
f 436/1/6 434/1/6 437/1/6
f 437/1/6 434/1/6 438/1/6
f 435/1/6 436/1/6 440/1/6
f 436/1/6 437/1/6 440/1/6
f 440/1/6 437/1/6 441/1/6
f 441/1/6 437/1/6 442/1/6
f 439/1/6 440/1/6 443/1/6
f 440/1/6 441/1/6 443/1/6
f 443/1/6 441/1/6 444/1/6
f 445/1/6 446/1/6 447/1/6
f 447/1/6 446/1/6 448/1/6
f 449/1/6 450/1/6 451/1/6
f 449/1/6 451/1/6 453/1/6
f 451/1/6 452/1/6 453/1/6
f 453/1/6 452/1/6 454/1/6
f 455/2/6 456/2/6 459/2/6
f 459/2/6 456/2/6 460/2/6
f 457/2/6 458/2/6 461/2/6
f 461/2/6 458/2/6 462/2/6
f 463/2/6 464/2/6 465/2/6
f 465/2/6 464/2/6 466/2/6
f 467/2/6 468/2/6 469/2/6
f 469/2/6 468/2/6 470/2/6
f 467/2/6 469/2/6 471/2/6
f 470/2/6 468/2/6 472/2/6
f 467/2/6 471/2/6 473/2/6
f 471/2/6 472/2/6 473/2/6
f 472/2/6 468/2/6 474/2/6
f 473/2/6 472/2/6 474/2/6
f 475/2/6 476/2/6 477/2/6
f 477/2/6 476/2/6 478/2/6
f 479/2/6 480/2/6 481/2/6
f 481/2/6 480/2/6 482/2/6
f 483/2/6 484/2/6 485/2/6
f 485/2/6 484/2/6 486/2/6
f 487/2/6 488/2/6 489/2/6
f 489/2/6 488/2/6 490/2/6
f 491/2/6 492/2/6 493/2/6
f 493/2/6 492/2/6 494/2/6
f 495/2/6 496/2/6 497/2/6
f 497/2/6 496/2/6 498/2/6
f 499/2/6 500/2/6 501/2/6
f 501/2/6 500/2/6 502/2/6
f 503/2/6 504/2/6 505/2/6
f 505/2/6 504/2/6 506/2/6
f 503/2/6 505/2/6 507/2/6
f 506/2/6 504/2/6 508/2/6
f 508/2/6 504/2/6 509/2/6
f 507/2/6 508/2/6 509/2/6
f 509/2/6 504/2/6 510/2/6
f 507/2/6 509/2/6 511/2/6
f 510/2/6 504/2/6 512/2/6
f 503/2/6 507/2/6 513/2/6
f 511/2/6 512/2/6 513/2/6
f 507/2/6 511/2/6 513/2/6
f 512/2/6 504/2/6 514/2/6
f 513/2/6 512/2/6 514/2/6
f 515/2/6 516/2/6 517/2/6
f 517/2/6 516/2/6 518/2/6
f 519/2/6 520/2/6 521/2/6
f 521/2/6 520/2/6 522/2/6
