# MagicaVoxel @ Ephtracy

# group
g Red_Flower_Grass

# material
mtllib Red_Flower_Grass.mtl
usemtl palette

# normals
vn -1 0 0
vn 1 0 0
vn 0 0 1
vn 0 0 -1
vn 0 -1 0
vn 0 1 0

# texcoords
vt 0.146484 0.5
vt 0.271484 0.5
vt 0.279297 0.5
vt 0.310547 0.5
vt 0.431641 0.5
vt 0.466797 0.5
vt 0.498047 0.5
vt 0.556641 0.5
vt 0.591797 0.5

# verts
v -25 0 27
v -25 0 7
v -25 3 27
v -25 3 7
v -25 6 27
v -25 6 7
v -25 10 27
v -25 10 7
v -25 11 27
v -25 11 7
v -23 13 23
v -23 13 22
v -23 14 23
v -23 14 22
v -22 11 23
v -22 11 22
v -22 13 24
v -22 13 23
v -22 13 22
v -22 13 21
v -22 13 13
v -22 13 12
v -22 14 24
v -22 14 23
v -22 14 22
v -22 14 21
v -22 14 13
v -22 14 12
v -21 11 13
v -21 11 12
v -21 13 14
v -21 13 13
v -21 13 12
v -21 13 11
v -21 14 14
v -21 14 13
v -21 14 12
v -21 14 11
v -18 13 21
v -18 13 20
v -18 14 21
v -18 14 20
v -17 11 21
v -17 11 20
v -17 13 22
v -17 13 21
v -17 13 20
v -17 13 19
v -17 13 10
v -17 13 9
v -17 14 22
v -17 14 21
v -17 14 20
v -17 14 19
v -17 14 10
v -17 14 9
v -16 11 10
v -16 11 9
v -16 13 15
v -16 13 14
v -16 13 11
v -16 13 10
v -16 13 9
v -16 13 8
v -16 14 15
v -16 14 14
v -16 14 11
v -16 14 10
v -16 14 9
v -16 14 8
v -15 11 15
v -15 11 14
v -15 13 16
v -15 13 15
v -15 13 14
v -15 13 13
v -15 14 16
v -15 14 15
v -15 14 14
v -15 14 13
v -11 13 23
v -11 13 22
v -11 13 12
v -11 13 11
v -11 14 23
v -11 14 22
v -11 14 12
v -11 14 11
v -10 11 23
v -10 11 22
v -10 11 12
v -10 11 11
v -10 13 24
v -10 13 23
v -10 13 22
v -10 13 21
v -10 13 13
v -10 13 12
v -10 13 11
v -10 13 10
v -10 14 24
v -10 14 23
v -10 14 22
v -10 14 21
v -10 14 13
v -10 14 12
v -10 14 11
v -10 14 10
v -21 11 23
v -21 11 22
v -21 13 24
v -21 13 23
v -21 13 22
v -21 13 21
v -21 14 24
v -21 14 23
v -21 14 22
v -21 14 21
v -20 11 13
v -20 11 12
v -20 13 23
v -20 13 22
v -20 13 14
v -20 13 13
v -20 13 12
v -20 13 11
v -20 14 23
v -20 14 22
v -20 14 14
v -20 14 13
v -20 14 12
v -20 14 11
v -19 13 13
v -19 13 12
v -19 14 13
v -19 14 12
v -16 11 21
v -16 11 20
v -16 13 22
v -16 13 21
v -16 13 20
v -16 13 19
v -16 14 22
v -16 14 21
v -16 14 20
v -16 14 19
v -15 11 10
v -15 11 9
v -15 13 21
v -15 13 20
v -15 13 11
v -15 13 10
v -15 13 9
v -15 13 8
v -15 14 21
v -15 14 20
v -15 14 11
v -15 14 10
v -15 14 9
v -15 14 8
v -14 11 15
v -14 11 14
v -14 13 16
v -14 13 15
v -14 13 14
v -14 13 13
v -14 13 10
v -14 13 9
v -14 14 16
v -14 14 15
v -14 14 14
v -14 14 13
v -14 14 10
v -14 14 9
v -13 13 15
v -13 13 14
v -13 14 15
v -13 14 14
v -9 11 23
v -9 11 22
v -9 11 12
v -9 11 11
v -9 13 24
v -9 13 23
v -9 13 22
v -9 13 21
v -9 13 13
v -9 13 12
v -9 13 11
v -9 13 10
v -9 14 24
v -9 14 23
v -9 14 22
v -9 14 21
v -9 14 13
v -9 14 12
v -9 14 11
v -9 14 10
v -8 13 23
v -8 13 22
v -8 13 12
v -8 13 11
v -8 14 23
v -8 14 22
v -8 14 12
v -8 14 11
v -5 0 27
v -5 0 7
v -5 3 27
v -5 3 7
v -5 6 27
v -5 6 7
v -5 10 27
v -5 10 7
v -5 11 27
v -5 11 7
v -25 0 27
v -25 3 27
v -25 6 27
v -25 10 27
v -25 11 27
v -5 0 27
v -5 3 27
v -5 6 27
v -5 10 27
v -5 11 27
v -22 13 24
v -22 14 24
v -21 13 24
v -21 14 24
v -10 13 24
v -10 14 24
v -9 13 24
v -9 14 24
v -23 13 23
v -23 14 23
v -22 11 23
v -22 13 23
v -22 14 23
v -21 11 23
v -21 13 23
v -21 14 23
v -20 13 23
v -20 14 23
v -11 13 23
v -11 14 23
v -10 11 23
v -10 13 23
v -10 14 23
v -9 11 23
v -9 13 23
v -9 14 23
v -8 13 23
v -8 14 23
v -17 13 22
v -17 14 22
v -16 13 22
v -16 14 22
v -18 13 21
v -18 14 21
v -17 11 21
v -17 13 21
v -17 14 21
v -16 11 21
v -16 13 21
v -16 14 21
v -15 13 21
v -15 14 21
v -15 13 16
v -15 14 16
v -14 13 16
v -14 14 16
v -16 13 15
v -16 14 15
v -15 11 15
v -15 13 15
v -15 14 15
v -14 11 15
v -14 13 15
v -14 14 15
v -13 13 15
v -13 14 15
v -21 13 14
v -21 14 14
v -20 13 14
v -20 14 14
v -22 13 13
v -22 14 13
v -21 11 13
v -21 13 13
v -21 14 13
v -20 11 13
v -20 13 13
v -20 14 13
v -19 13 13
v -19 14 13
v -10 13 13
v -10 14 13
v -9 13 13
v -9 14 13
v -11 13 12
v -11 14 12
v -10 11 12
v -10 13 12
v -10 14 12
v -9 11 12
v -9 13 12
v -9 14 12
v -8 13 12
v -8 14 12
v -16 13 11
v -16 14 11
v -15 13 11
v -15 14 11
v -17 13 10
v -17 14 10
v -16 11 10
v -16 13 10
v -16 14 10
v -15 11 10
v -15 13 10
v -15 14 10
v -14 13 10
v -14 14 10
v -23 13 22
v -23 14 22
v -22 11 22
v -22 13 22
v -22 14 22
v -21 11 22
v -21 13 22
v -21 14 22
v -20 13 22
v -20 14 22
v -11 13 22
v -11 14 22
v -10 11 22
v -10 13 22
v -10 14 22
v -9 11 22
v -9 13 22
v -9 14 22
v -8 13 22
v -8 14 22
v -22 13 21
v -22 14 21
v -21 13 21
v -21 14 21
v -10 13 21
v -10 14 21
v -9 13 21
v -9 14 21
v -18 13 20
v -18 14 20
v -17 11 20
v -17 13 20
v -17 14 20
v -16 11 20
v -16 13 20
v -16 14 20
v -15 13 20
v -15 14 20
v -17 13 19
v -17 14 19
v -16 13 19
v -16 14 19
v -16 13 14
v -16 14 14
v -15 11 14
v -15 13 14
v -15 14 14
v -14 11 14
v -14 13 14
v -14 14 14
v -13 13 14
v -13 14 14
v -15 13 13
v -15 14 13
v -14 13 13
v -14 14 13
v -22 13 12
v -22 14 12
v -21 11 12
v -21 13 12
v -21 14 12
v -20 11 12
v -20 13 12
v -20 14 12
v -19 13 12
v -19 14 12
v -21 13 11
v -21 14 11
v -20 13 11
v -20 14 11
v -11 13 11
v -11 14 11
v -10 11 11
v -10 13 11
v -10 14 11
v -9 11 11
v -9 13 11
v -9 14 11
v -8 13 11
v -8 14 11
v -10 13 10
v -10 14 10
v -9 13 10
v -9 14 10
v -17 13 9
v -17 14 9
v -16 11 9
v -16 13 9
v -16 14 9
v -15 11 9
v -15 13 9
v -15 14 9
v -14 13 9
v -14 14 9
v -16 13 8
v -16 14 8
v -15 13 8
v -15 14 8
v -25 0 7
v -25 3 7
v -25 6 7
v -25 10 7
v -25 11 7
v -5 0 7
v -5 3 7
v -5 6 7
v -5 10 7
v -5 11 7
v -25 0 27
v -5 0 27
v -25 0 7
v -5 0 7
v -22 13 24
v -21 13 24
v -10 13 24
v -9 13 24
v -23 13 23
v -22 13 23
v -21 13 23
v -20 13 23
v -11 13 23
v -10 13 23
v -9 13 23
v -8 13 23
v -23 13 22
v -22 13 22
v -21 13 22
v -20 13 22
v -17 13 22
v -16 13 22
v -11 13 22
v -10 13 22
v -9 13 22
v -8 13 22
v -22 13 21
v -21 13 21
v -18 13 21
v -17 13 21
v -16 13 21
v -15 13 21
v -10 13 21
v -9 13 21
v -18 13 20
v -17 13 20
v -16 13 20
v -15 13 20
v -17 13 19
v -16 13 19
v -15 13 16
v -14 13 16
v -16 13 15
v -15 13 15
v -14 13 15
v -13 13 15
v -21 13 14
v -20 13 14
v -16 13 14
v -15 13 14
v -14 13 14
v -13 13 14
v -22 13 13
v -21 13 13
v -20 13 13
v -19 13 13
v -15 13 13
v -14 13 13
v -10 13 13
v -9 13 13
v -22 13 12
v -21 13 12
v -20 13 12
v -19 13 12
v -11 13 12
v -10 13 12
v -9 13 12
v -8 13 12
v -21 13 11
v -20 13 11
v -16 13 11
v -15 13 11
v -11 13 11
v -10 13 11
v -9 13 11
v -8 13 11
v -17 13 10
v -16 13 10
v -15 13 10
v -14 13 10
v -10 13 10
v -9 13 10
v -17 13 9
v -16 13 9
v -15 13 9
v -14 13 9
v -16 13 8
v -15 13 8
v -25 11 27
v -5 11 27
v -24 11 25
v -23 11 25
v -17 11 25
v -16 11 25
v -24 11 24
v -23 11 24
v -17 11 24
v -16 11 24
v -22 11 23
v -21 11 23
v -10 11 23
v -9 11 23
v -22 11 22
v -21 11 22
v -10 11 22
v -9 11 22
v -17 11 21
v -16 11 21
v -17 11 20
v -16 11 20
v -23 11 19
v -22 11 19
v -9 11 19
v -8 11 19
v -23 11 18
v -22 11 18
v -9 11 18
v -8 11 18
v -15 11 17
v -14 11 17
v -15 11 16
v -14 11 16
v -15 11 15
v -14 11 15
v -15 11 14
v -14 11 14
v -21 11 13
v -20 11 13
v -21 11 12
v -20 11 12
v -10 11 12
v -9 11 12
v -21 11 11
v -20 11 11
v -10 11 11
v -9 11 11
v -21 11 10
v -20 11 10
v -16 11 10
v -15 11 10
v -8 11 10
v -7 11 10
v -16 11 9
v -15 11 9
v -8 11 9
v -7 11 9
v -25 11 7
v -5 11 7
v -22 14 24
v -21 14 24
v -10 14 24
v -9 14 24
v -23 14 23
v -22 14 23
v -21 14 23
v -20 14 23
v -11 14 23
v -10 14 23
v -9 14 23
v -8 14 23
v -23 14 22
v -22 14 22
v -21 14 22
v -20 14 22
v -17 14 22
v -16 14 22
v -11 14 22
v -10 14 22
v -9 14 22
v -8 14 22
v -22 14 21
v -21 14 21
v -18 14 21
v -17 14 21
v -16 14 21
v -15 14 21
v -10 14 21
v -9 14 21
v -18 14 20
v -17 14 20
v -16 14 20
v -15 14 20
v -17 14 19
v -16 14 19
v -15 14 16
v -14 14 16
v -16 14 15
v -15 14 15
v -14 14 15
v -13 14 15
v -21 14 14
v -20 14 14
v -16 14 14
v -15 14 14
v -14 14 14
v -13 14 14
v -22 14 13
v -21 14 13
v -20 14 13
v -19 14 13
v -15 14 13
v -14 14 13
v -10 14 13
v -9 14 13
v -22 14 12
v -21 14 12
v -20 14 12
v -19 14 12
v -11 14 12
v -10 14 12
v -9 14 12
v -8 14 12
v -21 14 11
v -20 14 11
v -16 14 11
v -15 14 11
v -11 14 11
v -10 14 11
v -9 14 11
v -8 14 11
v -17 14 10
v -16 14 10
v -15 14 10
v -14 14 10
v -10 14 10
v -9 14 10
v -17 14 9
v -16 14 9
v -15 14 9
v -14 14 9
v -16 14 8
v -15 14 8

# faces
f 3/4/1 2/4/1 1/4/1
f 4/4/1 2/4/1 3/4/1
f 5/3/1 4/3/1 3/3/1
f 6/3/1 4/3/1 5/3/1
f 7/2/1 6/2/1 5/2/1
f 8/2/1 6/2/1 7/2/1
f 9/8/1 8/8/1 7/8/1
f 10/8/1 8/8/1 9/8/1
f 13/1/1 12/1/1 11/1/1
f 14/1/1 12/1/1 13/1/1
f 18/9/1 16/9/1 15/9/1
f 19/9/1 16/9/1 18/9/1
f 23/1/1 18/1/1 17/1/1
f 24/1/1 18/1/1 23/1/1
f 25/1/1 20/1/1 19/1/1
f 26/1/1 20/1/1 25/1/1
f 27/1/1 22/1/1 21/1/1
f 28/1/1 22/1/1 27/1/1
f 32/9/1 30/9/1 29/9/1
f 33/9/1 30/9/1 32/9/1
f 35/1/1 32/1/1 31/1/1
f 36/1/1 32/1/1 35/1/1
f 37/1/1 34/1/1 33/1/1
f 38/1/1 34/1/1 37/1/1
f 41/1/1 40/1/1 39/1/1
f 42/1/1 40/1/1 41/1/1
f 46/9/1 44/9/1 43/9/1
f 47/9/1 44/9/1 46/9/1
f 51/1/1 46/1/1 45/1/1
f 52/1/1 46/1/1 51/1/1
f 53/1/1 48/1/1 47/1/1
f 54/1/1 48/1/1 53/1/1
f 55/1/1 50/1/1 49/1/1
f 56/1/1 50/1/1 55/1/1
f 62/9/1 58/9/1 57/9/1
f 63/9/1 58/9/1 62/9/1
f 65/1/1 60/1/1 59/1/1
f 66/1/1 60/1/1 65/1/1
f 67/1/1 62/1/1 61/1/1
f 68/1/1 62/1/1 67/1/1
f 69/1/1 64/1/1 63/1/1
f 70/1/1 64/1/1 69/1/1
f 74/9/1 72/9/1 71/9/1
f 75/9/1 72/9/1 74/9/1
f 77/1/1 74/1/1 73/1/1
f 78/1/1 74/1/1 77/1/1
f 79/1/1 76/1/1 75/1/1
f 80/1/1 76/1/1 79/1/1
f 85/1/1 82/1/1 81/1/1
f 86/1/1 82/1/1 85/1/1
f 87/1/1 84/1/1 83/1/1
f 88/1/1 84/1/1 87/1/1
f 94/9/1 90/9/1 89/9/1
f 95/9/1 90/9/1 94/9/1
f 98/9/1 92/9/1 91/9/1
f 99/9/1 92/9/1 98/9/1
f 101/1/1 94/1/1 93/1/1
f 102/1/1 94/1/1 101/1/1
f 103/1/1 96/1/1 95/1/1
f 104/1/1 96/1/1 103/1/1
f 105/1/1 98/1/1 97/1/1
f 106/1/1 98/1/1 105/1/1
f 107/1/1 100/1/1 99/1/1
f 108/1/1 100/1/1 107/1/1
f 109/9/2 110/9/2 112/9/2
f 112/9/2 110/9/2 113/9/2
f 111/1/2 112/1/2 115/1/2
f 115/1/2 112/1/2 116/1/2
f 113/1/2 114/1/2 117/1/2
f 117/1/2 114/1/2 118/1/2
f 119/9/2 120/9/2 124/9/2
f 124/9/2 120/9/2 125/9/2
f 121/1/2 122/1/2 127/1/2
f 127/1/2 122/1/2 128/1/2
f 123/1/2 124/1/2 129/1/2
f 129/1/2 124/1/2 130/1/2
f 125/1/2 126/1/2 131/1/2
f 131/1/2 126/1/2 132/1/2
f 133/1/2 134/1/2 135/1/2
f 135/1/2 134/1/2 136/1/2
f 137/9/2 138/9/2 140/9/2
f 140/9/2 138/9/2 141/9/2
f 139/1/2 140/1/2 143/1/2
f 143/1/2 140/1/2 144/1/2
f 141/1/2 142/1/2 145/1/2
f 145/1/2 142/1/2 146/1/2
f 147/9/2 148/9/2 152/9/2
f 152/9/2 148/9/2 153/9/2
f 149/1/2 150/1/2 155/1/2
f 155/1/2 150/1/2 156/1/2
f 151/1/2 152/1/2 157/1/2
f 157/1/2 152/1/2 158/1/2
f 153/1/2 154/1/2 159/1/2
f 159/1/2 154/1/2 160/1/2
f 161/9/2 162/9/2 164/9/2
f 164/9/2 162/9/2 165/9/2
f 163/1/2 164/1/2 169/1/2
f 169/1/2 164/1/2 170/1/2
f 165/1/2 166/1/2 171/1/2
f 171/1/2 166/1/2 172/1/2
f 167/1/2 168/1/2 173/1/2
f 173/1/2 168/1/2 174/1/2
f 175/1/2 176/1/2 177/1/2
f 177/1/2 176/1/2 178/1/2
f 179/9/2 180/9/2 184/9/2
f 184/9/2 180/9/2 185/9/2
f 181/9/2 182/9/2 188/9/2
f 188/9/2 182/9/2 189/9/2
f 183/1/2 184/1/2 191/1/2
f 191/1/2 184/1/2 192/1/2
f 185/1/2 186/1/2 193/1/2
f 193/1/2 186/1/2 194/1/2
f 187/1/2 188/1/2 195/1/2
f 195/1/2 188/1/2 196/1/2
f 189/1/2 190/1/2 197/1/2
f 197/1/2 190/1/2 198/1/2
f 199/1/2 200/1/2 203/1/2
f 203/1/2 200/1/2 204/1/2
f 201/1/2 202/1/2 205/1/2
f 205/1/2 202/1/2 206/1/2
f 207/4/2 208/4/2 209/4/2
f 209/4/2 208/4/2 210/4/2
f 209/3/2 210/3/2 211/3/2
f 211/3/2 210/3/2 212/3/2
f 211/2/2 212/2/2 213/2/2
f 213/2/2 212/2/2 214/2/2
f 213/8/2 214/8/2 215/8/2
f 215/8/2 214/8/2 216/8/2
f 222/4/3 218/4/3 217/4/3
f 223/3/3 219/3/3 218/3/3
f 223/4/3 218/4/3 222/4/3
f 224/2/3 220/2/3 219/2/3
f 224/3/3 219/3/3 223/3/3
f 225/8/3 221/8/3 220/8/3
f 225/2/3 220/2/3 224/2/3
f 226/8/3 221/8/3 225/8/3
f 229/1/3 228/1/3 227/1/3
f 230/1/3 228/1/3 229/1/3
f 233/1/3 232/1/3 231/1/3
f 234/1/3 232/1/3 233/1/3
f 238/1/3 236/1/3 235/1/3
f 239/1/3 236/1/3 238/1/3
f 240/9/3 238/9/3 237/9/3
f 241/9/3 238/9/3 240/9/3
f 243/1/3 242/1/3 241/1/3
f 244/1/3 242/1/3 243/1/3
f 248/1/3 246/1/3 245/1/3
f 249/1/3 246/1/3 248/1/3
f 250/9/3 248/9/3 247/9/3
f 251/9/3 248/9/3 250/9/3
f 253/1/3 252/1/3 251/1/3
f 254/1/3 252/1/3 253/1/3
f 257/1/3 256/1/3 255/1/3
f 258/1/3 256/1/3 257/1/3
f 262/1/3 260/1/3 259/1/3
f 263/1/3 260/1/3 262/1/3
f 264/9/3 262/9/3 261/9/3
f 265/9/3 262/9/3 264/9/3
f 267/1/3 266/1/3 265/1/3
f 268/1/3 266/1/3 267/1/3
f 271/1/3 270/1/3 269/1/3
f 272/1/3 270/1/3 271/1/3
f 276/1/3 274/1/3 273/1/3
f 277/1/3 274/1/3 276/1/3
f 278/9/3 276/9/3 275/9/3
f 279/9/3 276/9/3 278/9/3
f 281/1/3 280/1/3 279/1/3
f 282/1/3 280/1/3 281/1/3
f 285/1/3 284/1/3 283/1/3
f 286/1/3 284/1/3 285/1/3
f 290/1/3 288/1/3 287/1/3
f 291/1/3 288/1/3 290/1/3
f 292/9/3 290/9/3 289/9/3
f 293/9/3 290/9/3 292/9/3
f 295/1/3 294/1/3 293/1/3
f 296/1/3 294/1/3 295/1/3
f 299/1/3 298/1/3 297/1/3
f 300/1/3 298/1/3 299/1/3
f 304/1/3 302/1/3 301/1/3
f 305/1/3 302/1/3 304/1/3
f 306/9/3 304/9/3 303/9/3
f 307/9/3 304/9/3 306/9/3
f 309/1/3 308/1/3 307/1/3
f 310/1/3 308/1/3 309/1/3
f 313/1/3 312/1/3 311/1/3
f 314/1/3 312/1/3 313/1/3
f 318/1/3 316/1/3 315/1/3
f 319/1/3 316/1/3 318/1/3
f 320/9/3 318/9/3 317/9/3
f 321/9/3 318/9/3 320/9/3
f 323/1/3 322/1/3 321/1/3
f 324/1/3 322/1/3 323/1/3
f 325/1/4 326/1/4 328/1/4
f 328/1/4 326/1/4 329/1/4
f 327/9/4 328/9/4 330/9/4
f 330/9/4 328/9/4 331/9/4
f 331/1/4 332/1/4 333/1/4
f 333/1/4 332/1/4 334/1/4
f 335/1/4 336/1/4 338/1/4
f 338/1/4 336/1/4 339/1/4
f 337/9/4 338/9/4 340/9/4
f 340/9/4 338/9/4 341/9/4
f 341/1/4 342/1/4 343/1/4
f 343/1/4 342/1/4 344/1/4
f 345/1/4 346/1/4 347/1/4
f 347/1/4 346/1/4 348/1/4
f 349/1/4 350/1/4 351/1/4
f 351/1/4 350/1/4 352/1/4
f 353/1/4 354/1/4 356/1/4
f 356/1/4 354/1/4 357/1/4
f 355/9/4 356/9/4 358/9/4
f 358/9/4 356/9/4 359/9/4
f 359/1/4 360/1/4 361/1/4
f 361/1/4 360/1/4 362/1/4
f 363/1/4 364/1/4 365/1/4
f 365/1/4 364/1/4 366/1/4
f 367/1/4 368/1/4 370/1/4
f 370/1/4 368/1/4 371/1/4
f 369/9/4 370/9/4 372/9/4
f 372/9/4 370/9/4 373/9/4
f 373/1/4 374/1/4 375/1/4
f 375/1/4 374/1/4 376/1/4
f 377/1/4 378/1/4 379/1/4
f 379/1/4 378/1/4 380/1/4
f 381/1/4 382/1/4 384/1/4
f 384/1/4 382/1/4 385/1/4
f 383/9/4 384/9/4 386/9/4
f 386/9/4 384/9/4 387/9/4
f 387/1/4 388/1/4 389/1/4
f 389/1/4 388/1/4 390/1/4
f 391/1/4 392/1/4 393/1/4
f 393/1/4 392/1/4 394/1/4
f 395/1/4 396/1/4 398/1/4
f 398/1/4 396/1/4 399/1/4
f 397/9/4 398/9/4 400/9/4
f 400/9/4 398/9/4 401/9/4
f 401/1/4 402/1/4 403/1/4
f 403/1/4 402/1/4 404/1/4
f 405/1/4 406/1/4 407/1/4
f 407/1/4 406/1/4 408/1/4
f 409/1/4 410/1/4 412/1/4
f 412/1/4 410/1/4 413/1/4
f 411/9/4 412/9/4 414/9/4
f 414/9/4 412/9/4 415/9/4
f 415/1/4 416/1/4 417/1/4
f 417/1/4 416/1/4 418/1/4
f 419/1/4 420/1/4 421/1/4
f 421/1/4 420/1/4 422/1/4
f 423/4/4 424/4/4 428/4/4
f 424/3/4 425/3/4 429/3/4
f 428/4/4 424/4/4 429/4/4
f 425/2/4 426/2/4 430/2/4
f 429/3/4 425/3/4 430/3/4
f 426/8/4 427/8/4 431/8/4
f 430/2/4 426/2/4 431/2/4
f 431/8/4 427/8/4 432/8/4
f 435/4/5 434/4/5 433/4/5
f 436/4/5 434/4/5 435/4/5
f 442/1/5 438/1/5 437/1/5
f 443/1/5 438/1/5 442/1/5
f 446/1/5 440/1/5 439/1/5
f 447/1/5 440/1/5 446/1/5
f 449/1/5 442/1/5 441/1/5
f 450/1/5 442/1/5 449/1/5
f 451/1/5 444/1/5 443/1/5
f 452/1/5 444/1/5 451/1/5
f 455/1/5 446/1/5 445/1/5
f 456/1/5 446/1/5 455/1/5
f 457/1/5 448/1/5 447/1/5
f 458/1/5 448/1/5 457/1/5
f 459/1/5 451/1/5 450/1/5
f 460/1/5 451/1/5 459/1/5
f 462/1/5 454/1/5 453/1/5
f 463/1/5 454/1/5 462/1/5
f 465/1/5 457/1/5 456/1/5
f 466/1/5 457/1/5 465/1/5
f 467/1/5 462/1/5 461/1/5
f 468/1/5 462/1/5 467/1/5
f 469/1/5 464/1/5 463/1/5
f 470/1/5 464/1/5 469/1/5
f 471/1/5 469/1/5 468/1/5
f 472/1/5 469/1/5 471/1/5
f 476/1/5 474/1/5 473/1/5
f 477/1/5 474/1/5 476/1/5
f 481/1/5 476/1/5 475/1/5
f 482/1/5 476/1/5 481/1/5
f 483/1/5 478/1/5 477/1/5
f 484/1/5 478/1/5 483/1/5
f 486/1/5 480/1/5 479/1/5
f 487/1/5 480/1/5 486/1/5
f 489/1/5 483/1/5 482/1/5
f 490/1/5 483/1/5 489/1/5
f 493/1/5 486/1/5 485/1/5
f 494/1/5 486/1/5 493/1/5
f 495/1/5 488/1/5 487/1/5
f 496/1/5 488/1/5 495/1/5
f 498/1/5 492/1/5 491/1/5
f 499/1/5 492/1/5 498/1/5
f 501/1/5 495/1/5 494/1/5
f 502/1/5 495/1/5 501/1/5
f 505/1/5 498/1/5 497/1/5
f 506/1/5 498/1/5 505/1/5
f 507/1/5 500/1/5 499/1/5
f 508/1/5 500/1/5 507/1/5
f 510/1/5 504/1/5 503/1/5
f 511/1/5 504/1/5 510/1/5
f 513/1/5 507/1/5 506/1/5
f 514/1/5 507/1/5 513/1/5
f 515/1/5 510/1/5 509/1/5
f 516/1/5 510/1/5 515/1/5
f 517/1/5 512/1/5 511/1/5
f 518/1/5 512/1/5 517/1/5
f 519/1/5 517/1/5 516/1/5
f 520/1/5 517/1/5 519/1/5
f 521/8/6 522/8/6 523/8/6
f 523/8/6 522/8/6 524/8/6
f 524/8/6 522/8/6 525/8/6
f 525/8/6 522/8/6 526/8/6
f 521/8/6 523/8/6 527/8/6
f 523/7/6 524/7/6 527/7/6
f 524/8/6 525/8/6 528/8/6
f 527/7/6 524/7/6 528/7/6
f 525/6/6 526/6/6 529/6/6
f 528/8/6 525/8/6 529/8/6
f 526/8/6 522/8/6 530/8/6
f 529/6/6 526/6/6 530/6/6
f 528/8/6 529/8/6 531/8/6
f 527/8/6 528/8/6 531/8/6
f 529/8/6 530/8/6 531/8/6
f 531/8/6 530/8/6 532/8/6
f 530/8/6 522/8/6 533/8/6
f 532/8/6 530/8/6 533/8/6
f 533/8/6 522/8/6 534/8/6
f 527/8/6 531/8/6 535/8/6
f 532/8/6 533/8/6 536/8/6
f 536/8/6 533/8/6 537/8/6
f 534/8/6 522/8/6 538/8/6
f 536/8/6 537/8/6 539/8/6
f 537/8/6 538/8/6 539/8/6
f 535/8/6 536/8/6 539/8/6
f 539/8/6 538/8/6 540/8/6
f 535/8/6 539/8/6 541/8/6
f 540/8/6 538/8/6 542/8/6
f 527/8/6 535/8/6 543/8/6
f 541/8/6 542/8/6 543/8/6
f 535/8/6 541/8/6 543/8/6
f 543/8/6 542/8/6 544/8/6
f 538/8/6 522/8/6 545/8/6
f 544/8/6 542/8/6 545/8/6
f 542/8/6 538/8/6 545/8/6
f 545/8/6 522/8/6 546/8/6
f 543/6/6 544/6/6 547/6/6
f 527/8/6 543/8/6 547/8/6
f 544/8/6 545/8/6 548/8/6
f 547/6/6 544/6/6 548/6/6
f 545/7/6 546/7/6 549/7/6
f 548/8/6 545/8/6 549/8/6
f 546/8/6 522/8/6 550/8/6
f 549/7/6 546/7/6 550/7/6
f 548/8/6 549/8/6 551/8/6
f 547/8/6 548/8/6 551/8/6
f 549/8/6 550/8/6 551/8/6
f 551/8/6 550/8/6 552/8/6
f 547/8/6 551/8/6 553/8/6
f 551/6/6 552/6/6 553/6/6
f 552/8/6 550/8/6 554/8/6
f 553/6/6 552/6/6 554/6/6
f 547/8/6 553/8/6 555/8/6
f 553/8/6 554/8/6 555/8/6
f 554/8/6 550/8/6 556/8/6
f 555/8/6 554/8/6 556/8/6
f 547/8/6 555/8/6 557/8/6
f 556/8/6 550/8/6 558/8/6
f 547/8/6 557/8/6 559/8/6
f 557/8/6 558/8/6 559/8/6
f 559/8/6 558/8/6 560/8/6
f 547/8/6 559/8/6 561/8/6
f 560/8/6 558/8/6 562/8/6
f 558/8/6 550/8/6 563/8/6
f 562/8/6 558/8/6 563/8/6
f 563/8/6 550/8/6 564/8/6
f 561/8/6 562/8/6 565/8/6
f 547/8/6 561/8/6 565/8/6
f 562/8/6 563/8/6 565/8/6
f 565/8/6 563/8/6 566/8/6
f 566/8/6 563/8/6 567/8/6
f 564/8/6 550/8/6 568/8/6
f 547/8/6 565/8/6 569/8/6
f 565/7/6 566/7/6 569/7/6
f 566/8/6 567/8/6 570/8/6
f 569/7/6 566/7/6 570/7/6
f 567/8/6 568/8/6 570/8/6
f 570/8/6 568/8/6 571/8/6
f 571/8/6 568/8/6 572/8/6
f 550/8/6 522/8/6 573/8/6
f 572/8/6 568/8/6 573/8/6
f 568/8/6 550/8/6 573/8/6
f 573/8/6 522/8/6 574/8/6
f 570/8/6 571/8/6 575/8/6
f 569/8/6 570/8/6 575/8/6
f 572/8/6 573/8/6 576/8/6
f 573/6/6 574/6/6 577/6/6
f 576/8/6 573/8/6 577/8/6
f 574/8/6 522/8/6 578/8/6
f 577/6/6 574/6/6 578/6/6
f 576/8/6 577/8/6 579/8/6
f 521/8/6 527/8/6 579/8/6
f 577/8/6 578/8/6 579/8/6
f 527/8/6 547/8/6 579/8/6
f 569/8/6 575/8/6 579/8/6
f 575/8/6 576/8/6 579/8/6
f 547/8/6 569/8/6 579/8/6
f 578/8/6 522/8/6 580/8/6
f 579/8/6 578/8/6 580/8/6
f 581/1/6 582/1/6 586/1/6
f 586/1/6 582/1/6 587/1/6
f 583/1/6 584/1/6 590/1/6
f 590/1/6 584/1/6 591/1/6
f 585/1/6 586/1/6 593/1/6
f 586/5/6 587/5/6 594/5/6
f 593/1/6 586/1/6 594/1/6
f 587/1/6 588/1/6 595/1/6
f 594/5/6 587/5/6 595/5/6
f 595/1/6 588/1/6 596/1/6
f 589/1/6 590/1/6 599/1/6
f 590/5/6 591/5/6 600/5/6
f 599/1/6 590/1/6 600/1/6
f 591/1/6 592/1/6 601/1/6
f 600/5/6 591/5/6 601/5/6
f 601/1/6 592/1/6 602/1/6
f 594/1/6 595/1/6 603/1/6
f 603/1/6 595/1/6 604/1/6
f 597/1/6 598/1/6 606/1/6
f 606/1/6 598/1/6 607/1/6
f 600/1/6 601/1/6 609/1/6
f 609/1/6 601/1/6 610/1/6
f 605/1/6 606/1/6 611/1/6
f 606/5/6 607/5/6 612/5/6
f 611/1/6 606/1/6 612/1/6
f 607/1/6 608/1/6 613/1/6
f 612/5/6 607/5/6 613/5/6
f 613/1/6 608/1/6 614/1/6
f 612/1/6 613/1/6 615/1/6
f 615/1/6 613/1/6 616/1/6
f 617/1/6 618/1/6 620/1/6
f 620/1/6 618/1/6 621/1/6
f 619/1/6 620/1/6 625/1/6
f 620/5/6 621/5/6 626/5/6
f 625/1/6 620/1/6 626/1/6
f 621/1/6 622/1/6 627/1/6
f 626/5/6 621/5/6 627/5/6
f 627/1/6 622/1/6 628/1/6
f 623/1/6 624/1/6 630/1/6
f 630/1/6 624/1/6 631/1/6
f 626/1/6 627/1/6 633/1/6
f 633/1/6 627/1/6 634/1/6
f 629/1/6 630/1/6 637/1/6
f 630/5/6 631/5/6 638/5/6
f 637/1/6 630/1/6 638/1/6
f 631/1/6 632/1/6 639/1/6
f 638/5/6 631/5/6 639/5/6
f 639/1/6 632/1/6 640/1/6
f 635/1/6 636/1/6 642/1/6
f 642/1/6 636/1/6 643/1/6
f 638/1/6 639/1/6 645/1/6
f 645/1/6 639/1/6 646/1/6
f 641/1/6 642/1/6 649/1/6
f 642/5/6 643/5/6 650/5/6
f 649/1/6 642/1/6 650/1/6
f 643/1/6 644/1/6 651/1/6
f 650/5/6 643/5/6 651/5/6
f 651/1/6 644/1/6 652/1/6
f 647/1/6 648/1/6 654/1/6
f 654/1/6 648/1/6 655/1/6
f 650/1/6 651/1/6 657/1/6
f 657/1/6 651/1/6 658/1/6
f 653/1/6 654/1/6 659/1/6
f 654/5/6 655/5/6 660/5/6
f 659/1/6 654/1/6 660/1/6
f 655/1/6 656/1/6 661/1/6
f 660/5/6 655/5/6 661/5/6
f 661/1/6 656/1/6 662/1/6
f 660/1/6 661/1/6 663/1/6
f 663/1/6 661/1/6 664/1/6
