# MagicaVoxel @ Ephtracy

# group
g Sunflower_Level_1

# material
mtllib Sunflower_Level_1.mtl
usemtl palette

# normals
vn -1 0 0
vn 1 0 0
vn 0 0 1
vn 0 0 -1
vn 0 -1 0
vn 0 1 0

# texcoords
vt 0.271484 0.5
vt 0.279297 0.5
vt 0.310547 0.5
vt 0.556641 0.5

# verts
v 41 0 27
v 41 0 7
v 41 3 27
v 41 3 7
v 41 6 27
v 41 6 7
v 41 11 27
v 41 11 7
v 45 10 27
v 45 10 7
v 45 11 27
v 45 11 7
v 49 10 27
v 49 10 7
v 49 11 27
v 49 11 7
v 53 10 27
v 53 10 7
v 53 11 27
v 53 11 7
v 57 10 27
v 57 10 7
v 57 11 27
v 57 11 7
v 43 10 27
v 43 10 25
v 43 10 24
v 43 10 16
v 43 10 15
v 43 10 7
v 43 11 27
v 43 11 25
v 43 11 24
v 43 11 16
v 43 11 15
v 43 11 7
v 44 10 25
v 44 10 24
v 44 10 16
v 44 10 15
v 44 11 25
v 44 11 24
v 44 11 16
v 44 11 15
v 47 10 27
v 47 10 20
v 47 10 19
v 47 10 11
v 47 10 10
v 47 10 7
v 47 11 27
v 47 11 20
v 47 11 19
v 47 11 11
v 47 11 10
v 47 11 7
v 48 10 20
v 48 10 19
v 48 10 11
v 48 10 10
v 48 11 20
v 48 11 19
v 48 11 11
v 48 11 10
v 51 10 27
v 51 10 25
v 51 10 24
v 51 10 16
v 51 10 15
v 51 10 7
v 51 11 27
v 51 11 25
v 51 11 24
v 51 11 16
v 51 11 15
v 51 11 7
v 52 10 25
v 52 10 24
v 52 10 16
v 52 10 15
v 52 11 25
v 52 11 24
v 52 11 16
v 52 11 15
v 55 10 27
v 55 10 20
v 55 10 19
v 55 10 11
v 55 10 10
v 55 10 7
v 55 11 27
v 55 11 20
v 55 11 19
v 55 11 11
v 55 11 10
v 55 11 7
v 56 10 20
v 56 10 19
v 56 10 11
v 56 10 10
v 56 11 20
v 56 11 19
v 56 11 11
v 56 11 10
v 59 10 27
v 59 10 25
v 59 10 24
v 59 10 16
v 59 10 15
v 59 10 7
v 59 11 27
v 59 11 25
v 59 11 24
v 59 11 16
v 59 11 15
v 59 11 7
v 60 10 25
v 60 10 24
v 60 10 16
v 60 10 15
v 60 11 25
v 60 11 24
v 60 11 16
v 60 11 15
v 61 0 27
v 61 0 7
v 61 3 27
v 61 3 7
v 61 6 27
v 61 6 7
v 61 10 27
v 61 10 7
v 41 0 27
v 41 3 27
v 41 6 27
v 41 11 27
v 43 10 27
v 43 11 27
v 45 10 27
v 45 11 27
v 47 10 27
v 47 11 27
v 49 10 27
v 49 11 27
v 51 10 27
v 51 11 27
v 53 10 27
v 53 11 27
v 55 10 27
v 55 11 27
v 57 10 27
v 57 11 27
v 59 10 27
v 59 11 27
v 61 0 27
v 61 3 27
v 61 6 27
v 61 10 27
v 43 10 25
v 43 11 25
v 44 10 25
v 44 11 25
v 51 10 25
v 51 11 25
v 52 10 25
v 52 11 25
v 59 10 25
v 59 11 25
v 60 10 25
v 60 11 25
v 47 10 20
v 47 11 20
v 48 10 20
v 48 11 20
v 55 10 20
v 55 11 20
v 56 10 20
v 56 11 20
v 43 10 16
v 43 11 16
v 44 10 16
v 44 11 16
v 51 10 16
v 51 11 16
v 52 10 16
v 52 11 16
v 59 10 16
v 59 11 16
v 60 10 16
v 60 11 16
v 47 10 11
v 47 11 11
v 48 10 11
v 48 11 11
v 55 10 11
v 55 11 11
v 56 10 11
v 56 11 11
v 43 10 24
v 43 11 24
v 44 10 24
v 44 11 24
v 51 10 24
v 51 11 24
v 52 10 24
v 52 11 24
v 59 10 24
v 59 11 24
v 60 10 24
v 60 11 24
v 47 10 19
v 47 11 19
v 48 10 19
v 48 11 19
v 55 10 19
v 55 11 19
v 56 10 19
v 56 11 19
v 43 10 15
v 43 11 15
v 44 10 15
v 44 11 15
v 51 10 15
v 51 11 15
v 52 10 15
v 52 11 15
v 59 10 15
v 59 11 15
v 60 10 15
v 60 11 15
v 47 10 10
v 47 11 10
v 48 10 10
v 48 11 10
v 55 10 10
v 55 11 10
v 56 10 10
v 56 11 10
v 41 0 7
v 41 3 7
v 41 6 7
v 41 11 7
v 43 10 7
v 43 11 7
v 45 10 7
v 45 11 7
v 47 10 7
v 47 11 7
v 49 10 7
v 49 11 7
v 51 10 7
v 51 11 7
v 53 10 7
v 53 11 7
v 55 10 7
v 55 11 7
v 57 10 7
v 57 11 7
v 59 10 7
v 59 11 7
v 61 0 7
v 61 3 7
v 61 6 7
v 61 10 7
v 41 0 27
v 61 0 27
v 41 0 7
v 61 0 7
v 43 10 27
v 45 10 27
v 47 10 27
v 49 10 27
v 51 10 27
v 53 10 27
v 55 10 27
v 57 10 27
v 59 10 27
v 61 10 27
v 43 10 25
v 44 10 25
v 51 10 25
v 52 10 25
v 59 10 25
v 60 10 25
v 43 10 24
v 44 10 24
v 51 10 24
v 52 10 24
v 59 10 24
v 60 10 24
v 47 10 20
v 48 10 20
v 55 10 20
v 56 10 20
v 47 10 19
v 48 10 19
v 55 10 19
v 56 10 19
v 43 10 16
v 44 10 16
v 51 10 16
v 52 10 16
v 59 10 16
v 60 10 16
v 43 10 15
v 44 10 15
v 51 10 15
v 52 10 15
v 59 10 15
v 60 10 15
v 47 10 11
v 48 10 11
v 55 10 11
v 56 10 11
v 47 10 10
v 48 10 10
v 55 10 10
v 56 10 10
v 43 10 7
v 45 10 7
v 47 10 7
v 49 10 7
v 51 10 7
v 53 10 7
v 55 10 7
v 57 10 7
v 59 10 7
v 61 10 7
v 41 11 27
v 43 11 27
v 45 11 27
v 47 11 27
v 49 11 27
v 51 11 27
v 53 11 27
v 55 11 27
v 57 11 27
v 59 11 27
v 43 11 25
v 44 11 25
v 51 11 25
v 52 11 25
v 59 11 25
v 60 11 25
v 43 11 24
v 44 11 24
v 51 11 24
v 52 11 24
v 59 11 24
v 60 11 24
v 47 11 20
v 48 11 20
v 55 11 20
v 56 11 20
v 47 11 19
v 48 11 19
v 55 11 19
v 56 11 19
v 43 11 16
v 44 11 16
v 51 11 16
v 52 11 16
v 59 11 16
v 60 11 16
v 43 11 15
v 44 11 15
v 51 11 15
v 52 11 15
v 59 11 15
v 60 11 15
v 47 11 11
v 48 11 11
v 55 11 11
v 56 11 11
v 47 11 10
v 48 11 10
v 55 11 10
v 56 11 10
v 41 11 7
v 43 11 7
v 45 11 7
v 47 11 7
v 49 11 7
v 51 11 7
v 53 11 7
v 55 11 7
v 57 11 7
v 59 11 7

# faces
f 3/3/1 2/3/1 1/3/1
f 4/3/1 2/3/1 3/3/1
f 5/2/1 4/2/1 3/2/1
f 6/2/1 4/2/1 5/2/1
f 7/1/1 6/1/1 5/1/1
f 8/1/1 6/1/1 7/1/1
f 11/1/1 10/1/1 9/1/1
f 12/1/1 10/1/1 11/1/1
f 15/1/1 14/1/1 13/1/1
f 16/1/1 14/1/1 15/1/1
f 19/1/1 18/1/1 17/1/1
f 20/1/1 18/1/1 19/1/1
f 23/1/1 22/1/1 21/1/1
f 24/1/1 22/1/1 23/1/1
f 25/1/2 26/1/2 31/1/2
f 31/1/2 26/1/2 32/1/2
f 27/1/2 28/1/2 33/1/2
f 33/1/2 28/1/2 34/1/2
f 29/1/2 30/1/2 35/1/2
f 35/1/2 30/1/2 36/1/2
f 37/4/2 38/4/2 41/4/2
f 41/4/2 38/4/2 42/4/2
f 39/4/2 40/4/2 43/4/2
f 43/4/2 40/4/2 44/4/2
f 45/1/2 46/1/2 51/1/2
f 51/1/2 46/1/2 52/1/2
f 47/1/2 48/1/2 53/1/2
f 53/1/2 48/1/2 54/1/2
f 49/1/2 50/1/2 55/1/2
f 55/1/2 50/1/2 56/1/2
f 57/4/2 58/4/2 61/4/2
f 61/4/2 58/4/2 62/4/2
f 59/4/2 60/4/2 63/4/2
f 63/4/2 60/4/2 64/4/2
f 65/1/2 66/1/2 71/1/2
f 71/1/2 66/1/2 72/1/2
f 67/1/2 68/1/2 73/1/2
f 73/1/2 68/1/2 74/1/2
f 69/1/2 70/1/2 75/1/2
f 75/1/2 70/1/2 76/1/2
f 77/4/2 78/4/2 81/4/2
f 81/4/2 78/4/2 82/4/2
f 79/4/2 80/4/2 83/4/2
f 83/4/2 80/4/2 84/4/2
f 85/1/2 86/1/2 91/1/2
f 91/1/2 86/1/2 92/1/2
f 87/1/2 88/1/2 93/1/2
f 93/1/2 88/1/2 94/1/2
f 89/1/2 90/1/2 95/1/2
f 95/1/2 90/1/2 96/1/2
f 97/4/2 98/4/2 101/4/2
f 101/4/2 98/4/2 102/4/2
f 99/4/2 100/4/2 103/4/2
f 103/4/2 100/4/2 104/4/2
f 105/1/2 106/1/2 111/1/2
f 111/1/2 106/1/2 112/1/2
f 107/1/2 108/1/2 113/1/2
f 113/1/2 108/1/2 114/1/2
f 109/1/2 110/1/2 115/1/2
f 115/1/2 110/1/2 116/1/2
f 117/4/2 118/4/2 121/4/2
f 121/4/2 118/4/2 122/4/2
f 119/4/2 120/4/2 123/4/2
f 123/4/2 120/4/2 124/4/2
f 125/3/2 126/3/2 127/3/2
f 127/3/2 126/3/2 128/3/2
f 127/2/2 128/2/2 129/2/2
f 129/2/2 128/2/2 130/2/2
f 129/1/2 130/1/2 131/1/2
f 131/1/2 130/1/2 132/1/2
f 137/1/3 136/1/3 135/1/3
f 138/1/3 136/1/3 137/1/3
f 139/1/3 137/1/3 135/1/3
f 141/1/3 139/1/3 135/1/3
f 141/1/3 140/1/3 139/1/3
f 142/1/3 140/1/3 141/1/3
f 143/1/3 141/1/3 135/1/3
f 145/1/3 143/1/3 135/1/3
f 145/1/3 144/1/3 143/1/3
f 146/1/3 144/1/3 145/1/3
f 147/1/3 145/1/3 135/1/3
f 149/1/3 147/1/3 135/1/3
f 149/1/3 148/1/3 147/1/3
f 150/1/3 148/1/3 149/1/3
f 151/1/3 149/1/3 135/1/3
f 153/1/3 151/1/3 135/1/3
f 153/1/3 152/1/3 151/1/3
f 154/1/3 152/1/3 153/1/3
f 155/3/3 134/3/3 133/3/3
f 156/2/3 135/2/3 134/2/3
f 156/3/3 134/3/3 155/3/3
f 157/1/3 153/1/3 135/1/3
f 157/2/3 135/2/3 156/2/3
f 158/1/3 153/1/3 157/1/3
f 161/4/3 160/4/3 159/4/3
f 162/4/3 160/4/3 161/4/3
f 165/4/3 164/4/3 163/4/3
f 166/4/3 164/4/3 165/4/3
f 169/4/3 168/4/3 167/4/3
f 170/4/3 168/4/3 169/4/3
f 173/4/3 172/4/3 171/4/3
f 174/4/3 172/4/3 173/4/3
f 177/4/3 176/4/3 175/4/3
f 178/4/3 176/4/3 177/4/3
f 181/4/3 180/4/3 179/4/3
f 182/4/3 180/4/3 181/4/3
f 185/4/3 184/4/3 183/4/3
f 186/4/3 184/4/3 185/4/3
f 189/4/3 188/4/3 187/4/3
f 190/4/3 188/4/3 189/4/3
f 193/4/3 192/4/3 191/4/3
f 194/4/3 192/4/3 193/4/3
f 197/4/3 196/4/3 195/4/3
f 198/4/3 196/4/3 197/4/3
f 199/4/4 200/4/4 201/4/4
f 201/4/4 200/4/4 202/4/4
f 203/4/4 204/4/4 205/4/4
f 205/4/4 204/4/4 206/4/4
f 207/4/4 208/4/4 209/4/4
f 209/4/4 208/4/4 210/4/4
f 211/4/4 212/4/4 213/4/4
f 213/4/4 212/4/4 214/4/4
f 215/4/4 216/4/4 217/4/4
f 217/4/4 216/4/4 218/4/4
f 219/4/4 220/4/4 221/4/4
f 221/4/4 220/4/4 222/4/4
f 223/4/4 224/4/4 225/4/4
f 225/4/4 224/4/4 226/4/4
f 227/4/4 228/4/4 229/4/4
f 229/4/4 228/4/4 230/4/4
f 231/4/4 232/4/4 233/4/4
f 233/4/4 232/4/4 234/4/4
f 235/4/4 236/4/4 237/4/4
f 237/4/4 236/4/4 238/4/4
f 241/1/4 242/1/4 243/1/4
f 243/1/4 242/1/4 244/1/4
f 241/1/4 243/1/4 245/1/4
f 241/1/4 245/1/4 247/1/4
f 245/1/4 246/1/4 247/1/4
f 247/1/4 246/1/4 248/1/4
f 241/1/4 247/1/4 249/1/4
f 241/1/4 249/1/4 251/1/4
f 249/1/4 250/1/4 251/1/4
f 251/1/4 250/1/4 252/1/4
f 241/1/4 251/1/4 253/1/4
f 241/1/4 253/1/4 255/1/4
f 253/1/4 254/1/4 255/1/4
f 255/1/4 254/1/4 256/1/4
f 241/1/4 255/1/4 257/1/4
f 241/1/4 257/1/4 259/1/4
f 257/1/4 258/1/4 259/1/4
f 259/1/4 258/1/4 260/1/4
f 239/3/4 240/3/4 261/3/4
f 240/2/4 241/2/4 262/2/4
f 261/3/4 240/3/4 262/3/4
f 241/1/4 259/1/4 263/1/4
f 262/2/4 241/2/4 263/2/4
f 263/1/4 259/1/4 264/1/4
f 267/3/5 266/3/5 265/3/5
f 268/3/5 266/3/5 267/3/5
f 269/1/6 270/1/6 279/1/6
f 279/1/6 270/1/6 280/1/6
f 273/1/6 274/1/6 281/1/6
f 281/1/6 274/1/6 282/1/6
f 277/1/6 278/1/6 283/1/6
f 283/1/6 278/1/6 284/1/6
f 280/1/6 270/1/6 286/1/6
f 282/1/6 274/1/6 288/1/6
f 284/1/6 278/1/6 290/1/6
f 271/1/6 272/1/6 291/1/6
f 291/1/6 272/1/6 292/1/6
f 275/1/6 276/1/6 293/1/6
f 293/1/6 276/1/6 294/1/6
f 292/1/6 272/1/6 296/1/6
f 294/1/6 276/1/6 298/1/6
f 285/1/6 286/1/6 299/1/6
f 286/1/6 270/1/6 300/1/6
f 299/1/6 286/1/6 300/1/6
f 287/1/6 288/1/6 301/1/6
f 288/1/6 274/1/6 302/1/6
f 301/1/6 288/1/6 302/1/6
f 289/1/6 290/1/6 303/1/6
f 290/1/6 278/1/6 304/1/6
f 303/1/6 290/1/6 304/1/6
f 300/1/6 270/1/6 306/1/6
f 302/1/6 274/1/6 308/1/6
f 304/1/6 278/1/6 310/1/6
f 295/1/6 296/1/6 311/1/6
f 296/1/6 272/1/6 312/1/6
f 311/1/6 296/1/6 312/1/6
f 297/1/6 298/1/6 313/1/6
f 298/1/6 276/1/6 314/1/6
f 313/1/6 298/1/6 314/1/6
f 312/1/6 272/1/6 316/1/6
f 314/1/6 276/1/6 318/1/6
f 305/1/6 306/1/6 319/1/6
f 306/1/6 270/1/6 320/1/6
f 319/1/6 306/1/6 320/1/6
f 315/1/6 316/1/6 321/1/6
f 316/1/6 272/1/6 322/1/6
f 321/1/6 316/1/6 322/1/6
f 307/1/6 308/1/6 323/1/6
f 308/1/6 274/1/6 324/1/6
f 323/1/6 308/1/6 324/1/6
f 317/1/6 318/1/6 325/1/6
f 318/1/6 276/1/6 326/1/6
f 325/1/6 318/1/6 326/1/6
f 309/1/6 310/1/6 327/1/6
f 310/1/6 278/1/6 328/1/6
f 327/1/6 310/1/6 328/1/6
f 329/1/6 330/1/6 339/1/6
f 333/1/6 334/1/6 341/1/6
f 337/1/6 338/1/6 343/1/6
f 339/4/6 340/4/6 345/4/6
f 329/1/6 339/1/6 345/1/6
f 345/4/6 340/4/6 346/4/6
f 341/4/6 342/4/6 347/4/6
f 333/1/6 341/1/6 347/1/6
f 347/4/6 342/4/6 348/4/6
f 343/4/6 344/4/6 349/4/6
f 337/1/6 343/1/6 349/1/6
f 349/4/6 344/4/6 350/4/6
f 331/1/6 332/1/6 351/1/6
f 335/1/6 336/1/6 353/1/6
f 351/4/6 352/4/6 355/4/6
f 331/1/6 351/1/6 355/1/6
f 355/4/6 352/4/6 356/4/6
f 353/4/6 354/4/6 357/4/6
f 335/1/6 353/1/6 357/1/6
f 357/4/6 354/4/6 358/4/6
f 329/1/6 345/1/6 359/1/6
f 333/1/6 347/1/6 361/1/6
f 337/1/6 349/1/6 363/1/6
f 359/4/6 360/4/6 365/4/6
f 329/1/6 359/1/6 365/1/6
f 365/4/6 360/4/6 366/4/6
f 361/4/6 362/4/6 367/4/6
f 333/1/6 361/1/6 367/1/6
f 367/4/6 362/4/6 368/4/6
f 363/4/6 364/4/6 369/4/6
f 337/1/6 363/1/6 369/1/6
f 369/4/6 364/4/6 370/4/6
f 331/1/6 355/1/6 371/1/6
f 335/1/6 357/1/6 373/1/6
f 371/4/6 372/4/6 375/4/6
f 331/1/6 371/1/6 375/1/6
f 375/4/6 372/4/6 376/4/6
f 373/4/6 374/4/6 377/4/6
f 335/1/6 373/1/6 377/1/6
f 377/4/6 374/4/6 378/4/6
f 329/1/6 365/1/6 379/1/6
f 379/1/6 365/1/6 380/1/6
f 331/1/6 375/1/6 381/1/6
f 381/1/6 375/1/6 382/1/6
f 333/1/6 367/1/6 383/1/6
f 383/1/6 367/1/6 384/1/6
f 335/1/6 377/1/6 385/1/6
f 385/1/6 377/1/6 386/1/6
f 337/1/6 369/1/6 387/1/6
f 387/1/6 369/1/6 388/1/6
