# MagicaVoxel @ Ephtracy

# group
g Sunflower_Level_2

# material
mtllib Sunflower_Level_2.mtl
usemtl palette

# normals
vn -1 0 0
vn 1 0 0
vn 0 0 1
vn 0 0 -1
vn 0 -1 0
vn 0 1 0

# texcoords
vt 0.271484 0.5
vt 0.279297 0.5
vt 0.310547 0.5
vt 0.556641 0.5

# verts
v 19 0 27
v 19 0 7
v 19 3 27
v 19 3 7
v 19 6 27
v 19 6 7
v 19 11 27
v 19 11 7
v 20 12 25
v 20 12 24
v 20 12 16
v 20 12 15
v 20 13 25
v 20 13 24
v 20 13 16
v 20 13 15
v 21 11 25
v 21 11 24
v 21 11 16
v 21 11 15
v 21 12 25
v 21 12 24
v 21 12 16
v 21 12 15
v 23 10 27
v 23 10 7
v 23 11 27
v 23 11 7
v 24 12 20
v 24 12 19
v 24 12 11
v 24 12 10
v 24 13 20
v 24 13 19
v 24 13 11
v 24 13 10
v 25 11 20
v 25 11 19
v 25 11 11
v 25 11 10
v 25 12 20
v 25 12 19
v 25 12 11
v 25 12 10
v 27 10 27
v 27 10 7
v 27 11 27
v 27 11 7
v 28 12 25
v 28 12 24
v 28 12 16
v 28 12 15
v 28 13 25
v 28 13 24
v 28 13 16
v 28 13 15
v 29 11 25
v 29 11 24
v 29 11 16
v 29 11 15
v 29 12 25
v 29 12 24
v 29 12 16
v 29 12 15
v 31 10 27
v 31 10 7
v 31 11 27
v 31 11 7
v 32 12 20
v 32 12 19
v 32 12 11
v 32 12 10
v 32 13 20
v 32 13 19
v 32 13 11
v 32 13 10
v 33 11 20
v 33 11 19
v 33 11 11
v 33 11 10
v 33 12 20
v 33 12 19
v 33 12 11
v 33 12 10
v 35 10 27
v 35 10 7
v 35 11 27
v 35 11 7
v 36 12 25
v 36 12 24
v 36 12 16
v 36 12 15
v 36 13 25
v 36 13 24
v 36 13 16
v 36 13 15
v 37 11 25
v 37 11 24
v 37 11 16
v 37 11 15
v 37 12 25
v 37 12 24
v 37 12 16
v 37 12 15
v 21 10 27
v 21 10 25
v 21 10 24
v 21 10 16
v 21 10 15
v 21 10 7
v 21 11 27
v 21 11 25
v 21 11 24
v 21 11 16
v 21 11 15
v 21 11 7
v 21 12 25
v 21 12 24
v 21 12 16
v 21 12 15
v 21 13 25
v 21 13 24
v 21 13 16
v 21 13 15
v 22 10 25
v 22 10 24
v 22 10 16
v 22 10 15
v 22 12 25
v 22 12 24
v 22 12 16
v 22 12 15
v 25 10 27
v 25 10 20
v 25 10 19
v 25 10 11
v 25 10 10
v 25 10 7
v 25 11 27
v 25 11 20
v 25 11 19
v 25 11 11
v 25 11 10
v 25 11 7
v 25 12 20
v 25 12 19
v 25 12 11
v 25 12 10
v 25 13 20
v 25 13 19
v 25 13 11
v 25 13 10
v 26 10 20
v 26 10 19
v 26 10 11
v 26 10 10
v 26 12 20
v 26 12 19
v 26 12 11
v 26 12 10
v 29 10 27
v 29 10 25
v 29 10 24
v 29 10 16
v 29 10 15
v 29 10 7
v 29 11 27
v 29 11 25
v 29 11 24
v 29 11 16
v 29 11 15
v 29 11 7
v 29 12 25
v 29 12 24
v 29 12 16
v 29 12 15
v 29 13 25
v 29 13 24
v 29 13 16
v 29 13 15
v 30 10 25
v 30 10 24
v 30 10 16
v 30 10 15
v 30 12 25
v 30 12 24
v 30 12 16
v 30 12 15
v 33 10 27
v 33 10 20
v 33 10 19
v 33 10 11
v 33 10 10
v 33 10 7
v 33 11 27
v 33 11 20
v 33 11 19
v 33 11 11
v 33 11 10
v 33 11 7
v 33 12 20
v 33 12 19
v 33 12 11
v 33 12 10
v 33 13 20
v 33 13 19
v 33 13 11
v 33 13 10
v 34 10 20
v 34 10 19
v 34 10 11
v 34 10 10
v 34 12 20
v 34 12 19
v 34 12 11
v 34 12 10
v 37 10 27
v 37 10 25
v 37 10 24
v 37 10 16
v 37 10 15
v 37 10 7
v 37 11 27
v 37 11 25
v 37 11 24
v 37 11 16
v 37 11 15
v 37 11 7
v 37 12 25
v 37 12 24
v 37 12 16
v 37 12 15
v 37 13 25
v 37 13 24
v 37 13 16
v 37 13 15
v 38 10 25
v 38 10 24
v 38 10 16
v 38 10 15
v 38 12 25
v 38 12 24
v 38 12 16
v 38 12 15
v 39 0 27
v 39 0 7
v 39 3 27
v 39 3 7
v 39 6 27
v 39 6 7
v 39 10 27
v 39 10 7
v 19 0 27
v 19 3 27
v 19 6 27
v 19 11 27
v 21 10 27
v 21 11 27
v 23 10 27
v 23 11 27
v 25 10 27
v 25 11 27
v 27 10 27
v 27 11 27
v 29 10 27
v 29 11 27
v 31 10 27
v 31 11 27
v 33 10 27
v 33 11 27
v 35 10 27
v 35 11 27
v 37 10 27
v 37 11 27
v 39 0 27
v 39 3 27
v 39 6 27
v 39 10 27
v 20 12 25
v 20 13 25
v 21 10 25
v 21 11 25
v 21 12 25
v 21 13 25
v 22 10 25
v 22 12 25
v 28 12 25
v 28 13 25
v 29 10 25
v 29 11 25
v 29 12 25
v 29 13 25
v 30 10 25
v 30 12 25
v 36 12 25
v 36 13 25
v 37 10 25
v 37 11 25
v 37 12 25
v 37 13 25
v 38 10 25
v 38 12 25
v 24 12 20
v 24 13 20
v 25 10 20
v 25 11 20
v 25 12 20
v 25 13 20
v 26 10 20
v 26 12 20
v 32 12 20
v 32 13 20
v 33 10 20
v 33 11 20
v 33 12 20
v 33 13 20
v 34 10 20
v 34 12 20
v 20 12 16
v 20 13 16
v 21 10 16
v 21 11 16
v 21 12 16
v 21 13 16
v 22 10 16
v 22 12 16
v 28 12 16
v 28 13 16
v 29 10 16
v 29 11 16
v 29 12 16
v 29 13 16
v 30 10 16
v 30 12 16
v 36 12 16
v 36 13 16
v 37 10 16
v 37 11 16
v 37 12 16
v 37 13 16
v 38 10 16
v 38 12 16
v 24 12 11
v 24 13 11
v 25 10 11
v 25 11 11
v 25 12 11
v 25 13 11
v 26 10 11
v 26 12 11
v 32 12 11
v 32 13 11
v 33 10 11
v 33 11 11
v 33 12 11
v 33 13 11
v 34 10 11
v 34 12 11
v 20 12 24
v 20 13 24
v 21 10 24
v 21 11 24
v 21 12 24
v 21 13 24
v 22 10 24
v 22 12 24
v 28 12 24
v 28 13 24
v 29 10 24
v 29 11 24
v 29 12 24
v 29 13 24
v 30 10 24
v 30 12 24
v 36 12 24
v 36 13 24
v 37 10 24
v 37 11 24
v 37 12 24
v 37 13 24
v 38 10 24
v 38 12 24
v 24 12 19
v 24 13 19
v 25 10 19
v 25 11 19
v 25 12 19
v 25 13 19
v 26 10 19
v 26 12 19
v 32 12 19
v 32 13 19
v 33 10 19
v 33 11 19
v 33 12 19
v 33 13 19
v 34 10 19
v 34 12 19
v 20 12 15
v 20 13 15
v 21 10 15
v 21 11 15
v 21 12 15
v 21 13 15
v 22 10 15
v 22 12 15
v 28 12 15
v 28 13 15
v 29 10 15
v 29 11 15
v 29 12 15
v 29 13 15
v 30 10 15
v 30 12 15
v 36 12 15
v 36 13 15
v 37 10 15
v 37 11 15
v 37 12 15
v 37 13 15
v 38 10 15
v 38 12 15
v 24 12 10
v 24 13 10
v 25 10 10
v 25 11 10
v 25 12 10
v 25 13 10
v 26 10 10
v 26 12 10
v 32 12 10
v 32 13 10
v 33 10 10
v 33 11 10
v 33 12 10
v 33 13 10
v 34 10 10
v 34 12 10
v 19 0 7
v 19 3 7
v 19 6 7
v 19 11 7
v 21 10 7
v 21 11 7
v 23 10 7
v 23 11 7
v 25 10 7
v 25 11 7
v 27 10 7
v 27 11 7
v 29 10 7
v 29 11 7
v 31 10 7
v 31 11 7
v 33 10 7
v 33 11 7
v 35 10 7
v 35 11 7
v 37 10 7
v 37 11 7
v 39 0 7
v 39 3 7
v 39 6 7
v 39 10 7
v 19 0 27
v 39 0 27
v 19 0 7
v 39 0 7
v 20 12 25
v 21 12 25
v 28 12 25
v 29 12 25
v 36 12 25
v 37 12 25
v 20 12 24
v 21 12 24
v 28 12 24
v 29 12 24
v 36 12 24
v 37 12 24
v 24 12 20
v 25 12 20
v 32 12 20
v 33 12 20
v 24 12 19
v 25 12 19
v 32 12 19
v 33 12 19
v 20 12 16
v 21 12 16
v 28 12 16
v 29 12 16
v 36 12 16
v 37 12 16
v 20 12 15
v 21 12 15
v 28 12 15
v 29 12 15
v 36 12 15
v 37 12 15
v 24 12 11
v 25 12 11
v 32 12 11
v 33 12 11
v 24 12 10
v 25 12 10
v 32 12 10
v 33 12 10
v 21 10 27
v 23 10 27
v 25 10 27
v 27 10 27
v 29 10 27
v 31 10 27
v 33 10 27
v 35 10 27
v 37 10 27
v 39 10 27
v 21 10 25
v 22 10 25
v 29 10 25
v 30 10 25
v 37 10 25
v 38 10 25
v 21 10 24
v 22 10 24
v 29 10 24
v 30 10 24
v 37 10 24
v 38 10 24
v 25 10 20
v 26 10 20
v 33 10 20
v 34 10 20
v 25 10 19
v 26 10 19
v 33 10 19
v 34 10 19
v 21 10 16
v 22 10 16
v 29 10 16
v 30 10 16
v 37 10 16
v 38 10 16
v 21 10 15
v 22 10 15
v 29 10 15
v 30 10 15
v 37 10 15
v 38 10 15
v 25 10 11
v 26 10 11
v 33 10 11
v 34 10 11
v 25 10 10
v 26 10 10
v 33 10 10
v 34 10 10
v 21 10 7
v 23 10 7
v 25 10 7
v 27 10 7
v 29 10 7
v 31 10 7
v 33 10 7
v 35 10 7
v 37 10 7
v 39 10 7
v 19 11 27
v 21 11 27
v 23 11 27
v 25 11 27
v 27 11 27
v 29 11 27
v 31 11 27
v 33 11 27
v 35 11 27
v 37 11 27
v 21 11 25
v 29 11 25
v 37 11 25
v 21 11 24
v 29 11 24
v 37 11 24
v 25 11 20
v 33 11 20
v 25 11 19
v 33 11 19
v 21 11 16
v 29 11 16
v 37 11 16
v 21 11 15
v 29 11 15
v 37 11 15
v 25 11 11
v 33 11 11
v 25 11 10
v 33 11 10
v 19 11 7
v 21 11 7
v 23 11 7
v 25 11 7
v 27 11 7
v 29 11 7
v 31 11 7
v 33 11 7
v 35 11 7
v 37 11 7
v 21 12 25
v 22 12 25
v 29 12 25
v 30 12 25
v 37 12 25
v 38 12 25
v 21 12 24
v 22 12 24
v 29 12 24
v 30 12 24
v 37 12 24
v 38 12 24
v 25 12 20
v 26 12 20
v 33 12 20
v 34 12 20
v 25 12 19
v 26 12 19
v 33 12 19
v 34 12 19
v 21 12 16
v 22 12 16
v 29 12 16
v 30 12 16
v 37 12 16
v 38 12 16
v 21 12 15
v 22 12 15
v 29 12 15
v 30 12 15
v 37 12 15
v 38 12 15
v 25 12 11
v 26 12 11
v 33 12 11
v 34 12 11
v 25 12 10
v 26 12 10
v 33 12 10
v 34 12 10
v 20 13 25
v 21 13 25
v 28 13 25
v 29 13 25
v 36 13 25
v 37 13 25
v 20 13 24
v 21 13 24
v 28 13 24
v 29 13 24
v 36 13 24
v 37 13 24
v 24 13 20
v 25 13 20
v 32 13 20
v 33 13 20
v 24 13 19
v 25 13 19
v 32 13 19
v 33 13 19
v 20 13 16
v 21 13 16
v 28 13 16
v 29 13 16
v 36 13 16
v 37 13 16
v 20 13 15
v 21 13 15
v 28 13 15
v 29 13 15
v 36 13 15
v 37 13 15
v 24 13 11
v 25 13 11
v 32 13 11
v 33 13 11
v 24 13 10
v 25 13 10
v 32 13 10
v 33 13 10

# faces
f 3/3/1 2/3/1 1/3/1
f 4/3/1 2/3/1 3/3/1
f 5/2/1 4/2/1 3/2/1
f 6/2/1 4/2/1 5/2/1
f 7/1/1 6/1/1 5/1/1
f 8/1/1 6/1/1 7/1/1
f 13/4/1 10/4/1 9/4/1
f 14/4/1 10/4/1 13/4/1
f 15/4/1 12/4/1 11/4/1
f 16/4/1 12/4/1 15/4/1
f 21/4/1 18/4/1 17/4/1
f 22/4/1 18/4/1 21/4/1
f 23/4/1 20/4/1 19/4/1
f 24/4/1 20/4/1 23/4/1
f 27/1/1 26/1/1 25/1/1
f 28/1/1 26/1/1 27/1/1
f 33/4/1 30/4/1 29/4/1
f 34/4/1 30/4/1 33/4/1
f 35/4/1 32/4/1 31/4/1
f 36/4/1 32/4/1 35/4/1
f 41/4/1 38/4/1 37/4/1
f 42/4/1 38/4/1 41/4/1
f 43/4/1 40/4/1 39/4/1
f 44/4/1 40/4/1 43/4/1
f 47/1/1 46/1/1 45/1/1
f 48/1/1 46/1/1 47/1/1
f 53/4/1 50/4/1 49/4/1
f 54/4/1 50/4/1 53/4/1
f 55/4/1 52/4/1 51/4/1
f 56/4/1 52/4/1 55/4/1
f 61/4/1 58/4/1 57/4/1
f 62/4/1 58/4/1 61/4/1
f 63/4/1 60/4/1 59/4/1
f 64/4/1 60/4/1 63/4/1
f 67/1/1 66/1/1 65/1/1
f 68/1/1 66/1/1 67/1/1
f 73/4/1 70/4/1 69/4/1
f 74/4/1 70/4/1 73/4/1
f 75/4/1 72/4/1 71/4/1
f 76/4/1 72/4/1 75/4/1
f 81/4/1 78/4/1 77/4/1
f 82/4/1 78/4/1 81/4/1
f 83/4/1 80/4/1 79/4/1
f 84/4/1 80/4/1 83/4/1
f 87/1/1 86/1/1 85/1/1
f 88/1/1 86/1/1 87/1/1
f 93/4/1 90/4/1 89/4/1
f 94/4/1 90/4/1 93/4/1
f 95/4/1 92/4/1 91/4/1
f 96/4/1 92/4/1 95/4/1
f 101/4/1 98/4/1 97/4/1
f 102/4/1 98/4/1 101/4/1
f 103/4/1 100/4/1 99/4/1
f 104/4/1 100/4/1 103/4/1
f 105/1/2 106/1/2 111/1/2
f 111/1/2 106/1/2 112/1/2
f 107/1/2 108/1/2 113/1/2
f 113/1/2 108/1/2 114/1/2
f 109/1/2 110/1/2 115/1/2
f 115/1/2 110/1/2 116/1/2
f 117/4/2 118/4/2 121/4/2
f 121/4/2 118/4/2 122/4/2
f 119/4/2 120/4/2 123/4/2
f 123/4/2 120/4/2 124/4/2
f 125/4/2 126/4/2 129/4/2
f 129/4/2 126/4/2 130/4/2
f 127/4/2 128/4/2 131/4/2
f 131/4/2 128/4/2 132/4/2
f 133/1/2 134/1/2 139/1/2
f 139/1/2 134/1/2 140/1/2
f 135/1/2 136/1/2 141/1/2
f 141/1/2 136/1/2 142/1/2
f 137/1/2 138/1/2 143/1/2
f 143/1/2 138/1/2 144/1/2
f 145/4/2 146/4/2 149/4/2
f 149/4/2 146/4/2 150/4/2
f 147/4/2 148/4/2 151/4/2
f 151/4/2 148/4/2 152/4/2
f 153/4/2 154/4/2 157/4/2
f 157/4/2 154/4/2 158/4/2
f 155/4/2 156/4/2 159/4/2
f 159/4/2 156/4/2 160/4/2
f 161/1/2 162/1/2 167/1/2
f 167/1/2 162/1/2 168/1/2
f 163/1/2 164/1/2 169/1/2
f 169/1/2 164/1/2 170/1/2
f 165/1/2 166/1/2 171/1/2
f 171/1/2 166/1/2 172/1/2
f 173/4/2 174/4/2 177/4/2
f 177/4/2 174/4/2 178/4/2
f 175/4/2 176/4/2 179/4/2
f 179/4/2 176/4/2 180/4/2
f 181/4/2 182/4/2 185/4/2
f 185/4/2 182/4/2 186/4/2
f 183/4/2 184/4/2 187/4/2
f 187/4/2 184/4/2 188/4/2
f 189/1/2 190/1/2 195/1/2
f 195/1/2 190/1/2 196/1/2
f 191/1/2 192/1/2 197/1/2
f 197/1/2 192/1/2 198/1/2
f 193/1/2 194/1/2 199/1/2
f 199/1/2 194/1/2 200/1/2
f 201/4/2 202/4/2 205/4/2
f 205/4/2 202/4/2 206/4/2
f 203/4/2 204/4/2 207/4/2
f 207/4/2 204/4/2 208/4/2
f 209/4/2 210/4/2 213/4/2
f 213/4/2 210/4/2 214/4/2
f 211/4/2 212/4/2 215/4/2
f 215/4/2 212/4/2 216/4/2
f 217/1/2 218/1/2 223/1/2
f 223/1/2 218/1/2 224/1/2
f 219/1/2 220/1/2 225/1/2
f 225/1/2 220/1/2 226/1/2
f 221/1/2 222/1/2 227/1/2
f 227/1/2 222/1/2 228/1/2
f 229/4/2 230/4/2 233/4/2
f 233/4/2 230/4/2 234/4/2
f 231/4/2 232/4/2 235/4/2
f 235/4/2 232/4/2 236/4/2
f 237/4/2 238/4/2 241/4/2
f 241/4/2 238/4/2 242/4/2
f 239/4/2 240/4/2 243/4/2
f 243/4/2 240/4/2 244/4/2
f 245/3/2 246/3/2 247/3/2
f 247/3/2 246/3/2 248/3/2
f 247/2/2 248/2/2 249/2/2
f 249/2/2 248/2/2 250/2/2
f 249/1/2 250/1/2 251/1/2
f 251/1/2 250/1/2 252/1/2
f 257/1/3 256/1/3 255/1/3
f 258/1/3 256/1/3 257/1/3
f 259/1/3 257/1/3 255/1/3
f 261/1/3 259/1/3 255/1/3
f 261/1/3 260/1/3 259/1/3
f 262/1/3 260/1/3 261/1/3
f 263/1/3 261/1/3 255/1/3
f 265/1/3 263/1/3 255/1/3
f 265/1/3 264/1/3 263/1/3
f 266/1/3 264/1/3 265/1/3
f 267/1/3 265/1/3 255/1/3
f 269/1/3 267/1/3 255/1/3
f 269/1/3 268/1/3 267/1/3
f 270/1/3 268/1/3 269/1/3
f 271/1/3 269/1/3 255/1/3
f 273/1/3 271/1/3 255/1/3
f 273/1/3 272/1/3 271/1/3
f 274/1/3 272/1/3 273/1/3
f 275/3/3 254/3/3 253/3/3
f 276/2/3 255/2/3 254/2/3
f 276/3/3 254/3/3 275/3/3
f 277/1/3 273/1/3 255/1/3
f 277/2/3 255/2/3 276/2/3
f 278/1/3 273/1/3 277/1/3
f 283/4/3 280/4/3 279/4/3
f 284/4/3 280/4/3 283/4/3
f 285/4/3 282/4/3 281/4/3
f 285/4/3 283/4/3 282/4/3
f 286/4/3 283/4/3 285/4/3
f 291/4/3 288/4/3 287/4/3
f 292/4/3 288/4/3 291/4/3
f 293/4/3 290/4/3 289/4/3
f 293/4/3 291/4/3 290/4/3
f 294/4/3 291/4/3 293/4/3
f 299/4/3 296/4/3 295/4/3
f 300/4/3 296/4/3 299/4/3
f 301/4/3 298/4/3 297/4/3
f 301/4/3 299/4/3 298/4/3
f 302/4/3 299/4/3 301/4/3
f 307/4/3 304/4/3 303/4/3
f 308/4/3 304/4/3 307/4/3
f 309/4/3 306/4/3 305/4/3
f 309/4/3 307/4/3 306/4/3
f 310/4/3 307/4/3 309/4/3
f 315/4/3 312/4/3 311/4/3
f 316/4/3 312/4/3 315/4/3
f 317/4/3 314/4/3 313/4/3
f 317/4/3 315/4/3 314/4/3
f 318/4/3 315/4/3 317/4/3
f 323/4/3 320/4/3 319/4/3
f 324/4/3 320/4/3 323/4/3
f 325/4/3 322/4/3 321/4/3
f 325/4/3 323/4/3 322/4/3
f 326/4/3 323/4/3 325/4/3
f 331/4/3 328/4/3 327/4/3
f 332/4/3 328/4/3 331/4/3
f 333/4/3 330/4/3 329/4/3
f 333/4/3 331/4/3 330/4/3
f 334/4/3 331/4/3 333/4/3
f 339/4/3 336/4/3 335/4/3
f 340/4/3 336/4/3 339/4/3
f 341/4/3 338/4/3 337/4/3
f 341/4/3 339/4/3 338/4/3
f 342/4/3 339/4/3 341/4/3
f 347/4/3 344/4/3 343/4/3
f 348/4/3 344/4/3 347/4/3
f 349/4/3 346/4/3 345/4/3
f 349/4/3 347/4/3 346/4/3
f 350/4/3 347/4/3 349/4/3
f 355/4/3 352/4/3 351/4/3
f 356/4/3 352/4/3 355/4/3
f 357/4/3 354/4/3 353/4/3
f 357/4/3 355/4/3 354/4/3
f 358/4/3 355/4/3 357/4/3
f 359/4/4 360/4/4 363/4/4
f 363/4/4 360/4/4 364/4/4
f 361/4/4 362/4/4 365/4/4
f 362/4/4 363/4/4 365/4/4
f 365/4/4 363/4/4 366/4/4
f 367/4/4 368/4/4 371/4/4
f 371/4/4 368/4/4 372/4/4
f 369/4/4 370/4/4 373/4/4
f 370/4/4 371/4/4 373/4/4
f 373/4/4 371/4/4 374/4/4
f 375/4/4 376/4/4 379/4/4
f 379/4/4 376/4/4 380/4/4
f 377/4/4 378/4/4 381/4/4
f 378/4/4 379/4/4 381/4/4
f 381/4/4 379/4/4 382/4/4
f 383/4/4 384/4/4 387/4/4
f 387/4/4 384/4/4 388/4/4
f 385/4/4 386/4/4 389/4/4
f 386/4/4 387/4/4 389/4/4
f 389/4/4 387/4/4 390/4/4
f 391/4/4 392/4/4 395/4/4
f 395/4/4 392/4/4 396/4/4
f 393/4/4 394/4/4 397/4/4
f 394/4/4 395/4/4 397/4/4
f 397/4/4 395/4/4 398/4/4
f 399/4/4 400/4/4 403/4/4
f 403/4/4 400/4/4 404/4/4
f 401/4/4 402/4/4 405/4/4
f 402/4/4 403/4/4 405/4/4
f 405/4/4 403/4/4 406/4/4
f 407/4/4 408/4/4 411/4/4
f 411/4/4 408/4/4 412/4/4
f 409/4/4 410/4/4 413/4/4
f 410/4/4 411/4/4 413/4/4
f 413/4/4 411/4/4 414/4/4
f 415/4/4 416/4/4 419/4/4
f 419/4/4 416/4/4 420/4/4
f 417/4/4 418/4/4 421/4/4
f 418/4/4 419/4/4 421/4/4
f 421/4/4 419/4/4 422/4/4
f 423/4/4 424/4/4 427/4/4
f 427/4/4 424/4/4 428/4/4
f 425/4/4 426/4/4 429/4/4
f 426/4/4 427/4/4 429/4/4
f 429/4/4 427/4/4 430/4/4
f 431/4/4 432/4/4 435/4/4
f 435/4/4 432/4/4 436/4/4
f 433/4/4 434/4/4 437/4/4
f 434/4/4 435/4/4 437/4/4
f 437/4/4 435/4/4 438/4/4
f 441/1/4 442/1/4 443/1/4
f 443/1/4 442/1/4 444/1/4
f 441/1/4 443/1/4 445/1/4
f 441/1/4 445/1/4 447/1/4
f 445/1/4 446/1/4 447/1/4
f 447/1/4 446/1/4 448/1/4
f 441/1/4 447/1/4 449/1/4
f 441/1/4 449/1/4 451/1/4
f 449/1/4 450/1/4 451/1/4
f 451/1/4 450/1/4 452/1/4
f 441/1/4 451/1/4 453/1/4
f 441/1/4 453/1/4 455/1/4
f 453/1/4 454/1/4 455/1/4
f 455/1/4 454/1/4 456/1/4
f 441/1/4 455/1/4 457/1/4
f 441/1/4 457/1/4 459/1/4
f 457/1/4 458/1/4 459/1/4
f 459/1/4 458/1/4 460/1/4
f 439/3/4 440/3/4 461/3/4
f 440/2/4 441/2/4 462/2/4
f 461/3/4 440/3/4 462/3/4
f 441/1/4 459/1/4 463/1/4
f 462/2/4 441/2/4 463/2/4
f 463/1/4 459/1/4 464/1/4
f 467/3/5 466/3/5 465/3/5
f 468/3/5 466/3/5 467/3/5
f 475/4/5 470/4/5 469/4/5
f 476/4/5 470/4/5 475/4/5
f 477/4/5 472/4/5 471/4/5
f 478/4/5 472/4/5 477/4/5
f 479/4/5 474/4/5 473/4/5
f 480/4/5 474/4/5 479/4/5
f 485/4/5 482/4/5 481/4/5
f 486/4/5 482/4/5 485/4/5
f 487/4/5 484/4/5 483/4/5
f 488/4/5 484/4/5 487/4/5
f 495/4/5 490/4/5 489/4/5
f 496/4/5 490/4/5 495/4/5
f 497/4/5 492/4/5 491/4/5
f 498/4/5 492/4/5 497/4/5
f 499/4/5 494/4/5 493/4/5
f 500/4/5 494/4/5 499/4/5
f 505/4/5 502/4/5 501/4/5
f 506/4/5 502/4/5 505/4/5
f 507/4/5 504/4/5 503/4/5
f 508/4/5 504/4/5 507/4/5
f 509/1/6 510/1/6 519/1/6
f 519/1/6 510/1/6 520/1/6
f 513/1/6 514/1/6 521/1/6
f 521/1/6 514/1/6 522/1/6
f 517/1/6 518/1/6 523/1/6
f 523/1/6 518/1/6 524/1/6
f 520/1/6 510/1/6 526/1/6
f 522/1/6 514/1/6 528/1/6
f 524/1/6 518/1/6 530/1/6
f 511/1/6 512/1/6 531/1/6
f 531/1/6 512/1/6 532/1/6
f 515/1/6 516/1/6 533/1/6
f 533/1/6 516/1/6 534/1/6
f 532/1/6 512/1/6 536/1/6
f 534/1/6 516/1/6 538/1/6
f 525/1/6 526/1/6 539/1/6
f 526/1/6 510/1/6 540/1/6
f 539/1/6 526/1/6 540/1/6
f 527/1/6 528/1/6 541/1/6
f 528/1/6 514/1/6 542/1/6
f 541/1/6 528/1/6 542/1/6
f 529/1/6 530/1/6 543/1/6
f 530/1/6 518/1/6 544/1/6
f 543/1/6 530/1/6 544/1/6
f 540/1/6 510/1/6 546/1/6
f 542/1/6 514/1/6 548/1/6
f 544/1/6 518/1/6 550/1/6
f 535/1/6 536/1/6 551/1/6
f 536/1/6 512/1/6 552/1/6
f 551/1/6 536/1/6 552/1/6
f 537/1/6 538/1/6 553/1/6
f 538/1/6 516/1/6 554/1/6
f 553/1/6 538/1/6 554/1/6
f 552/1/6 512/1/6 556/1/6
f 554/1/6 516/1/6 558/1/6
f 545/1/6 546/1/6 559/1/6
f 546/1/6 510/1/6 560/1/6
f 559/1/6 546/1/6 560/1/6
f 555/1/6 556/1/6 561/1/6
f 556/1/6 512/1/6 562/1/6
f 561/1/6 556/1/6 562/1/6
f 547/1/6 548/1/6 563/1/6
f 548/1/6 514/1/6 564/1/6
f 563/1/6 548/1/6 564/1/6
f 557/1/6 558/1/6 565/1/6
f 558/1/6 516/1/6 566/1/6
f 565/1/6 558/1/6 566/1/6
f 549/1/6 550/1/6 567/1/6
f 550/1/6 518/1/6 568/1/6
f 567/1/6 550/1/6 568/1/6
f 569/1/6 570/1/6 579/1/6
f 573/1/6 574/1/6 580/1/6
f 577/1/6 578/1/6 581/1/6
f 569/1/6 579/1/6 582/1/6
f 573/1/6 580/1/6 583/1/6
f 577/1/6 581/1/6 584/1/6
f 571/1/6 572/1/6 585/1/6
f 575/1/6 576/1/6 586/1/6
f 571/1/6 585/1/6 587/1/6
f 575/1/6 586/1/6 588/1/6
f 569/1/6 582/1/6 589/1/6
f 573/1/6 583/1/6 590/1/6
f 577/1/6 584/1/6 591/1/6
f 569/1/6 589/1/6 592/1/6
f 573/1/6 590/1/6 593/1/6
f 577/1/6 591/1/6 594/1/6
f 571/1/6 587/1/6 595/1/6
f 575/1/6 588/1/6 596/1/6
f 571/1/6 595/1/6 597/1/6
f 575/1/6 596/1/6 598/1/6
f 569/1/6 592/1/6 599/1/6
f 599/1/6 592/1/6 600/1/6
f 571/1/6 597/1/6 601/1/6
f 601/1/6 597/1/6 602/1/6
f 573/1/6 593/1/6 603/1/6
f 603/1/6 593/1/6 604/1/6
f 575/1/6 598/1/6 605/1/6
f 605/1/6 598/1/6 606/1/6
f 577/1/6 594/1/6 607/1/6
f 607/1/6 594/1/6 608/1/6
f 609/4/6 610/4/6 615/4/6
f 615/4/6 610/4/6 616/4/6
f 611/4/6 612/4/6 617/4/6
f 617/4/6 612/4/6 618/4/6
f 613/4/6 614/4/6 619/4/6
f 619/4/6 614/4/6 620/4/6
f 621/4/6 622/4/6 625/4/6
f 625/4/6 622/4/6 626/4/6
f 623/4/6 624/4/6 627/4/6
f 627/4/6 624/4/6 628/4/6
f 629/4/6 630/4/6 635/4/6
f 635/4/6 630/4/6 636/4/6
f 631/4/6 632/4/6 637/4/6
f 637/4/6 632/4/6 638/4/6
f 633/4/6 634/4/6 639/4/6
f 639/4/6 634/4/6 640/4/6
f 641/4/6 642/4/6 645/4/6
f 645/4/6 642/4/6 646/4/6
f 643/4/6 644/4/6 647/4/6
f 647/4/6 644/4/6 648/4/6
f 649/4/6 650/4/6 655/4/6
f 655/4/6 650/4/6 656/4/6
f 651/4/6 652/4/6 657/4/6
f 657/4/6 652/4/6 658/4/6
f 653/4/6 654/4/6 659/4/6
f 659/4/6 654/4/6 660/4/6
f 661/4/6 662/4/6 665/4/6
f 665/4/6 662/4/6 666/4/6
f 663/4/6 664/4/6 667/4/6
f 667/4/6 664/4/6 668/4/6
f 669/4/6 670/4/6 675/4/6
f 675/4/6 670/4/6 676/4/6
f 671/4/6 672/4/6 677/4/6
f 677/4/6 672/4/6 678/4/6
f 673/4/6 674/4/6 679/4/6
f 679/4/6 674/4/6 680/4/6
f 681/4/6 682/4/6 685/4/6
f 685/4/6 682/4/6 686/4/6
f 683/4/6 684/4/6 687/4/6
f 687/4/6 684/4/6 688/4/6
