# MagicaVoxel @ Ephtracy

# group
g White_Flower_Grass

# material
mtllib White_Flower_Grass.mtl
usemtl palette

# normals
vn -1 0 0
vn 1 0 0
vn 0 0 1
vn 0 0 -1
vn 0 -1 0
vn 0 1 0

# texcoords
vt 0.271484 0.5
vt 0.279297 0.5
vt 0.310547 0.5
vt 0.431641 0.5
vt 0.466797 0.5
vt 0.498047 0.5
vt 0.556641 0.5
vt 0.591797 0.5
vt 0.958984 0.5

# verts
v -47 0 27
v -47 0 7
v -47 3 27
v -47 3 7
v -47 6 27
v -47 6 7
v -47 10 27
v -47 10 7
v -47 11 27
v -47 11 7
v -45 13 23
v -45 13 22
v -45 14 23
v -45 14 22
v -44 11 23
v -44 11 22
v -44 13 24
v -44 13 23
v -44 13 22
v -44 13 21
v -44 13 13
v -44 13 12
v -44 14 24
v -44 14 23
v -44 14 22
v -44 14 21
v -44 14 13
v -44 14 12
v -43 11 13
v -43 11 12
v -43 13 14
v -43 13 13
v -43 13 12
v -43 13 11
v -43 14 14
v -43 14 13
v -43 14 12
v -43 14 11
v -40 13 21
v -40 13 20
v -40 14 21
v -40 14 20
v -39 11 21
v -39 11 20
v -39 13 22
v -39 13 21
v -39 13 20
v -39 13 19
v -39 13 10
v -39 13 9
v -39 14 22
v -39 14 21
v -39 14 20
v -39 14 19
v -39 14 10
v -39 14 9
v -38 11 10
v -38 11 9
v -38 13 15
v -38 13 14
v -38 13 11
v -38 13 10
v -38 13 9
v -38 13 8
v -38 14 15
v -38 14 14
v -38 14 11
v -38 14 10
v -38 14 9
v -38 14 8
v -37 11 15
v -37 11 14
v -37 13 16
v -37 13 15
v -37 13 14
v -37 13 13
v -37 14 16
v -37 14 15
v -37 14 14
v -37 14 13
v -33 13 23
v -33 13 22
v -33 13 12
v -33 13 11
v -33 14 23
v -33 14 22
v -33 14 12
v -33 14 11
v -32 11 23
v -32 11 22
v -32 11 12
v -32 11 11
v -32 13 24
v -32 13 23
v -32 13 22
v -32 13 21
v -32 13 13
v -32 13 12
v -32 13 11
v -32 13 10
v -32 14 24
v -32 14 23
v -32 14 22
v -32 14 21
v -32 14 13
v -32 14 12
v -32 14 11
v -32 14 10
v -43 11 23
v -43 11 22
v -43 13 24
v -43 13 23
v -43 13 22
v -43 13 21
v -43 14 24
v -43 14 23
v -43 14 22
v -43 14 21
v -42 11 13
v -42 11 12
v -42 13 23
v -42 13 22
v -42 13 14
v -42 13 13
v -42 13 12
v -42 13 11
v -42 14 23
v -42 14 22
v -42 14 14
v -42 14 13
v -42 14 12
v -42 14 11
v -41 13 13
v -41 13 12
v -41 14 13
v -41 14 12
v -38 11 21
v -38 11 20
v -38 13 22
v -38 13 21
v -38 13 20
v -38 13 19
v -38 14 22
v -38 14 21
v -38 14 20
v -38 14 19
v -37 11 10
v -37 11 9
v -37 13 21
v -37 13 20
v -37 13 11
v -37 13 10
v -37 13 9
v -37 13 8
v -37 14 21
v -37 14 20
v -37 14 11
v -37 14 10
v -37 14 9
v -37 14 8
v -36 11 15
v -36 11 14
v -36 13 16
v -36 13 15
v -36 13 14
v -36 13 13
v -36 13 10
v -36 13 9
v -36 14 16
v -36 14 15
v -36 14 14
v -36 14 13
v -36 14 10
v -36 14 9
v -35 13 15
v -35 13 14
v -35 14 15
v -35 14 14
v -31 11 23
v -31 11 22
v -31 11 12
v -31 11 11
v -31 13 24
v -31 13 23
v -31 13 22
v -31 13 21
v -31 13 13
v -31 13 12
v -31 13 11
v -31 13 10
v -31 14 24
v -31 14 23
v -31 14 22
v -31 14 21
v -31 14 13
v -31 14 12
v -31 14 11
v -31 14 10
v -30 13 23
v -30 13 22
v -30 13 12
v -30 13 11
v -30 14 23
v -30 14 22
v -30 14 12
v -30 14 11
v -27 0 27
v -27 0 7
v -27 3 27
v -27 3 7
v -27 6 27
v -27 6 7
v -27 10 27
v -27 10 7
v -27 11 27
v -27 11 7
v -47 0 27
v -47 3 27
v -47 6 27
v -47 10 27
v -47 11 27
v -27 0 27
v -27 3 27
v -27 6 27
v -27 10 27
v -27 11 27
v -44 13 24
v -44 14 24
v -43 13 24
v -43 14 24
v -32 13 24
v -32 14 24
v -31 13 24
v -31 14 24
v -45 13 23
v -45 14 23
v -44 11 23
v -44 13 23
v -44 14 23
v -43 11 23
v -43 13 23
v -43 14 23
v -42 13 23
v -42 14 23
v -33 13 23
v -33 14 23
v -32 11 23
v -32 13 23
v -32 14 23
v -31 11 23
v -31 13 23
v -31 14 23
v -30 13 23
v -30 14 23
v -39 13 22
v -39 14 22
v -38 13 22
v -38 14 22
v -40 13 21
v -40 14 21
v -39 11 21
v -39 13 21
v -39 14 21
v -38 11 21
v -38 13 21
v -38 14 21
v -37 13 21
v -37 14 21
v -37 13 16
v -37 14 16
v -36 13 16
v -36 14 16
v -38 13 15
v -38 14 15
v -37 11 15
v -37 13 15
v -37 14 15
v -36 11 15
v -36 13 15
v -36 14 15
v -35 13 15
v -35 14 15
v -43 13 14
v -43 14 14
v -42 13 14
v -42 14 14
v -44 13 13
v -44 14 13
v -43 11 13
v -43 13 13
v -43 14 13
v -42 11 13
v -42 13 13
v -42 14 13
v -41 13 13
v -41 14 13
v -32 13 13
v -32 14 13
v -31 13 13
v -31 14 13
v -33 13 12
v -33 14 12
v -32 11 12
v -32 13 12
v -32 14 12
v -31 11 12
v -31 13 12
v -31 14 12
v -30 13 12
v -30 14 12
v -38 13 11
v -38 14 11
v -37 13 11
v -37 14 11
v -39 13 10
v -39 14 10
v -38 11 10
v -38 13 10
v -38 14 10
v -37 11 10
v -37 13 10
v -37 14 10
v -36 13 10
v -36 14 10
v -45 13 22
v -45 14 22
v -44 11 22
v -44 13 22
v -44 14 22
v -43 11 22
v -43 13 22
v -43 14 22
v -42 13 22
v -42 14 22
v -33 13 22
v -33 14 22
v -32 11 22
v -32 13 22
v -32 14 22
v -31 11 22
v -31 13 22
v -31 14 22
v -30 13 22
v -30 14 22
v -44 13 21
v -44 14 21
v -43 13 21
v -43 14 21
v -32 13 21
v -32 14 21
v -31 13 21
v -31 14 21
v -40 13 20
v -40 14 20
v -39 11 20
v -39 13 20
v -39 14 20
v -38 11 20
v -38 13 20
v -38 14 20
v -37 13 20
v -37 14 20
v -39 13 19
v -39 14 19
v -38 13 19
v -38 14 19
v -38 13 14
v -38 14 14
v -37 11 14
v -37 13 14
v -37 14 14
v -36 11 14
v -36 13 14
v -36 14 14
v -35 13 14
v -35 14 14
v -37 13 13
v -37 14 13
v -36 13 13
v -36 14 13
v -44 13 12
v -44 14 12
v -43 11 12
v -43 13 12
v -43 14 12
v -42 11 12
v -42 13 12
v -42 14 12
v -41 13 12
v -41 14 12
v -43 13 11
v -43 14 11
v -42 13 11
v -42 14 11
v -33 13 11
v -33 14 11
v -32 11 11
v -32 13 11
v -32 14 11
v -31 11 11
v -31 13 11
v -31 14 11
v -30 13 11
v -30 14 11
v -32 13 10
v -32 14 10
v -31 13 10
v -31 14 10
v -39 13 9
v -39 14 9
v -38 11 9
v -38 13 9
v -38 14 9
v -37 11 9
v -37 13 9
v -37 14 9
v -36 13 9
v -36 14 9
v -38 13 8
v -38 14 8
v -37 13 8
v -37 14 8
v -47 0 7
v -47 3 7
v -47 6 7
v -47 10 7
v -47 11 7
v -27 0 7
v -27 3 7
v -27 6 7
v -27 10 7
v -27 11 7
v -47 0 27
v -27 0 27
v -47 0 7
v -27 0 7
v -44 13 24
v -43 13 24
v -32 13 24
v -31 13 24
v -45 13 23
v -44 13 23
v -43 13 23
v -42 13 23
v -33 13 23
v -32 13 23
v -31 13 23
v -30 13 23
v -45 13 22
v -44 13 22
v -43 13 22
v -42 13 22
v -39 13 22
v -38 13 22
v -33 13 22
v -32 13 22
v -31 13 22
v -30 13 22
v -44 13 21
v -43 13 21
v -40 13 21
v -39 13 21
v -38 13 21
v -37 13 21
v -32 13 21
v -31 13 21
v -40 13 20
v -39 13 20
v -38 13 20
v -37 13 20
v -39 13 19
v -38 13 19
v -37 13 16
v -36 13 16
v -38 13 15
v -37 13 15
v -36 13 15
v -35 13 15
v -43 13 14
v -42 13 14
v -38 13 14
v -37 13 14
v -36 13 14
v -35 13 14
v -44 13 13
v -43 13 13
v -42 13 13
v -41 13 13
v -37 13 13
v -36 13 13
v -32 13 13
v -31 13 13
v -44 13 12
v -43 13 12
v -42 13 12
v -41 13 12
v -33 13 12
v -32 13 12
v -31 13 12
v -30 13 12
v -43 13 11
v -42 13 11
v -38 13 11
v -37 13 11
v -33 13 11
v -32 13 11
v -31 13 11
v -30 13 11
v -39 13 10
v -38 13 10
v -37 13 10
v -36 13 10
v -32 13 10
v -31 13 10
v -39 13 9
v -38 13 9
v -37 13 9
v -36 13 9
v -38 13 8
v -37 13 8
v -47 11 27
v -27 11 27
v -46 11 25
v -45 11 25
v -39 11 25
v -38 11 25
v -46 11 24
v -45 11 24
v -39 11 24
v -38 11 24
v -44 11 23
v -43 11 23
v -32 11 23
v -31 11 23
v -44 11 22
v -43 11 22
v -32 11 22
v -31 11 22
v -39 11 21
v -38 11 21
v -39 11 20
v -38 11 20
v -45 11 19
v -44 11 19
v -31 11 19
v -30 11 19
v -45 11 18
v -44 11 18
v -31 11 18
v -30 11 18
v -37 11 17
v -36 11 17
v -37 11 16
v -36 11 16
v -37 11 15
v -36 11 15
v -37 11 14
v -36 11 14
v -43 11 13
v -42 11 13
v -43 11 12
v -42 11 12
v -32 11 12
v -31 11 12
v -43 11 11
v -42 11 11
v -32 11 11
v -31 11 11
v -43 11 10
v -42 11 10
v -38 11 10
v -37 11 10
v -30 11 10
v -29 11 10
v -38 11 9
v -37 11 9
v -30 11 9
v -29 11 9
v -47 11 7
v -27 11 7
v -44 14 24
v -43 14 24
v -32 14 24
v -31 14 24
v -45 14 23
v -44 14 23
v -43 14 23
v -42 14 23
v -33 14 23
v -32 14 23
v -31 14 23
v -30 14 23
v -45 14 22
v -44 14 22
v -43 14 22
v -42 14 22
v -39 14 22
v -38 14 22
v -33 14 22
v -32 14 22
v -31 14 22
v -30 14 22
v -44 14 21
v -43 14 21
v -40 14 21
v -39 14 21
v -38 14 21
v -37 14 21
v -32 14 21
v -31 14 21
v -40 14 20
v -39 14 20
v -38 14 20
v -37 14 20
v -39 14 19
v -38 14 19
v -37 14 16
v -36 14 16
v -38 14 15
v -37 14 15
v -36 14 15
v -35 14 15
v -43 14 14
v -42 14 14
v -38 14 14
v -37 14 14
v -36 14 14
v -35 14 14
v -44 14 13
v -43 14 13
v -42 14 13
v -41 14 13
v -37 14 13
v -36 14 13
v -32 14 13
v -31 14 13
v -44 14 12
v -43 14 12
v -42 14 12
v -41 14 12
v -33 14 12
v -32 14 12
v -31 14 12
v -30 14 12
v -43 14 11
v -42 14 11
v -38 14 11
v -37 14 11
v -33 14 11
v -32 14 11
v -31 14 11
v -30 14 11
v -39 14 10
v -38 14 10
v -37 14 10
v -36 14 10
v -32 14 10
v -31 14 10
v -39 14 9
v -38 14 9
v -37 14 9
v -36 14 9
v -38 14 8
v -37 14 8

# faces
f 3/3/1 2/3/1 1/3/1
f 4/3/1 2/3/1 3/3/1
f 5/2/1 4/2/1 3/2/1
f 6/2/1 4/2/1 5/2/1
f 7/1/1 6/1/1 5/1/1
f 8/1/1 6/1/1 7/1/1
f 9/7/1 8/7/1 7/7/1
f 10/7/1 8/7/1 9/7/1
f 13/9/1 12/9/1 11/9/1
f 14/9/1 12/9/1 13/9/1
f 18/8/1 16/8/1 15/8/1
f 19/8/1 16/8/1 18/8/1
f 23/9/1 18/9/1 17/9/1
f 24/9/1 18/9/1 23/9/1
f 25/9/1 20/9/1 19/9/1
f 26/9/1 20/9/1 25/9/1
f 27/9/1 22/9/1 21/9/1
f 28/9/1 22/9/1 27/9/1
f 32/8/1 30/8/1 29/8/1
f 33/8/1 30/8/1 32/8/1
f 35/9/1 32/9/1 31/9/1
f 36/9/1 32/9/1 35/9/1
f 37/9/1 34/9/1 33/9/1
f 38/9/1 34/9/1 37/9/1
f 41/9/1 40/9/1 39/9/1
f 42/9/1 40/9/1 41/9/1
f 46/8/1 44/8/1 43/8/1
f 47/8/1 44/8/1 46/8/1
f 51/9/1 46/9/1 45/9/1
f 52/9/1 46/9/1 51/9/1
f 53/9/1 48/9/1 47/9/1
f 54/9/1 48/9/1 53/9/1
f 55/9/1 50/9/1 49/9/1
f 56/9/1 50/9/1 55/9/1
f 62/8/1 58/8/1 57/8/1
f 63/8/1 58/8/1 62/8/1
f 65/9/1 60/9/1 59/9/1
f 66/9/1 60/9/1 65/9/1
f 67/9/1 62/9/1 61/9/1
f 68/9/1 62/9/1 67/9/1
f 69/9/1 64/9/1 63/9/1
f 70/9/1 64/9/1 69/9/1
f 74/8/1 72/8/1 71/8/1
f 75/8/1 72/8/1 74/8/1
f 77/9/1 74/9/1 73/9/1
f 78/9/1 74/9/1 77/9/1
f 79/9/1 76/9/1 75/9/1
f 80/9/1 76/9/1 79/9/1
f 85/9/1 82/9/1 81/9/1
f 86/9/1 82/9/1 85/9/1
f 87/9/1 84/9/1 83/9/1
f 88/9/1 84/9/1 87/9/1
f 94/8/1 90/8/1 89/8/1
f 95/8/1 90/8/1 94/8/1
f 98/8/1 92/8/1 91/8/1
f 99/8/1 92/8/1 98/8/1
f 101/9/1 94/9/1 93/9/1
f 102/9/1 94/9/1 101/9/1
f 103/9/1 96/9/1 95/9/1
f 104/9/1 96/9/1 103/9/1
f 105/9/1 98/9/1 97/9/1
f 106/9/1 98/9/1 105/9/1
f 107/9/1 100/9/1 99/9/1
f 108/9/1 100/9/1 107/9/1
f 109/8/2 110/8/2 112/8/2
f 112/8/2 110/8/2 113/8/2
f 111/9/2 112/9/2 115/9/2
f 115/9/2 112/9/2 116/9/2
f 113/9/2 114/9/2 117/9/2
f 117/9/2 114/9/2 118/9/2
f 119/8/2 120/8/2 124/8/2
f 124/8/2 120/8/2 125/8/2
f 121/9/2 122/9/2 127/9/2
f 127/9/2 122/9/2 128/9/2
f 123/9/2 124/9/2 129/9/2
f 129/9/2 124/9/2 130/9/2
f 125/9/2 126/9/2 131/9/2
f 131/9/2 126/9/2 132/9/2
f 133/9/2 134/9/2 135/9/2
f 135/9/2 134/9/2 136/9/2
f 137/8/2 138/8/2 140/8/2
f 140/8/2 138/8/2 141/8/2
f 139/9/2 140/9/2 143/9/2
f 143/9/2 140/9/2 144/9/2
f 141/9/2 142/9/2 145/9/2
f 145/9/2 142/9/2 146/9/2
f 147/8/2 148/8/2 152/8/2
f 152/8/2 148/8/2 153/8/2
f 149/9/2 150/9/2 155/9/2
f 155/9/2 150/9/2 156/9/2
f 151/9/2 152/9/2 157/9/2
f 157/9/2 152/9/2 158/9/2
f 153/9/2 154/9/2 159/9/2
f 159/9/2 154/9/2 160/9/2
f 161/8/2 162/8/2 164/8/2
f 164/8/2 162/8/2 165/8/2
f 163/9/2 164/9/2 169/9/2
f 169/9/2 164/9/2 170/9/2
f 165/9/2 166/9/2 171/9/2
f 171/9/2 166/9/2 172/9/2
f 167/9/2 168/9/2 173/9/2
f 173/9/2 168/9/2 174/9/2
f 175/9/2 176/9/2 177/9/2
f 177/9/2 176/9/2 178/9/2
f 179/8/2 180/8/2 184/8/2
f 184/8/2 180/8/2 185/8/2
f 181/8/2 182/8/2 188/8/2
f 188/8/2 182/8/2 189/8/2
f 183/9/2 184/9/2 191/9/2
f 191/9/2 184/9/2 192/9/2
f 185/9/2 186/9/2 193/9/2
f 193/9/2 186/9/2 194/9/2
f 187/9/2 188/9/2 195/9/2
f 195/9/2 188/9/2 196/9/2
f 189/9/2 190/9/2 197/9/2
f 197/9/2 190/9/2 198/9/2
f 199/9/2 200/9/2 203/9/2
f 203/9/2 200/9/2 204/9/2
f 201/9/2 202/9/2 205/9/2
f 205/9/2 202/9/2 206/9/2
f 207/3/2 208/3/2 209/3/2
f 209/3/2 208/3/2 210/3/2
f 209/2/2 210/2/2 211/2/2
f 211/2/2 210/2/2 212/2/2
f 211/1/2 212/1/2 213/1/2
f 213/1/2 212/1/2 214/1/2
f 213/7/2 214/7/2 215/7/2
f 215/7/2 214/7/2 216/7/2
f 222/3/3 218/3/3 217/3/3
f 223/2/3 219/2/3 218/2/3
f 223/3/3 218/3/3 222/3/3
f 224/1/3 220/1/3 219/1/3
f 224/2/3 219/2/3 223/2/3
f 225/7/3 221/7/3 220/7/3
f 225/1/3 220/1/3 224/1/3
f 226/7/3 221/7/3 225/7/3
f 229/9/3 228/9/3 227/9/3
f 230/9/3 228/9/3 229/9/3
f 233/9/3 232/9/3 231/9/3
f 234/9/3 232/9/3 233/9/3
f 238/9/3 236/9/3 235/9/3
f 239/9/3 236/9/3 238/9/3
f 240/8/3 238/8/3 237/8/3
f 241/8/3 238/8/3 240/8/3
f 243/9/3 242/9/3 241/9/3
f 244/9/3 242/9/3 243/9/3
f 248/9/3 246/9/3 245/9/3
f 249/9/3 246/9/3 248/9/3
f 250/8/3 248/8/3 247/8/3
f 251/8/3 248/8/3 250/8/3
f 253/9/3 252/9/3 251/9/3
f 254/9/3 252/9/3 253/9/3
f 257/9/3 256/9/3 255/9/3
f 258/9/3 256/9/3 257/9/3
f 262/9/3 260/9/3 259/9/3
f 263/9/3 260/9/3 262/9/3
f 264/8/3 262/8/3 261/8/3
f 265/8/3 262/8/3 264/8/3
f 267/9/3 266/9/3 265/9/3
f 268/9/3 266/9/3 267/9/3
f 271/9/3 270/9/3 269/9/3
f 272/9/3 270/9/3 271/9/3
f 276/9/3 274/9/3 273/9/3
f 277/9/3 274/9/3 276/9/3
f 278/8/3 276/8/3 275/8/3
f 279/8/3 276/8/3 278/8/3
f 281/9/3 280/9/3 279/9/3
f 282/9/3 280/9/3 281/9/3
f 285/9/3 284/9/3 283/9/3
f 286/9/3 284/9/3 285/9/3
f 290/9/3 288/9/3 287/9/3
f 291/9/3 288/9/3 290/9/3
f 292/8/3 290/8/3 289/8/3
f 293/8/3 290/8/3 292/8/3
f 295/9/3 294/9/3 293/9/3
f 296/9/3 294/9/3 295/9/3
f 299/9/3 298/9/3 297/9/3
f 300/9/3 298/9/3 299/9/3
f 304/9/3 302/9/3 301/9/3
f 305/9/3 302/9/3 304/9/3
f 306/8/3 304/8/3 303/8/3
f 307/8/3 304/8/3 306/8/3
f 309/9/3 308/9/3 307/9/3
f 310/9/3 308/9/3 309/9/3
f 313/9/3 312/9/3 311/9/3
f 314/9/3 312/9/3 313/9/3
f 318/9/3 316/9/3 315/9/3
f 319/9/3 316/9/3 318/9/3
f 320/8/3 318/8/3 317/8/3
f 321/8/3 318/8/3 320/8/3
f 323/9/3 322/9/3 321/9/3
f 324/9/3 322/9/3 323/9/3
f 325/9/4 326/9/4 328/9/4
f 328/9/4 326/9/4 329/9/4
f 327/8/4 328/8/4 330/8/4
f 330/8/4 328/8/4 331/8/4
f 331/9/4 332/9/4 333/9/4
f 333/9/4 332/9/4 334/9/4
f 335/9/4 336/9/4 338/9/4
f 338/9/4 336/9/4 339/9/4
f 337/8/4 338/8/4 340/8/4
f 340/8/4 338/8/4 341/8/4
f 341/9/4 342/9/4 343/9/4
f 343/9/4 342/9/4 344/9/4
f 345/9/4 346/9/4 347/9/4
f 347/9/4 346/9/4 348/9/4
f 349/9/4 350/9/4 351/9/4
f 351/9/4 350/9/4 352/9/4
f 353/9/4 354/9/4 356/9/4
f 356/9/4 354/9/4 357/9/4
f 355/8/4 356/8/4 358/8/4
f 358/8/4 356/8/4 359/8/4
f 359/9/4 360/9/4 361/9/4
f 361/9/4 360/9/4 362/9/4
f 363/9/4 364/9/4 365/9/4
f 365/9/4 364/9/4 366/9/4
f 367/9/4 368/9/4 370/9/4
f 370/9/4 368/9/4 371/9/4
f 369/8/4 370/8/4 372/8/4
f 372/8/4 370/8/4 373/8/4
f 373/9/4 374/9/4 375/9/4
f 375/9/4 374/9/4 376/9/4
f 377/9/4 378/9/4 379/9/4
f 379/9/4 378/9/4 380/9/4
f 381/9/4 382/9/4 384/9/4
f 384/9/4 382/9/4 385/9/4
f 383/8/4 384/8/4 386/8/4
f 386/8/4 384/8/4 387/8/4
f 387/9/4 388/9/4 389/9/4
f 389/9/4 388/9/4 390/9/4
f 391/9/4 392/9/4 393/9/4
f 393/9/4 392/9/4 394/9/4
f 395/9/4 396/9/4 398/9/4
f 398/9/4 396/9/4 399/9/4
f 397/8/4 398/8/4 400/8/4
f 400/8/4 398/8/4 401/8/4
f 401/9/4 402/9/4 403/9/4
f 403/9/4 402/9/4 404/9/4
f 405/9/4 406/9/4 407/9/4
f 407/9/4 406/9/4 408/9/4
f 409/9/4 410/9/4 412/9/4
f 412/9/4 410/9/4 413/9/4
f 411/8/4 412/8/4 414/8/4
f 414/8/4 412/8/4 415/8/4
f 415/9/4 416/9/4 417/9/4
f 417/9/4 416/9/4 418/9/4
f 419/9/4 420/9/4 421/9/4
f 421/9/4 420/9/4 422/9/4
f 423/3/4 424/3/4 428/3/4
f 424/2/4 425/2/4 429/2/4
f 428/3/4 424/3/4 429/3/4
f 425/1/4 426/1/4 430/1/4
f 429/2/4 425/2/4 430/2/4
f 426/7/4 427/7/4 431/7/4
f 430/1/4 426/1/4 431/1/4
f 431/7/4 427/7/4 432/7/4
f 435/3/5 434/3/5 433/3/5
f 436/3/5 434/3/5 435/3/5
f 442/9/5 438/9/5 437/9/5
f 443/9/5 438/9/5 442/9/5
f 446/9/5 440/9/5 439/9/5
f 447/9/5 440/9/5 446/9/5
f 449/9/5 442/9/5 441/9/5
f 450/9/5 442/9/5 449/9/5
f 451/9/5 444/9/5 443/9/5
f 452/9/5 444/9/5 451/9/5
f 455/9/5 446/9/5 445/9/5
f 456/9/5 446/9/5 455/9/5
f 457/9/5 448/9/5 447/9/5
f 458/9/5 448/9/5 457/9/5
f 459/9/5 451/9/5 450/9/5
f 460/9/5 451/9/5 459/9/5
f 462/9/5 454/9/5 453/9/5
f 463/9/5 454/9/5 462/9/5
f 465/9/5 457/9/5 456/9/5
f 466/9/5 457/9/5 465/9/5
f 467/9/5 462/9/5 461/9/5
f 468/9/5 462/9/5 467/9/5
f 469/9/5 464/9/5 463/9/5
f 470/9/5 464/9/5 469/9/5
f 471/9/5 469/9/5 468/9/5
f 472/9/5 469/9/5 471/9/5
f 476/9/5 474/9/5 473/9/5
f 477/9/5 474/9/5 476/9/5
f 481/9/5 476/9/5 475/9/5
f 482/9/5 476/9/5 481/9/5
f 483/9/5 478/9/5 477/9/5
f 484/9/5 478/9/5 483/9/5
f 486/9/5 480/9/5 479/9/5
f 487/9/5 480/9/5 486/9/5
f 489/9/5 483/9/5 482/9/5
f 490/9/5 483/9/5 489/9/5
f 493/9/5 486/9/5 485/9/5
f 494/9/5 486/9/5 493/9/5
f 495/9/5 488/9/5 487/9/5
f 496/9/5 488/9/5 495/9/5
f 498/9/5 492/9/5 491/9/5
f 499/9/5 492/9/5 498/9/5
f 501/9/5 495/9/5 494/9/5
f 502/9/5 495/9/5 501/9/5
f 505/9/5 498/9/5 497/9/5
f 506/9/5 498/9/5 505/9/5
f 507/9/5 500/9/5 499/9/5
f 508/9/5 500/9/5 507/9/5
f 510/9/5 504/9/5 503/9/5
f 511/9/5 504/9/5 510/9/5
f 513/9/5 507/9/5 506/9/5
f 514/9/5 507/9/5 513/9/5
f 515/9/5 510/9/5 509/9/5
f 516/9/5 510/9/5 515/9/5
f 517/9/5 512/9/5 511/9/5
f 518/9/5 512/9/5 517/9/5
f 519/9/5 517/9/5 516/9/5
f 520/9/5 517/9/5 519/9/5
f 521/7/6 522/7/6 523/7/6
f 523/7/6 522/7/6 524/7/6
f 524/7/6 522/7/6 525/7/6
f 525/7/6 522/7/6 526/7/6
f 521/7/6 523/7/6 527/7/6
f 523/6/6 524/6/6 527/6/6
f 524/7/6 525/7/6 528/7/6
f 527/6/6 524/6/6 528/6/6
f 525/5/6 526/5/6 529/5/6
f 528/7/6 525/7/6 529/7/6
f 526/7/6 522/7/6 530/7/6
f 529/5/6 526/5/6 530/5/6
f 528/7/6 529/7/6 531/7/6
f 527/7/6 528/7/6 531/7/6
f 529/7/6 530/7/6 531/7/6
f 531/7/6 530/7/6 532/7/6
f 530/7/6 522/7/6 533/7/6
f 532/7/6 530/7/6 533/7/6
f 533/7/6 522/7/6 534/7/6
f 527/7/6 531/7/6 535/7/6
f 532/7/6 533/7/6 536/7/6
f 536/7/6 533/7/6 537/7/6
f 534/7/6 522/7/6 538/7/6
f 536/7/6 537/7/6 539/7/6
f 537/7/6 538/7/6 539/7/6
f 535/7/6 536/7/6 539/7/6
f 539/7/6 538/7/6 540/7/6
f 535/7/6 539/7/6 541/7/6
f 540/7/6 538/7/6 542/7/6
f 527/7/6 535/7/6 543/7/6
f 541/7/6 542/7/6 543/7/6
f 535/7/6 541/7/6 543/7/6
f 543/7/6 542/7/6 544/7/6
f 538/7/6 522/7/6 545/7/6
f 544/7/6 542/7/6 545/7/6
f 542/7/6 538/7/6 545/7/6
f 545/7/6 522/7/6 546/7/6
f 543/5/6 544/5/6 547/5/6
f 527/7/6 543/7/6 547/7/6
f 544/7/6 545/7/6 548/7/6
f 547/5/6 544/5/6 548/5/6
f 545/6/6 546/6/6 549/6/6
f 548/7/6 545/7/6 549/7/6
f 546/7/6 522/7/6 550/7/6
f 549/6/6 546/6/6 550/6/6
f 548/7/6 549/7/6 551/7/6
f 547/7/6 548/7/6 551/7/6
f 549/7/6 550/7/6 551/7/6
f 551/7/6 550/7/6 552/7/6
f 547/7/6 551/7/6 553/7/6
f 551/5/6 552/5/6 553/5/6
f 552/7/6 550/7/6 554/7/6
f 553/5/6 552/5/6 554/5/6
f 547/7/6 553/7/6 555/7/6
f 553/7/6 554/7/6 555/7/6
f 554/7/6 550/7/6 556/7/6
f 555/7/6 554/7/6 556/7/6
f 547/7/6 555/7/6 557/7/6
f 556/7/6 550/7/6 558/7/6
f 547/7/6 557/7/6 559/7/6
f 557/7/6 558/7/6 559/7/6
f 559/7/6 558/7/6 560/7/6
f 547/7/6 559/7/6 561/7/6
f 560/7/6 558/7/6 562/7/6
f 558/7/6 550/7/6 563/7/6
f 562/7/6 558/7/6 563/7/6
f 563/7/6 550/7/6 564/7/6
f 561/7/6 562/7/6 565/7/6
f 547/7/6 561/7/6 565/7/6
f 562/7/6 563/7/6 565/7/6
f 565/7/6 563/7/6 566/7/6
f 566/7/6 563/7/6 567/7/6
f 564/7/6 550/7/6 568/7/6
f 547/7/6 565/7/6 569/7/6
f 565/6/6 566/6/6 569/6/6
f 566/7/6 567/7/6 570/7/6
f 569/6/6 566/6/6 570/6/6
f 567/7/6 568/7/6 570/7/6
f 570/7/6 568/7/6 571/7/6
f 571/7/6 568/7/6 572/7/6
f 550/7/6 522/7/6 573/7/6
f 572/7/6 568/7/6 573/7/6
f 568/7/6 550/7/6 573/7/6
f 573/7/6 522/7/6 574/7/6
f 570/7/6 571/7/6 575/7/6
f 569/7/6 570/7/6 575/7/6
f 572/7/6 573/7/6 576/7/6
f 573/5/6 574/5/6 577/5/6
f 576/7/6 573/7/6 577/7/6
f 574/7/6 522/7/6 578/7/6
f 577/5/6 574/5/6 578/5/6
f 576/7/6 577/7/6 579/7/6
f 521/7/6 527/7/6 579/7/6
f 577/7/6 578/7/6 579/7/6
f 527/7/6 547/7/6 579/7/6
f 569/7/6 575/7/6 579/7/6
f 575/7/6 576/7/6 579/7/6
f 547/7/6 569/7/6 579/7/6
f 578/7/6 522/7/6 580/7/6
f 579/7/6 578/7/6 580/7/6
f 581/9/6 582/9/6 586/9/6
f 586/9/6 582/9/6 587/9/6
f 583/9/6 584/9/6 590/9/6
f 590/9/6 584/9/6 591/9/6
f 585/9/6 586/9/6 593/9/6
f 586/4/6 587/4/6 594/4/6
f 593/9/6 586/9/6 594/9/6
f 587/9/6 588/9/6 595/9/6
f 594/4/6 587/4/6 595/4/6
f 595/9/6 588/9/6 596/9/6
f 589/9/6 590/9/6 599/9/6
f 590/4/6 591/4/6 600/4/6
f 599/9/6 590/9/6 600/9/6
f 591/9/6 592/9/6 601/9/6
f 600/4/6 591/4/6 601/4/6
f 601/9/6 592/9/6 602/9/6
f 594/9/6 595/9/6 603/9/6
f 603/9/6 595/9/6 604/9/6
f 597/9/6 598/9/6 606/9/6
f 606/9/6 598/9/6 607/9/6
f 600/9/6 601/9/6 609/9/6
f 609/9/6 601/9/6 610/9/6
f 605/9/6 606/9/6 611/9/6
f 606/4/6 607/4/6 612/4/6
f 611/9/6 606/9/6 612/9/6
f 607/9/6 608/9/6 613/9/6
f 612/4/6 607/4/6 613/4/6
f 613/9/6 608/9/6 614/9/6
f 612/9/6 613/9/6 615/9/6
f 615/9/6 613/9/6 616/9/6
f 617/9/6 618/9/6 620/9/6
f 620/9/6 618/9/6 621/9/6
f 619/9/6 620/9/6 625/9/6
f 620/4/6 621/4/6 626/4/6
f 625/9/6 620/9/6 626/9/6
f 621/9/6 622/9/6 627/9/6
f 626/4/6 621/4/6 627/4/6
f 627/9/6 622/9/6 628/9/6
f 623/9/6 624/9/6 630/9/6
f 630/9/6 624/9/6 631/9/6
f 626/9/6 627/9/6 633/9/6
f 633/9/6 627/9/6 634/9/6
f 629/9/6 630/9/6 637/9/6
f 630/4/6 631/4/6 638/4/6
f 637/9/6 630/9/6 638/9/6
f 631/9/6 632/9/6 639/9/6
f 638/4/6 631/4/6 639/4/6
f 639/9/6 632/9/6 640/9/6
f 635/9/6 636/9/6 642/9/6
f 642/9/6 636/9/6 643/9/6
f 638/9/6 639/9/6 645/9/6
f 645/9/6 639/9/6 646/9/6
f 641/9/6 642/9/6 649/9/6
f 642/4/6 643/4/6 650/4/6
f 649/9/6 642/9/6 650/9/6
f 643/9/6 644/9/6 651/9/6
f 650/4/6 643/4/6 651/4/6
f 651/9/6 644/9/6 652/9/6
f 647/9/6 648/9/6 654/9/6
f 654/9/6 648/9/6 655/9/6
f 650/9/6 651/9/6 657/9/6
f 657/9/6 651/9/6 658/9/6
f 653/9/6 654/9/6 659/9/6
f 654/4/6 655/4/6 660/4/6
f 659/9/6 654/9/6 660/9/6
f 655/9/6 656/9/6 661/9/6
f 660/4/6 655/4/6 661/4/6
f 661/9/6 656/9/6 662/9/6
f 660/9/6 661/9/6 663/9/6
f 663/9/6 661/9/6 664/9/6
