# MagicaVoxel @ Ephtracy

# group
g Grass

# material
mtllib Grass.mtl
usemtl palette

# normals
vn -1 0 0
vn 1 0 0
vn 0 0 1
vn 0 0 -1
vn 0 -1 0
vn 0 1 0

# texcoords
vt 0.271484 0.5
vt 0.279297 0.5
vt 0.310547 0.5
vt 0.556641 0.5

# verts
v -25 0 -17
v -25 0 -37
v -25 3 -17
v -25 3 -37
v -25 6 -17
v -25 6 -37
v -25 10 -17
v -25 10 -37
v -25 11 -17
v -25 11 -37
v -5 0 -17
v -5 0 -37
v -5 3 -17
v -5 3 -37
v -5 6 -17
v -5 6 -37
v -5 10 -17
v -5 10 -37
v -5 11 -17
v -5 11 -37
v -25 0 -17
v -25 3 -17
v -25 6 -17
v -25 10 -17
v -25 11 -17
v -5 0 -17
v -5 3 -17
v -5 6 -17
v -5 10 -17
v -5 11 -17
v -25 0 -37
v -25 3 -37
v -25 6 -37
v -25 10 -37
v -25 11 -37
v -5 0 -37
v -5 3 -37
v -5 6 -37
v -5 10 -37
v -5 11 -37
v -25 0 -17
v -5 0 -17
v -25 0 -37
v -5 0 -37
v -25 11 -17
v -5 11 -17
v -25 11 -37
v -5 11 -37

# faces
f 3/3/1 2/3/1 1/3/1
f 4/3/1 2/3/1 3/3/1
f 5/2/1 4/2/1 3/2/1
f 6/2/1 4/2/1 5/2/1
f 7/1/1 6/1/1 5/1/1
f 8/1/1 6/1/1 7/1/1
f 9/4/1 8/4/1 7/4/1
f 10/4/1 8/4/1 9/4/1
f 11/3/2 12/3/2 13/3/2
f 13/3/2 12/3/2 14/3/2
f 13/2/2 14/2/2 15/2/2
f 15/2/2 14/2/2 16/2/2
f 15/1/2 16/1/2 17/1/2
f 17/1/2 16/1/2 18/1/2
f 17/4/2 18/4/2 19/4/2
f 19/4/2 18/4/2 20/4/2
f 26/3/3 22/3/3 21/3/3
f 27/2/3 23/2/3 22/2/3
f 27/3/3 22/3/3 26/3/3
f 28/1/3 24/1/3 23/1/3
f 28/2/3 23/2/3 27/2/3
f 29/4/3 25/4/3 24/4/3
f 29/1/3 24/1/3 28/1/3
f 30/4/3 25/4/3 29/4/3
f 31/3/4 32/3/4 36/3/4
f 32/2/4 33/2/4 37/2/4
f 36/3/4 32/3/4 37/3/4
f 33/1/4 34/1/4 38/1/4
f 37/2/4 33/2/4 38/2/4
f 34/4/4 35/4/4 39/4/4
f 38/1/4 34/1/4 39/1/4
f 39/4/4 35/4/4 40/4/4
f 43/3/5 42/3/5 41/3/5
f 44/3/5 42/3/5 43/3/5
f 45/4/6 46/4/6 47/4/6
f 47/4/6 46/4/6 48/4/6
