# MagicaVoxel @ Ephtracy

# group
g Road_2

# material
mtllib Road_2.mtl
usemtl palette

# normals
vn -1 0 0
vn 1 0 0
vn 0 0 1
vn 0 0 -1
vn 0 -1 0
vn 0 1 0

# texcoords
vt 0.271484 0.5
vt 0.279297 0.5
vt 0.310547 0.5
vt 0.322266 0.5
vt 0.556641 0.5

# verts
v 19 0 49
v 19 0 29
v 19 3 49
v 19 3 29
v 19 6 49
v 19 6 29
v 19 10 49
v 19 10 29
v 19 11 49
v 19 11 29
v 29 10 49
v 29 10 39
v 29 11 49
v 29 11 39
v 39 0 49
v 39 0 29
v 39 3 49
v 39 3 29
v 39 6 49
v 39 6 29
v 39 9 49
v 39 9 40
v 39 10 49
v 39 10 40
v 39 10 39
v 39 10 29
v 39 11 39
v 39 11 29
v 19 0 49
v 19 3 49
v 19 6 49
v 19 10 49
v 19 11 49
v 29 10 49
v 29 11 49
v 30 9 49
v 30 10 49
v 39 0 49
v 39 3 49
v 39 6 49
v 39 9 49
v 39 10 49
v 29 10 39
v 29 11 39
v 39 10 39
v 39 11 39
v 19 0 29
v 19 3 29
v 19 6 29
v 19 10 29
v 19 11 29
v 39 0 29
v 39 3 29
v 39 6 29
v 39 10 29
v 39 11 29
v 19 0 49
v 39 0 49
v 19 0 29
v 39 0 29
v 29 10 49
v 30 10 49
v 39 10 49
v 30 10 40
v 39 10 40
v 29 10 39
v 39 10 39
v 19 11 49
v 29 11 49
v 29 11 39
v 39 11 39
v 19 11 29
v 39 11 29

# faces
f 3/3/1 2/3/1 1/3/1
f 4/3/1 2/3/1 3/3/1
f 5/2/1 4/2/1 3/2/1
f 6/2/1 4/2/1 5/2/1
f 7/1/1 6/1/1 5/1/1
f 8/1/1 6/1/1 7/1/1
f 9/5/1 8/5/1 7/5/1
f 10/5/1 8/5/1 9/5/1
f 11/5/2 12/5/2 13/5/2
f 13/5/2 12/5/2 14/5/2
f 15/3/2 16/3/2 17/3/2
f 17/3/2 16/3/2 18/3/2
f 17/2/2 18/2/2 19/2/2
f 19/2/2 18/2/2 20/2/2
f 19/1/2 20/1/2 21/1/2
f 21/1/2 20/1/2 22/1/2
f 21/4/2 22/4/2 23/4/2
f 22/1/2 20/1/2 24/1/2
f 23/4/2 22/4/2 24/4/2
f 24/1/2 20/1/2 25/1/2
f 25/1/2 20/1/2 26/1/2
f 25/5/2 26/5/2 27/5/2
f 27/5/2 26/5/2 28/5/2
f 34/1/3 32/1/3 31/1/3
f 34/5/3 33/5/3 32/5/3
f 35/5/3 33/5/3 34/5/3
f 36/1/3 34/1/3 31/1/3
f 37/1/3 34/1/3 36/1/3
f 38/3/3 30/3/3 29/3/3
f 39/2/3 31/2/3 30/2/3
f 39/3/3 30/3/3 38/3/3
f 40/1/3 36/1/3 31/1/3
f 40/2/3 31/2/3 39/2/3
f 41/4/3 37/4/3 36/4/3
f 41/1/3 36/1/3 40/1/3
f 42/4/3 37/4/3 41/4/3
f 45/5/3 44/5/3 43/5/3
f 46/5/3 44/5/3 45/5/3
f 47/3/4 48/3/4 52/3/4
f 48/2/4 49/2/4 53/2/4
f 52/3/4 48/3/4 53/3/4
f 49/1/4 50/1/4 54/1/4
f 53/2/4 49/2/4 54/2/4
f 50/5/4 51/5/4 55/5/4
f 54/1/4 50/1/4 55/1/4
f 55/5/4 51/5/4 56/5/4
f 59/3/5 58/3/5 57/3/5
f 60/3/5 58/3/5 59/3/5
f 61/1/6 62/1/6 64/1/6
f 62/4/6 63/4/6 64/4/6
f 64/4/6 63/4/6 65/4/6
f 61/1/6 64/1/6 66/1/6
f 64/1/6 65/1/6 66/1/6
f 66/1/6 65/1/6 67/1/6
f 68/5/6 69/5/6 70/5/6
f 68/5/6 70/5/6 72/5/6
f 70/5/6 71/5/6 72/5/6
f 72/5/6 71/5/6 73/5/6
