# MagicaVoxel @ Ephtracy

# group
g Water_3

# material
mtllib Water_3.mtl
usemtl palette

# normals
vn -1 0 0
vn 1 0 0
vn 0 0 1
vn 0 0 -1
vn 0 -1 0
vn 0 1 0

# texcoords
vt 0.271484 0.5
vt 0.279297 0.5
vt 0.310547 0.5
vt 0.416016 0.5
vt 0.556641 0.5
vt 0.677734 0.5
vt 0.716797 0.5

# verts
v -47 0 5
v -47 0 -15
v -47 3 5
v -47 3 -15
v -47 6 5
v -47 6 -15
v -47 10 5
v -47 10 -15
v -47 11 5
v -47 11 -15
v -38 10 5
v -38 10 -6
v -38 11 5
v -38 11 -6
v -36 9 5
v -36 9 -4
v -36 10 5
v -36 10 -4
v -27 0 5
v -27 0 -15
v -27 1 5
v -27 1 3
v -27 2 3
v -27 2 2
v -27 3 2
v -27 3 1
v -27 3 -15
v -27 4 1
v -27 4 -0
v -27 5 -0
v -27 5 -2
v -27 6 -0
v -27 6 -2
v -27 6 -3
v -27 6 -15
v -27 7 -3
v -27 7 -5
v -27 8 -5
v -27 8 -7
v -27 9 5
v -27 9 1
v -27 9 -2
v -27 9 -4
v -27 9 -7
v -27 9 -9
v -27 10 -4
v -27 10 -6
v -27 10 -9
v -27 10 -15
v -27 11 -6
v -27 11 -9
v -27 11 -15
v -47 0 5
v -47 3 5
v -47 6 5
v -47 10 5
v -47 11 5
v -41 7 5
v -41 10 5
v -41 11 5
v -38 10 5
v -38 11 5
v -36 9 5
v -36 10 5
v -35 6 5
v -35 7 5
v -34 5 5
v -34 6 5
v -34 9 5
v -32 4 5
v -32 5 5
v -32 6 5
v -31 3 5
v -31 4 5
v -31 9 5
v -30 2 5
v -30 3 5
v -29 1 5
v -29 2 5
v -27 0 5
v -27 1 5
v -27 9 5
v -36 9 -4
v -36 10 -4
v -27 9 -4
v -27 10 -4
v -38 10 -6
v -38 11 -6
v -27 10 -6
v -27 11 -6
v -47 0 -15
v -47 3 -15
v -47 6 -15
v -47 10 -15
v -47 11 -15
v -27 0 -15
v -27 3 -15
v -27 6 -15
v -27 10 -15
v -27 11 -15
v -47 0 5
v -27 0 5
v -47 0 -15
v -27 0 -15
v -36 9 5
v -34 9 5
v -31 9 5
v -27 9 5
v -31 9 1
v -27 9 1
v -34 9 -2
v -27 9 -2
v -36 9 -4
v -27 9 -4
v -38 10 5
v -36 10 5
v -36 10 -4
v -27 10 -4
v -38 10 -6
v -27 10 -6
v -47 11 5
v -41 11 5
v -38 11 5
v -38 11 -6
v -27 11 -6
v -41 11 -9
v -27 11 -9
v -47 11 -15
v -27 11 -15

# faces
f 3/3/1 2/3/1 1/3/1
f 4/3/1 2/3/1 3/3/1
f 5/2/1 4/2/1 3/2/1
f 6/2/1 4/2/1 5/2/1
f 7/1/1 6/1/1 5/1/1
f 8/1/1 6/1/1 7/1/1
f 9/5/1 8/5/1 7/5/1
f 10/5/1 8/5/1 9/5/1
f 11/4/2 12/4/2 13/4/2
f 13/4/2 12/4/2 14/4/2
f 15/4/2 16/4/2 17/4/2
f 17/4/2 16/4/2 18/4/2
f 19/3/2 20/3/2 21/3/2
f 21/3/2 20/3/2 22/3/2
f 21/7/2 22/7/2 23/7/2
f 22/3/2 20/3/2 23/3/2
f 23/3/2 20/3/2 24/3/2
f 23/7/2 24/7/2 25/7/2
f 24/3/2 20/3/2 25/3/2
f 25/3/2 20/3/2 26/3/2
f 26/3/2 20/3/2 27/3/2
f 25/7/2 26/7/2 28/7/2
f 26/2/2 27/2/2 28/2/2
f 28/2/2 27/2/2 29/2/2
f 28/6/2 29/6/2 30/6/2
f 29/2/2 27/2/2 30/2/2
f 30/2/2 27/2/2 31/2/2
f 28/6/2 30/6/2 32/6/2
f 30/4/2 31/4/2 32/4/2
f 31/2/2 27/2/2 33/2/2
f 32/4/2 31/4/2 33/4/2
f 33/2/2 27/2/2 34/2/2
f 34/2/2 27/2/2 35/2/2
f 33/4/2 34/4/2 36/4/2
f 34/1/2 35/1/2 36/1/2
f 36/1/2 35/1/2 37/1/2
f 36/4/2 37/4/2 38/4/2
f 37/1/2 35/1/2 38/1/2
f 38/1/2 35/1/2 39/1/2
f 21/7/2 23/7/2 40/7/2
f 23/7/2 25/7/2 40/7/2
f 25/7/2 28/7/2 40/7/2
f 28/6/2 32/6/2 41/6/2
f 40/7/2 28/7/2 41/7/2
f 32/6/2 33/6/2 41/6/2
f 38/4/2 39/4/2 42/4/2
f 41/6/2 33/6/2 42/6/2
f 36/4/2 38/4/2 42/4/2
f 33/4/2 36/4/2 42/4/2
f 42/4/2 39/4/2 43/4/2
f 39/1/2 35/1/2 44/1/2
f 43/4/2 39/4/2 44/4/2
f 44/1/2 35/1/2 45/1/2
f 44/4/2 45/4/2 46/4/2
f 43/4/2 44/4/2 46/4/2
f 46/4/2 45/4/2 47/4/2
f 45/1/2 35/1/2 48/1/2
f 47/4/2 45/4/2 48/4/2
f 48/1/2 35/1/2 49/1/2
f 47/4/2 48/4/2 50/4/2
f 48/5/2 49/5/2 51/5/2
f 50/4/2 48/4/2 51/4/2
f 51/5/2 49/5/2 52/5/2
f 58/1/3 56/1/3 55/1/3
f 59/5/3 57/5/3 56/5/3
f 59/1/3 56/1/3 58/1/3
f 60/5/3 57/5/3 59/5/3
f 61/4/3 59/4/3 58/4/3
f 61/4/3 60/4/3 59/4/3
f 62/4/3 60/4/3 61/4/3
f 63/4/3 61/4/3 58/4/3
f 64/4/3 61/4/3 63/4/3
f 65/2/3 55/2/3 54/2/3
f 65/1/3 58/1/3 55/1/3
f 66/4/3 63/4/3 58/4/3
f 66/1/3 58/1/3 65/1/3
f 67/2/3 65/2/3 54/2/3
f 68/4/3 66/4/3 65/4/3
f 68/2/3 65/2/3 67/2/3
f 69/4/3 63/4/3 66/4/3
f 69/4/3 66/4/3 68/4/3
f 70/2/3 67/2/3 54/2/3
f 71/4/3 68/4/3 67/4/3
f 71/2/3 67/2/3 70/2/3
f 72/6/3 69/6/3 68/6/3
f 72/4/3 68/4/3 71/4/3
f 73/3/3 54/3/3 53/3/3
f 73/2/3 70/2/3 54/2/3
f 74/6/3 72/6/3 71/6/3
f 74/2/3 70/2/3 73/2/3
f 74/6/3 71/6/3 70/6/3
f 75/6/3 69/6/3 72/6/3
f 75/6/3 72/6/3 74/6/3
f 76/3/3 73/3/3 53/3/3
f 77/7/3 74/7/3 73/7/3
f 77/3/3 73/3/3 76/3/3
f 77/7/3 75/7/3 74/7/3
f 78/3/3 76/3/3 53/3/3
f 79/7/3 77/7/3 76/7/3
f 79/3/3 76/3/3 78/3/3
f 80/3/3 78/3/3 53/3/3
f 81/7/3 79/7/3 78/7/3
f 81/3/3 78/3/3 80/3/3
f 82/7/3 75/7/3 77/7/3
f 82/7/3 79/7/3 81/7/3
f 82/7/3 77/7/3 79/7/3
f 85/4/3 84/4/3 83/4/3
f 86/4/3 84/4/3 85/4/3
f 89/4/3 88/4/3 87/4/3
f 90/4/3 88/4/3 89/4/3
f 91/3/4 92/3/4 96/3/4
f 92/2/4 93/2/4 97/2/4
f 96/3/4 92/3/4 97/3/4
f 93/1/4 94/1/4 98/1/4
f 97/2/4 93/2/4 98/2/4
f 94/5/4 95/5/4 99/5/4
f 98/1/4 94/1/4 99/1/4
f 99/5/4 95/5/4 100/5/4
f 103/3/5 102/3/5 101/3/5
f 104/3/5 102/3/5 103/3/5
f 106/6/6 107/6/6 109/6/6
f 107/7/6 108/7/6 109/7/6
f 109/7/6 108/7/6 110/7/6
f 105/4/6 106/4/6 111/4/6
f 106/6/6 109/6/6 111/6/6
f 109/6/6 110/6/6 111/6/6
f 111/6/6 110/6/6 112/6/6
f 105/4/6 111/4/6 113/4/6
f 111/4/6 112/4/6 113/4/6
f 113/4/6 112/4/6 114/4/6
f 115/4/6 116/4/6 117/4/6
f 115/4/6 117/4/6 119/4/6
f 117/4/6 118/4/6 119/4/6
f 119/4/6 118/4/6 120/4/6
f 122/4/6 123/4/6 124/4/6
f 121/5/6 122/5/6 126/5/6
f 124/4/6 125/4/6 126/4/6
f 122/4/6 124/4/6 126/4/6
f 126/4/6 125/4/6 127/4/6
f 121/5/6 126/5/6 128/5/6
f 126/5/6 127/5/6 128/5/6
f 128/5/6 127/5/6 129/5/6
