# MagicaVoxel @ Ephtracy

# group
g Chicken_Male

# material
mtllib Chicken_Male.mtl
usemtl palette

# normals
vn -1 0 0
vn 1 0 0
vn 0 0 1
vn 0 0 -1
vn 0 -1 0
vn 0 1 0

# texcoords
vt 0.146484 0.5
vt 0.220703 0.5
vt 0.310547 0.5
vt 0.373047 0.5
vt 0.587891 0.5
vt 0.591797 0.5
vt 0.994141 0.5

# verts
v -5 7 -1
v -5 7 -2
v -5 8 -1
v -5 8 -2
v -4 8 -1
v -4 8 -2
v -4 9 -1
v -4 9 -2
v -3 5 -1
v -3 5 -2
v -3 7 -0
v -3 7 -1
v -3 7 -2
v -3 7 -3
v -3 9 -1
v -3 9 -2
v -3 10 -0
v -3 10 -1
v -3 10 -2
v -3 10 -3
v -3 11 -1
v -3 11 -2
v -2 11 -1
v -2 11 -2
v -2 12 -1
v -2 12 -2
v -1 3 1
v -1 3 -4
v -1 4 -0
v -1 4 -3
v -1 6 1
v -1 6 -0
v -1 6 -1
v -1 6 -2
v -1 6 -3
v -1 6 -4
v -1 7 -0
v -1 7 -1
v -1 7 -2
v -1 7 -3
v 0 0 -0
v 0 0 -1
v 0 0 -2
v 0 0 -3
v 0 1 -0
v 0 1 -1
v 0 1 -2
v 0 1 -3
v 0 3 2
v 0 3 1
v 0 3 -4
v 0 3 -5
v 0 5 2
v 0 5 1
v 0 5 -4
v 0 5 -5
v 1 1 -0
v 1 1 -1
v 1 1 -2
v 1 1 -3
v 1 2 -1
v 1 2 -2
v 1 3 -0
v 1 3 -3
v 4 6 -0
v 4 6 -1
v 4 6 -2
v 4 6 -3
v 4 8 -0
v 4 8 -1
v 4 8 -2
v 4 8 -3
v -2 5 -1
v -2 5 -2
v -2 6 -1
v -2 6 -2
v 0 6 -0
v 0 6 -3
v 0 10 -0
v 0 10 -1
v 0 10 -2
v 0 10 -3
v 0 12 -1
v 0 12 -2
v 2 1 -0
v 2 1 -1
v 2 1 -2
v 2 1 -3
v 2 2 -1
v 2 2 -2
v 2 3 -0
v 2 3 -3
v 3 0 -0
v 3 0 -1
v 3 0 -2
v 3 0 -3
v 3 1 -0
v 3 1 -1
v 3 1 -2
v 3 1 -3
v 3 4 2
v 3 4 1
v 3 4 -4
v 3 4 -5
v 3 5 2
v 3 5 1
v 3 5 -4
v 3 5 -5
v 4 3 2
v 4 3 1
v 4 3 -4
v 4 3 -5
v 4 4 2
v 4 4 1
v 4 4 -0
v 4 4 -1
v 4 4 -2
v 4 4 -3
v 4 4 -4
v 4 4 -5
v 4 6 1
v 4 6 -0
v 4 6 -3
v 4 6 -4
v 5 4 -0
v 5 4 -1
v 5 4 -2
v 5 4 -3
v 5 8 -0
v 5 8 -1
v 5 8 -2
v 5 8 -3
v 0 3 2
v 0 5 2
v 3 4 2
v 3 5 2
v 4 3 2
v 4 4 2
v -1 3 1
v -1 6 1
v 0 3 1
v 0 5 1
v 3 4 1
v 3 5 1
v 4 4 1
v 4 6 1
v -3 7 -0
v -3 10 -0
v -2 8 -0
v -2 9 -0
v -1 6 -0
v -1 7 -0
v -1 8 -0
v -1 9 -0
v 0 0 -0
v 0 1 -0
v 0 6 -0
v 0 10 -0
v 1 1 -0
v 1 3 -0
v 2 1 -0
v 2 3 -0
v 3 0 -0
v 3 1 -0
v 4 4 -0
v 4 6 -0
v 4 8 -0
v 5 4 -0
v 5 8 -0
v -5 7 -1
v -5 8 -1
v -4 8 -1
v -4 9 -1
v -3 5 -1
v -3 7 -1
v -3 9 -1
v -3 10 -1
v -3 11 -1
v -2 5 -1
v -2 6 -1
v -2 11 -1
v -2 12 -1
v -1 6 -1
v -1 7 -1
v 0 10 -1
v 0 12 -1
v 0 0 -2
v 0 1 -2
v 1 1 -2
v 1 2 -2
v 2 1 -2
v 2 2 -2
v 3 0 -2
v 3 1 -2
v 0 0 -1
v 0 1 -1
v 1 1 -1
v 1 2 -1
v 2 1 -1
v 2 2 -1
v 3 0 -1
v 3 1 -1
v -5 7 -2
v -5 8 -2
v -4 8 -2
v -4 9 -2
v -3 5 -2
v -3 7 -2
v -3 9 -2
v -3 10 -2
v -3 11 -2
v -2 5 -2
v -2 6 -2
v -2 11 -2
v -2 12 -2
v -1 6 -2
v -1 7 -2
v 0 10 -2
v 0 12 -2
v -3 7 -3
v -3 10 -3
v -2 8 -3
v -2 9 -3
v -1 6 -3
v -1 7 -3
v -1 8 -3
v -1 9 -3
v 0 0 -3
v 0 1 -3
v 0 6 -3
v 0 10 -3
v 1 1 -3
v 1 3 -3
v 2 1 -3
v 2 3 -3
v 3 0 -3
v 3 1 -3
v 4 4 -3
v 4 6 -3
v 4 8 -3
v 5 4 -3
v 5 8 -3
v -1 3 -4
v -1 6 -4
v 0 3 -4
v 0 5 -4
v 3 4 -4
v 3 5 -4
v 4 4 -4
v 4 6 -4
v 0 3 -5
v 0 5 -5
v 3 4 -5
v 3 5 -5
v 4 3 -5
v 4 4 -5
v 0 0 -0
v 3 0 -0
v 0 0 -1
v 3 0 -1
v 0 0 -2
v 3 0 -2
v 0 0 -3
v 3 0 -3
v 1 2 -1
v 2 2 -1
v 1 2 -2
v 2 2 -2
v 0 3 2
v 4 3 2
v -1 3 1
v 0 3 1
v 4 3 1
v 1 3 -0
v 2 3 -0
v 1 3 -3
v 2 3 -3
v -1 3 -4
v 0 3 -4
v 4 3 -4
v 0 3 -5
v 4 3 -5
v 4 4 -0
v 5 4 -0
v 4 4 -1
v 5 4 -1
v 4 4 -2
v 5 4 -2
v 4 4 -3
v 5 4 -3
v -3 5 -1
v -2 5 -1
v -3 5 -2
v -2 5 -2
v -2 6 -1
v -1 6 -1
v -2 6 -2
v -1 6 -2
v -3 7 -0
v -1 7 -0
v -5 7 -1
v -3 7 -1
v -1 7 -1
v -5 7 -2
v -3 7 -2
v -1 7 -2
v -3 7 -3
v -1 7 -3
v 0 1 -0
v 1 1 -0
v 2 1 -0
v 3 1 -0
v 0 1 -1
v 1 1 -1
v 2 1 -1
v 3 1 -1
v 0 1 -2
v 1 1 -2
v 2 1 -2
v 3 1 -2
v 0 1 -3
v 1 1 -3
v 2 1 -3
v 3 1 -3
v 3 4 2
v 4 4 2
v 3 4 1
v 4 4 1
v 3 4 -4
v 4 4 -4
v 3 4 -5
v 4 4 -5
v 0 5 2
v 3 5 2
v 0 5 1
v 3 5 1
v 0 5 -4
v 3 5 -4
v 0 5 -5
v 3 5 -5
v -1 6 1
v 4 6 1
v -1 6 -0
v 0 6 -0
v 1 6 -0
v 4 6 -0
v 4 6 -1
v 4 6 -2
v -1 6 -3
v 0 6 -3
v 1 6 -3
v 4 6 -3
v -1 6 -4
v 4 6 -4
v 4 8 -0
v 5 8 -0
v -5 8 -1
v -4 8 -1
v 4 8 -1
v 5 8 -1
v -5 8 -2
v -4 8 -2
v 4 8 -2
v 5 8 -2
v 4 8 -3
v 5 8 -3
v -4 9 -1
v -3 9 -1
v -4 9 -2
v -3 9 -2
v -3 10 -0
v 0 10 -0
v -3 10 -1
v 0 10 -1
v -3 10 -2
v 0 10 -2
v -3 10 -3
v 0 10 -3
v -3 11 -1
v -2 11 -1
v -3 11 -2
v -2 11 -2
v -2 12 -1
v 0 12 -1
v -2 12 -2
v 0 12 -2

# faces
f 3/4/1 2/4/1 1/4/1
f 4/4/1 2/4/1 3/4/1
f 7/4/1 6/4/1 5/4/1
f 8/4/1 6/4/1 7/4/1
f 12/1/1 10/1/1 9/1/1
f 13/1/1 10/1/1 12/1/1
f 15/2/1 12/2/1 11/2/1
f 16/2/1 14/2/1 13/2/1
f 17/2/1 15/2/1 11/2/1
f 17/2/1 16/2/1 15/2/1
f 18/2/1 16/2/1 17/2/1
f 19/2/1 14/2/1 16/2/1
f 19/2/1 16/2/1 18/2/1
f 20/2/1 14/2/1 19/2/1
f 21/1/1 19/1/1 18/1/1
f 22/1/1 19/1/1 21/1/1
f 25/1/1 24/1/1 23/1/1
f 26/1/1 24/1/1 25/1/1
f 29/3/1 28/3/1 27/3/1
f 30/3/1 28/3/1 29/3/1
f 31/3/1 29/3/1 27/3/1
f 32/2/1 30/2/1 29/2/1
f 32/3/1 29/3/1 31/3/1
f 33/2/1 30/2/1 32/2/1
f 34/2/1 30/2/1 33/2/1
f 35/3/1 28/3/1 30/3/1
f 35/2/1 30/2/1 34/2/1
f 36/3/1 28/3/1 35/3/1
f 37/2/1 33/2/1 32/2/1
f 38/2/1 33/2/1 37/2/1
f 39/2/1 35/2/1 34/2/1
f 40/2/1 35/2/1 39/2/1
f 45/4/1 42/4/1 41/4/1
f 46/4/1 42/4/1 45/4/1
f 47/4/1 44/4/1 43/4/1
f 48/4/1 44/4/1 47/4/1
f 53/2/1 50/2/1 49/2/1
f 54/2/1 50/2/1 53/2/1
f 55/2/1 52/2/1 51/2/1
f 56/2/1 52/2/1 55/2/1
f 61/3/1 58/3/1 57/3/1
f 62/3/1 60/3/1 59/3/1
f 63/3/1 61/3/1 57/3/1
f 63/3/1 62/3/1 61/3/1
f 64/3/1 60/3/1 62/3/1
f 64/3/1 62/3/1 63/3/1
f 69/6/1 66/6/1 65/6/1
f 70/5/1 67/5/1 66/5/1
f 70/6/1 66/6/1 69/6/1
f 71/6/1 68/6/1 67/6/1
f 71/5/1 67/5/1 70/5/1
f 72/6/1 68/6/1 71/6/1
f 73/1/2 74/1/2 75/1/2
f 75/1/2 74/1/2 76/1/2
f 77/2/2 78/2/2 79/2/2
f 79/2/2 78/2/2 80/2/2
f 80/2/2 78/2/2 81/2/2
f 81/2/2 78/2/2 82/2/2
f 80/1/2 81/1/2 83/1/2
f 83/1/2 81/1/2 84/1/2
f 85/3/2 86/3/2 89/3/2
f 87/3/2 88/3/2 90/3/2
f 85/3/2 89/3/2 91/3/2
f 89/3/2 90/3/2 91/3/2
f 90/3/2 88/3/2 92/3/2
f 91/3/2 90/3/2 92/3/2
f 93/4/2 94/4/2 97/4/2
f 97/4/2 94/4/2 98/4/2
f 95/4/2 96/4/2 99/4/2
f 99/4/2 96/4/2 100/4/2
f 101/2/2 102/2/2 105/2/2
f 105/2/2 102/2/2 106/2/2
f 103/2/2 104/2/2 107/2/2
f 107/2/2 104/2/2 108/2/2
f 109/2/2 110/2/2 113/2/2
f 110/3/2 111/3/2 114/3/2
f 113/2/2 110/2/2 114/2/2
f 114/3/2 111/3/2 115/3/2
f 115/3/2 111/3/2 116/3/2
f 116/3/2 111/3/2 117/3/2
f 117/3/2 111/3/2 118/3/2
f 111/2/2 112/2/2 119/2/2
f 118/3/2 111/3/2 119/3/2
f 119/2/2 112/2/2 120/2/2
f 114/3/2 115/3/2 121/3/2
f 121/3/2 115/3/2 122/3/2
f 118/3/2 119/3/2 123/3/2
f 123/3/2 119/3/2 124/3/2
f 125/6/2 126/6/2 129/6/2
f 126/5/2 127/5/2 130/5/2
f 129/6/2 126/6/2 130/6/2
f 127/6/2 128/6/2 131/6/2
f 130/5/2 127/5/2 131/5/2
f 131/6/2 128/6/2 132/6/2
f 135/2/3 134/2/3 133/2/3
f 136/2/3 134/2/3 135/2/3
f 137/2/3 135/2/3 133/2/3
f 138/2/3 135/2/3 137/2/3
f 141/3/3 140/3/3 139/3/3
f 142/3/3 140/3/3 141/3/3
f 144/3/3 140/3/3 142/3/3
f 145/3/3 144/3/3 143/3/3
f 146/3/3 140/3/3 144/3/3
f 146/3/3 144/3/3 145/3/3
f 149/2/3 148/2/3 147/2/3
f 150/2/3 148/2/3 149/2/3
f 152/2/3 149/2/3 147/2/3
f 153/7/3 150/7/3 149/7/3
f 153/2/3 149/2/3 152/2/3
f 154/2/3 148/2/3 150/2/3
f 154/7/3 150/7/3 153/7/3
f 157/2/3 153/2/3 152/2/3
f 157/2/3 152/2/3 151/2/3
f 157/2/3 154/2/3 153/2/3
f 158/2/3 148/2/3 154/2/3
f 158/2/3 154/2/3 157/2/3
f 159/4/3 156/4/3 155/4/3
f 161/4/3 159/4/3 155/4/3
f 161/3/3 160/3/3 159/3/3
f 162/3/3 160/3/3 161/3/3
f 163/4/3 161/4/3 155/4/3
f 164/4/3 161/4/3 163/4/3
f 168/6/3 166/6/3 165/6/3
f 168/6/3 167/6/3 166/6/3
f 169/6/3 167/6/3 168/6/3
f 172/4/3 171/4/3 170/4/3
f 175/4/3 172/4/3 170/4/3
f 175/4/3 173/4/3 172/4/3
f 176/4/3 173/4/3 175/4/3
f 179/1/3 175/1/3 174/1/3
f 180/1/3 175/1/3 179/1/3
f 181/1/3 178/1/3 177/1/3
f 183/1/3 175/1/3 180/1/3
f 184/1/3 175/1/3 183/1/3
f 185/1/3 182/1/3 181/1/3
f 185/1/3 181/1/3 177/1/3
f 186/1/3 182/1/3 185/1/3
f 189/4/3 188/4/3 187/4/3
f 191/4/3 189/4/3 187/4/3
f 191/3/3 190/3/3 189/3/3
f 192/3/3 190/3/3 191/3/3
f 193/4/3 191/4/3 187/4/3
f 194/4/3 191/4/3 193/4/3
f 195/4/4 196/4/4 197/4/4
f 195/4/4 197/4/4 199/4/4
f 197/3/4 198/3/4 199/3/4
f 199/3/4 198/3/4 200/3/4
f 195/4/4 199/4/4 201/4/4
f 201/4/4 199/4/4 202/4/4
f 203/4/4 204/4/4 205/4/4
f 203/4/4 205/4/4 208/4/4
f 205/4/4 206/4/4 208/4/4
f 208/4/4 206/4/4 209/4/4
f 207/1/4 208/1/4 212/1/4
f 212/1/4 208/1/4 213/1/4
f 210/1/4 211/1/4 214/1/4
f 213/1/4 208/1/4 216/1/4
f 216/1/4 208/1/4 217/1/4
f 214/1/4 215/1/4 218/1/4
f 210/1/4 214/1/4 218/1/4
f 218/1/4 215/1/4 219/1/4
f 220/2/4 221/2/4 222/2/4
f 222/2/4 221/2/4 223/2/4
f 220/2/4 222/2/4 225/2/4
f 222/7/4 223/7/4 226/7/4
f 225/2/4 222/2/4 226/2/4
f 223/2/4 221/2/4 227/2/4
f 226/7/4 223/7/4 227/7/4
f 225/2/4 226/2/4 230/2/4
f 224/2/4 225/2/4 230/2/4
f 226/2/4 227/2/4 230/2/4
f 227/2/4 221/2/4 231/2/4
f 230/2/4 227/2/4 231/2/4
f 228/4/4 229/4/4 232/4/4
f 228/4/4 232/4/4 234/4/4
f 232/3/4 233/3/4 234/3/4
f 234/3/4 233/3/4 235/3/4
f 228/4/4 234/4/4 236/4/4
f 236/4/4 234/4/4 237/4/4
f 238/6/4 239/6/4 241/6/4
f 239/6/4 240/6/4 241/6/4
f 241/6/4 240/6/4 242/6/4
f 243/3/4 244/3/4 245/3/4
f 245/3/4 244/3/4 246/3/4
f 246/3/4 244/3/4 248/3/4
f 247/3/4 248/3/4 249/3/4
f 248/3/4 244/3/4 250/3/4
f 249/3/4 248/3/4 250/3/4
f 251/2/4 252/2/4 253/2/4
f 253/2/4 252/2/4 254/2/4
f 251/2/4 253/2/4 255/2/4
f 255/2/4 253/2/4 256/2/4
f 259/4/5 258/4/5 257/4/5
f 260/4/5 258/4/5 259/4/5
f 263/4/5 262/4/5 261/4/5
f 264/4/5 262/4/5 263/4/5
f 267/3/5 266/3/5 265/3/5
f 268/3/5 266/3/5 267/3/5
f 272/2/5 270/2/5 269/2/5
f 273/2/5 270/2/5 272/2/5
f 274/3/5 272/3/5 271/3/5
f 274/3/5 273/3/5 272/3/5
f 275/3/5 273/3/5 274/3/5
f 276/3/5 274/3/5 271/3/5
f 277/3/5 273/3/5 275/3/5
f 278/3/5 276/3/5 271/3/5
f 278/3/5 277/3/5 276/3/5
f 279/3/5 277/3/5 278/3/5
f 280/3/5 273/3/5 277/3/5
f 280/3/5 277/3/5 279/3/5
f 281/2/5 280/2/5 279/2/5
f 282/2/5 280/2/5 281/2/5
f 285/6/5 284/6/5 283/6/5
f 286/6/5 284/6/5 285/6/5
f 287/5/5 286/5/5 285/5/5
f 288/5/5 286/5/5 287/5/5
f 289/6/5 288/6/5 287/6/5
f 290/6/5 288/6/5 289/6/5
f 293/1/5 292/1/5 291/1/5
f 294/1/5 292/1/5 293/1/5
f 297/1/5 296/1/5 295/1/5
f 298/1/5 296/1/5 297/1/5
f 302/2/5 300/2/5 299/2/5
f 303/2/5 300/2/5 302/2/5
f 304/4/5 302/4/5 301/4/5
f 305/4/5 302/4/5 304/4/5
f 307/2/5 306/2/5 305/2/5
f 308/2/5 306/2/5 307/2/5
f 309/4/6 310/4/6 313/4/6
f 313/4/6 310/4/6 314/4/6
f 311/4/6 312/4/6 315/4/6
f 315/4/6 312/4/6 316/4/6
f 317/4/6 318/4/6 321/4/6
f 321/4/6 318/4/6 322/4/6
f 319/4/6 320/4/6 323/4/6
f 323/4/6 320/4/6 324/4/6
f 325/2/6 326/2/6 327/2/6
f 327/2/6 326/2/6 328/2/6
f 329/2/6 330/2/6 331/2/6
f 331/2/6 330/2/6 332/2/6
f 333/2/6 334/2/6 335/2/6
f 335/2/6 334/2/6 336/2/6
f 337/2/6 338/2/6 339/2/6
f 339/2/6 338/2/6 340/2/6
f 341/3/6 342/3/6 343/3/6
f 343/3/6 342/3/6 344/3/6
f 344/3/6 342/3/6 345/3/6
f 345/3/6 342/3/6 346/3/6
f 345/3/6 346/3/6 347/3/6
f 345/3/6 347/3/6 348/3/6
f 344/2/6 345/2/6 350/2/6
f 345/3/6 348/3/6 351/3/6
f 350/2/6 345/2/6 351/2/6
f 351/3/6 348/3/6 352/3/6
f 349/3/6 350/3/6 353/3/6
f 350/3/6 351/3/6 353/3/6
f 351/3/6 352/3/6 353/3/6
f 353/3/6 352/3/6 354/3/6
f 355/6/6 356/6/6 359/6/6
f 359/6/6 356/6/6 360/6/6
f 357/4/6 358/4/6 361/4/6
f 361/4/6 358/4/6 362/4/6
f 359/5/6 360/5/6 363/5/6
f 363/5/6 360/5/6 364/5/6
f 363/6/6 364/6/6 365/6/6
f 365/6/6 364/6/6 366/6/6
f 367/4/6 368/4/6 369/4/6
f 369/4/6 368/4/6 370/4/6
f 371/2/6 372/2/6 373/2/6
f 373/2/6 372/2/6 374/2/6
f 375/2/6 376/2/6 377/2/6
f 377/2/6 376/2/6 378/2/6
f 379/1/6 380/1/6 381/1/6
f 381/1/6 380/1/6 382/1/6
f 383/1/6 384/1/6 385/1/6
f 385/1/6 384/1/6 386/1/6
