# MagicaVoxel @ Ephtracy

# group
g Nest

# material
mtllib Nest.mtl
usemtl palette

# normals
vn -1 0 0
vn 1 0 0
vn 0 0 1
vn 0 0 -1
vn 0 -1 0
vn 0 1 0

# texcoords
vt 0.279297 0.5
vt 0.958984 0.5

# verts
v -4 0 4
v -4 0 -1
v -4 2 4
v -4 2 -1
v -3 0 5
v -3 0 4
v -3 0 -1
v -3 0 -2
v -3 2 5
v -3 2 4
v -3 2 -1
v -3 2 -2
v -2 1 3
v -2 1 2
v -2 2 4
v -2 2 3
v -2 3 4
v -2 3 2
v -1 1 1
v -1 1 -1
v -1 2 -1
v -1 3 1
v -1 3 -1
v 1 1 4
v 1 1 3
v 1 2 4
v 1 2 3
v 2 1 3
v 2 1 -0
v 2 2 3
v 2 2 -0
v -3 1 3
v -3 1 -0
v -3 2 3
v -3 2 -0
v -2 1 -0
v -2 1 -1
v -2 2 -0
v -2 2 -1
v 0 1 4
v 0 1 2
v 0 2 4
v 0 3 4
v 0 3 2
v 1 1 1
v 1 1 -0
v 1 2 -0
v 1 2 -1
v 1 3 1
v 1 3 -1
v 2 0 5
v 2 0 4
v 2 0 -1
v 2 0 -2
v 2 2 5
v 2 2 4
v 2 2 -1
v 2 2 -2
v 3 0 4
v 3 0 -1
v 3 2 4
v 3 2 -1
v -3 0 5
v -3 2 5
v 2 0 5
v 2 2 5
v -4 0 4
v -4 2 4
v -3 0 4
v -3 2 4
v -2 2 4
v -2 3 4
v 0 2 4
v 0 3 4
v 2 0 4
v 2 2 4
v 3 0 4
v 3 2 4
v -1 1 1
v -1 3 1
v 1 1 1
v 1 3 1
v -3 1 -0
v -3 2 -0
v -2 1 -0
v -2 2 -0
v 1 1 -0
v 1 2 -0
v 2 1 -0
v 2 2 -0
v -2 1 -1
v -2 2 -1
v -1 1 -1
v -1 2 -1
v 0 1 4
v 0 2 4
v 1 1 4
v 1 2 4
v -3 1 3
v -3 2 3
v -2 1 3
v -2 2 3
v 1 1 3
v 1 2 3
v 2 1 3
v 2 2 3
v -2 1 2
v -2 3 2
v 0 1 2
v 0 3 2
v -4 0 -1
v -4 2 -1
v -3 0 -1
v -3 2 -1
v -1 2 -1
v -1 3 -1
v 1 2 -1
v 1 3 -1
v 2 0 -1
v 2 2 -1
v 3 0 -1
v 3 2 -1
v -3 0 -2
v -3 2 -2
v 2 0 -2
v 2 2 -2
v -3 0 5
v 2 0 5
v -4 0 4
v -3 0 4
v 2 0 4
v 3 0 4
v -4 0 -1
v -3 0 -1
v 2 0 -1
v 3 0 -1
v -3 0 -2
v 2 0 -2
v 0 1 4
v 1 1 4
v -3 1 3
v -2 1 3
v 1 1 3
v 2 1 3
v -2 1 2
v 0 1 2
v -1 1 1
v 1 1 1
v -3 1 -0
v -2 1 -0
v 1 1 -0
v 2 1 -0
v -2 1 -1
v -1 1 -1
v -3 2 5
v 2 2 5
v -4 2 4
v -3 2 4
v -2 2 4
v 0 2 4
v 1 2 4
v 2 2 4
v 3 2 4
v -3 2 3
v -2 2 3
v 1 2 3
v 2 2 3
v -3 2 -0
v -2 2 -0
v 1 2 -0
v 2 2 -0
v -4 2 -1
v -3 2 -1
v -2 2 -1
v -1 2 -1
v 1 2 -1
v 2 2 -1
v 3 2 -1
v -3 2 -2
v 2 2 -2
v -2 3 4
v 0 3 4
v -2 3 2
v 0 3 2
v -1 3 1
v 1 3 1
v -1 3 -1
v 1 3 -1

# faces
f 3/1/1 2/1/1 1/1/1
f 4/1/1 2/1/1 3/1/1
f 9/1/1 6/1/1 5/1/1
f 10/1/1 6/1/1 9/1/1
f 11/1/1 8/1/1 7/1/1
f 12/1/1 8/1/1 11/1/1
f 16/2/1 14/2/1 13/2/1
f 17/2/1 16/2/1 15/2/1
f 18/2/1 14/2/1 16/2/1
f 18/2/1 16/2/1 17/2/1
f 21/2/1 20/2/1 19/2/1
f 22/2/1 21/2/1 19/2/1
f 23/2/1 21/2/1 22/2/1
f 26/1/1 25/1/1 24/1/1
f 27/1/1 25/1/1 26/1/1
f 30/1/1 29/1/1 28/1/1
f 31/1/1 29/1/1 30/1/1
f 32/1/2 33/1/2 34/1/2
f 34/1/2 33/1/2 35/1/2
f 36/1/2 37/1/2 38/1/2
f 38/1/2 37/1/2 39/1/2
f 40/2/2 41/2/2 42/2/2
f 42/2/2 41/2/2 43/2/2
f 43/2/2 41/2/2 44/2/2
f 45/2/2 46/2/2 47/2/2
f 45/2/2 47/2/2 49/2/2
f 47/2/2 48/2/2 49/2/2
f 49/2/2 48/2/2 50/2/2
f 51/1/2 52/1/2 55/1/2
f 55/1/2 52/1/2 56/1/2
f 53/1/2 54/1/2 57/1/2
f 57/1/2 54/1/2 58/1/2
f 59/1/2 60/1/2 61/1/2
f 61/1/2 60/1/2 62/1/2
f 65/1/3 64/1/3 63/1/3
f 66/1/3 64/1/3 65/1/3
f 69/1/3 68/1/3 67/1/3
f 70/1/3 68/1/3 69/1/3
f 73/2/3 72/2/3 71/2/3
f 74/2/3 72/2/3 73/2/3
f 77/1/3 76/1/3 75/1/3
f 78/1/3 76/1/3 77/1/3
f 81/2/3 80/2/3 79/2/3
f 82/2/3 80/2/3 81/2/3
f 85/1/3 84/1/3 83/1/3
f 86/1/3 84/1/3 85/1/3
f 89/1/3 88/1/3 87/1/3
f 90/1/3 88/1/3 89/1/3
f 93/1/3 92/1/3 91/1/3
f 94/1/3 92/1/3 93/1/3
f 95/1/4 96/1/4 97/1/4
f 97/1/4 96/1/4 98/1/4
f 99/1/4 100/1/4 101/1/4
f 101/1/4 100/1/4 102/1/4
f 103/1/4 104/1/4 105/1/4
f 105/1/4 104/1/4 106/1/4
f 107/2/4 108/2/4 109/2/4
f 109/2/4 108/2/4 110/2/4
f 111/1/4 112/1/4 113/1/4
f 113/1/4 112/1/4 114/1/4
f 115/2/4 116/2/4 117/2/4
f 117/2/4 116/2/4 118/2/4
f 119/1/4 120/1/4 121/1/4
f 121/1/4 120/1/4 122/1/4
f 123/1/4 124/1/4 125/1/4
f 125/1/4 124/1/4 126/1/4
f 130/1/5 128/1/5 127/1/5
f 131/1/5 128/1/5 130/1/5
f 133/1/5 130/1/5 129/1/5
f 133/1/5 132/1/5 131/1/5
f 133/1/5 131/1/5 130/1/5
f 134/1/5 132/1/5 133/1/5
f 135/1/5 132/1/5 134/1/5
f 136/1/5 132/1/5 135/1/5
f 137/1/5 135/1/5 134/1/5
f 138/1/5 135/1/5 137/1/5
f 139/1/6 140/1/6 143/1/6
f 141/1/6 142/1/6 145/1/6
f 143/1/6 144/1/6 146/1/6
f 139/1/6 143/1/6 146/1/6
f 145/1/6 146/1/6 147/1/6
f 146/1/6 144/1/6 148/1/6
f 147/1/6 146/1/6 148/1/6
f 141/1/6 145/1/6 149/1/6
f 145/1/6 147/1/6 149/1/6
f 149/1/6 147/1/6 150/1/6
f 148/1/6 144/1/6 151/1/6
f 151/1/6 144/1/6 152/1/6
f 150/1/6 147/1/6 153/1/6
f 153/1/6 147/1/6 154/1/6
f 155/1/6 156/1/6 158/1/6
f 158/1/6 156/1/6 159/1/6
f 159/1/6 156/1/6 160/1/6
f 160/1/6 156/1/6 161/1/6
f 161/1/6 156/1/6 162/1/6
f 157/1/6 158/1/6 164/1/6
f 158/1/6 159/1/6 164/1/6
f 164/1/6 159/1/6 165/1/6
f 162/1/6 163/1/6 166/1/6
f 161/1/6 162/1/6 166/1/6
f 166/1/6 163/1/6 167/1/6
f 157/1/6 164/1/6 168/1/6
f 167/1/6 163/1/6 171/1/6
f 168/1/6 169/1/6 172/1/6
f 157/1/6 168/1/6 172/1/6
f 172/1/6 169/1/6 173/1/6
f 173/1/6 169/1/6 174/1/6
f 170/1/6 171/1/6 176/1/6
f 171/1/6 163/1/6 177/1/6
f 176/1/6 171/1/6 177/1/6
f 177/1/6 163/1/6 178/1/6
f 174/1/6 175/1/6 179/1/6
f 175/1/6 176/1/6 179/1/6
f 176/1/6 177/1/6 179/1/6
f 173/1/6 174/1/6 179/1/6
f 179/1/6 177/1/6 180/1/6
f 181/2/6 182/2/6 183/2/6
f 183/2/6 182/2/6 184/2/6
f 185/2/6 186/2/6 187/2/6
f 187/2/6 186/2/6 188/2/6
