# MagicaVoxel @ Ephtracy

# group
g Ostrich

# material
mtllib Ostrich.mtl
usemtl palette

# normals
vn -1 0 0
vn 1 0 0
vn 0 0 1
vn 0 0 -1
vn 0 -1 0
vn 0 1 0

# texcoords
vt 0.244141 0.5
vt 0.275391 0.5
vt 0.982422 0.5
vt 0.994141 0.5

# verts
v -11 22 -0
v -11 22 -2
v -11 23 -0
v -11 23 -2
v -10 21 -0
v -10 21 -2
v -10 22 -0
v -10 22 -2
v -10 23 -0
v -10 23 -2
v -10 25 -0
v -10 25 -2
v -9 20 -0
v -9 20 -2
v -9 21 -0
v -9 21 -2
v -8 12 1
v -8 12 -3
v -8 15 1
v -8 15 -3
v -8 18 -0
v -8 18 -2
v -8 20 -0
v -8 20 -2
v -7 15 -0
v -7 15 -2
v -7 18 -0
v -7 18 -2
v -6 9 2
v -6 9 -4
v -6 12 1
v -6 12 -3
v -6 14 2
v -6 14 1
v -6 14 -3
v -6 14 -4
v -5 8 2
v -5 8 -4
v -5 9 2
v -5 9 -4
v -4 0 3
v -4 0 2
v -4 0 1
v -4 0 -0
v -4 0 -2
v -4 0 -3
v -4 0 -4
v -4 0 -5
v -4 1 3
v -4 1 2
v -4 1 1
v -4 1 -0
v -4 1 -2
v -4 1 -3
v -4 1 -4
v -4 1 -5
v -4 7 2
v -4 7 -4
v -4 8 3
v -4 8 2
v -4 8 -4
v -4 8 -5
v -4 13 3
v -4 13 2
v -4 13 -4
v -4 13 -5
v -3 0 2
v -3 0 1
v -3 0 -3
v -3 0 -4
v -3 1 2
v -3 1 1
v -3 1 -3
v -3 1 -4
v -2 1 2
v -2 1 1
v -2 1 -3
v -2 1 -4
v -2 7 2
v -2 7 1
v -2 7 -3
v -2 7 -4
v -2 14 1
v -2 14 -3
v -2 15 1
v -2 15 -3
v -7 22 -0
v -7 22 -2
v -7 25 -0
v -7 25 -2
v -6 20 -0
v -6 20 -2
v -6 22 -0
v -6 22 -2
v -5 15 -0
v -5 15 -2
v -5 20 -0
v -5 20 -2
v -4 14 1
v -4 14 -3
v -4 15 1
v -4 15 -3
v -1 0 3
v -1 0 -0
v -1 0 -2
v -1 0 -5
v -1 1 3
v -1 1 2
v -1 1 1
v -1 1 -0
v -1 1 -2
v -1 1 -3
v -1 1 -4
v -1 1 -5
v -1 7 2
v -1 7 1
v -1 7 -3
v -1 7 -4
v 0 8 3
v 0 8 2
v 0 8 -4
v 0 8 -5
v 0 9 3
v 0 9 2
v 0 9 -4
v 0 9 -5
v 0 12 3
v 0 12 2
v 0 12 -4
v 0 12 -5
v 0 13 3
v 0 13 2
v 0 13 -4
v 0 13 -5
v 2 7 2
v 2 7 -4
v 2 8 2
v 2 8 -4
v 2 9 3
v 2 9 2
v 2 9 -4
v 2 9 -5
v 2 12 3
v 2 12 2
v 2 12 -4
v 2 12 -5
v 2 14 1
v 2 14 -3
v 2 15 1
v 2 15 -3
v 3 8 2
v 3 8 -4
v 3 9 1
v 3 9 -3
v 3 13 1
v 3 13 -3
v 3 14 2
v 3 14 -4
v 4 9 1
v 4 9 -3
v 4 13 1
v 4 13 -3
v -4 0 3
v -4 1 3
v -4 8 3
v -4 13 3
v -1 0 3
v -1 1 3
v 0 8 3
v 0 9 3
v 0 12 3
v 0 13 3
v 2 9 3
v 2 12 3
v -6 9 2
v -6 14 2
v -5 8 2
v -5 9 2
v -4 7 2
v -4 8 2
v -4 13 2
v -2 1 2
v -2 7 2
v -1 1 2
v -1 7 2
v 0 8 2
v 0 9 2
v 0 12 2
v 0 13 2
v 2 7 2
v 2 8 2
v 2 9 2
v 2 12 2
v 3 8 2
v 3 14 2
v -8 12 1
v -8 15 1
v -6 12 1
v -6 14 1
v -4 0 1
v -4 1 1
v -4 14 1
v -4 15 1
v -3 0 1
v -3 1 1
v -2 14 1
v -2 15 1
v 2 14 1
v 2 15 1
v 3 9 1
v 3 13 1
v 4 9 1
v 4 13 1
v -11 22 -0
v -11 23 -0
v -10 21 -0
v -10 22 -0
v -10 23 -0
v -10 25 -0
v -9 20 -0
v -9 21 -0
v -9 23 -0
v -9 24 -0
v -8 18 -0
v -8 20 -0
v -8 23 -0
v -8 24 -0
v -7 15 -0
v -7 18 -0
v -7 22 -0
v -7 25 -0
v -6 20 -0
v -6 22 -0
v -5 15 -0
v -5 20 -0
v -4 0 -2
v -4 1 -2
v -1 0 -2
v -1 1 -2
v -2 1 -3
v -2 7 -3
v -1 1 -3
v -1 7 -3
v -4 0 -4
v -4 1 -4
v -3 0 -4
v -3 1 -4
v -4 0 2
v -4 1 2
v -3 0 2
v -3 1 2
v -2 1 1
v -2 7 1
v -1 1 1
v -1 7 1
v -4 0 -0
v -4 1 -0
v -1 0 -0
v -1 1 -0
v -11 22 -2
v -11 23 -2
v -10 21 -2
v -10 22 -2
v -10 23 -2
v -10 25 -2
v -9 20 -2
v -9 21 -2
v -9 23 -2
v -9 24 -2
v -8 18 -2
v -8 20 -2
v -8 23 -2
v -8 24 -2
v -7 15 -2
v -7 18 -2
v -7 22 -2
v -7 25 -2
v -6 20 -2
v -6 22 -2
v -5 15 -2
v -5 20 -2
v -8 12 -3
v -8 15 -3
v -6 12 -3
v -6 14 -3
v -4 0 -3
v -4 1 -3
v -4 14 -3
v -4 15 -3
v -3 0 -3
v -3 1 -3
v -2 14 -3
v -2 15 -3
v 2 14 -3
v 2 15 -3
v 3 9 -3
v 3 13 -3
v 4 9 -3
v 4 13 -3
v -6 9 -4
v -6 14 -4
v -5 8 -4
v -5 9 -4
v -4 7 -4
v -4 8 -4
v -4 13 -4
v -2 1 -4
v -2 7 -4
v -1 1 -4
v -1 7 -4
v 0 8 -4
v 0 9 -4
v 0 12 -4
v 0 13 -4
v 2 7 -4
v 2 8 -4
v 2 9 -4
v 2 12 -4
v 3 8 -4
v 3 14 -4
v -4 0 -5
v -4 1 -5
v -4 8 -5
v -4 13 -5
v -1 0 -5
v -1 1 -5
v 0 8 -5
v 0 9 -5
v 0 12 -5
v 0 13 -5
v 2 9 -5
v 2 12 -5
v -4 0 3
v -1 0 3
v -4 0 2
v -3 0 2
v -4 0 1
v -3 0 1
v -4 0 -0
v -1 0 -0
v -4 0 -2
v -1 0 -2
v -4 0 -3
v -3 0 -3
v -4 0 -4
v -3 0 -4
v -4 0 -5
v -1 0 -5
v -4 7 2
v -2 7 2
v -1 7 2
v 2 7 2
v -2 7 1
v -1 7 1
v -2 7 -3
v -1 7 -3
v -4 7 -4
v -2 7 -4
v -1 7 -4
v 2 7 -4
v -4 8 3
v 0 8 3
v -5 8 2
v -4 8 2
v 0 8 2
v 2 8 2
v 3 8 2
v -5 8 -4
v -4 8 -4
v 0 8 -4
v 2 8 -4
v 3 8 -4
v -4 8 -5
v 0 8 -5
v 0 9 3
v 2 9 3
v -6 9 2
v -5 9 2
v 0 9 2
v 2 9 2
v 3 9 1
v 4 9 1
v 3 9 -3
v 4 9 -3
v -6 9 -4
v -5 9 -4
v 0 9 -4
v 2 9 -4
v 0 9 -5
v 2 9 -5
v -8 12 1
v -6 12 1
v -8 12 -3
v -6 12 -3
v -8 18 -0
v -7 18 -0
v -8 18 -2
v -7 18 -2
v -9 20 -0
v -8 20 -0
v -9 20 -2
v -8 20 -2
v -10 21 -0
v -9 21 -0
v -10 21 -2
v -9 21 -2
v -11 22 -0
v -10 22 -0
v -11 22 -2
v -10 22 -2
v -4 1 3
v -1 1 3
v -4 1 2
v -3 1 2
v -2 1 2
v -1 1 2
v -4 1 1
v -3 1 1
v -2 1 1
v -1 1 1
v -4 1 -0
v -1 1 -0
v -4 1 -2
v -1 1 -2
v -4 1 -3
v -3 1 -3
v -2 1 -3
v -1 1 -3
v -4 1 -4
v -3 1 -4
v -2 1 -4
v -1 1 -4
v -4 1 -5
v -1 1 -5
v 0 12 3
v 2 12 3
v 0 12 2
v 2 12 2
v 0 12 -4
v 2 12 -4
v 0 12 -5
v 2 12 -5
v -4 13 3
v 0 13 3
v -4 13 2
v 0 13 2
v 3 13 1
v 4 13 1
v 3 13 -3
v 4 13 -3
v -4 13 -4
v 0 13 -4
v -4 13 -5
v 0 13 -5
v -6 14 2
v 3 14 2
v -6 14 1
v -4 14 1
v -2 14 1
v 2 14 1
v -6 14 -3
v -4 14 -3
v -2 14 -3
v 2 14 -3
v -6 14 -4
v 3 14 -4
v -8 15 1
v -4 15 1
v -2 15 1
v 2 15 1
v -7 15 -0
v -5 15 -0
v -7 15 -2
v -5 15 -2
v -8 15 -3
v -4 15 -3
v -2 15 -3
v 2 15 -3
v -6 20 -0
v -5 20 -0
v -6 20 -2
v -5 20 -2
v -7 22 -0
v -6 22 -0
v -7 22 -2
v -6 22 -2
v -11 23 -0
v -10 23 -0
v -11 23 -2
v -10 23 -2
v -10 25 -0
v -7 25 -0
v -10 25 -2
v -7 25 -2

# faces
f 3/1/1 2/1/1 1/1/1
f 4/1/1 2/1/1 3/1/1
f 7/2/1 6/2/1 5/2/1
f 8/2/1 6/2/1 7/2/1
f 11/2/1 10/2/1 9/2/1
f 12/2/1 10/2/1 11/2/1
f 15/2/1 14/2/1 13/2/1
f 16/2/1 14/2/1 15/2/1
f 19/3/1 18/3/1 17/3/1
f 20/3/1 18/3/1 19/3/1
f 23/2/1 22/2/1 21/2/1
f 24/2/1 22/2/1 23/2/1
f 27/2/1 26/2/1 25/2/1
f 28/2/1 26/2/1 27/2/1
f 31/3/1 30/3/1 29/3/1
f 32/3/1 30/3/1 31/3/1
f 33/3/1 31/3/1 29/3/1
f 34/3/1 31/3/1 33/3/1
f 35/3/1 30/3/1 32/3/1
f 36/3/1 30/3/1 35/3/1
f 39/3/1 38/3/1 37/3/1
f 40/3/1 38/3/1 39/3/1
f 49/2/1 42/2/1 41/2/1
f 50/2/1 42/2/1 49/2/1
f 51/2/1 44/2/1 43/2/1
f 52/2/1 44/2/1 51/2/1
f 53/2/1 46/2/1 45/2/1
f 54/2/1 46/2/1 53/2/1
f 55/2/1 48/2/1 47/2/1
f 56/2/1 48/2/1 55/2/1
f 60/3/1 58/3/1 57/3/1
f 61/3/1 58/3/1 60/3/1
f 63/3/1 60/3/1 59/3/1
f 64/3/1 60/3/1 63/3/1
f 65/3/1 62/3/1 61/3/1
f 66/3/1 62/3/1 65/3/1
f 71/2/1 68/2/1 67/2/1
f 72/2/1 68/2/1 71/2/1
f 73/2/1 70/2/1 69/2/1
f 74/2/1 70/2/1 73/2/1
f 79/2/1 76/2/1 75/2/1
f 80/2/1 76/2/1 79/2/1
f 81/2/1 78/2/1 77/2/1
f 82/2/1 78/2/1 81/2/1
f 85/3/1 84/3/1 83/3/1
f 86/3/1 84/3/1 85/3/1
f 87/2/2 88/2/2 89/2/2
f 89/2/2 88/2/2 90/2/2
f 91/2/2 92/2/2 93/2/2
f 93/2/2 92/2/2 94/2/2
f 95/2/2 96/2/2 97/2/2
f 97/2/2 96/2/2 98/2/2
f 99/3/2 100/3/2 101/3/2
f 101/3/2 100/3/2 102/3/2
f 103/2/2 104/2/2 107/2/2
f 107/2/2 104/2/2 108/2/2
f 108/2/2 104/2/2 109/2/2
f 109/2/2 104/2/2 110/2/2
f 105/2/2 106/2/2 111/2/2
f 111/2/2 106/2/2 112/2/2
f 112/2/2 106/2/2 113/2/2
f 113/2/2 106/2/2 114/2/2
f 108/2/2 109/2/2 115/2/2
f 115/2/2 109/2/2 116/2/2
f 112/2/2 113/2/2 117/2/2
f 117/2/2 113/2/2 118/2/2
f 119/3/2 120/3/2 123/3/2
f 123/3/2 120/3/2 124/3/2
f 121/3/2 122/3/2 125/3/2
f 125/3/2 122/3/2 126/3/2
f 127/3/2 128/3/2 131/3/2
f 131/3/2 128/3/2 132/3/2
f 129/3/2 130/3/2 133/3/2
f 133/3/2 130/3/2 134/3/2
f 135/3/2 136/3/2 137/3/2
f 137/3/2 136/3/2 138/3/2
f 139/3/2 140/3/2 143/3/2
f 143/3/2 140/3/2 144/3/2
f 141/3/2 142/3/2 145/3/2
f 145/3/2 142/3/2 146/3/2
f 147/3/2 148/3/2 149/3/2
f 149/3/2 148/3/2 150/3/2
f 151/3/2 152/3/2 153/3/2
f 153/3/2 152/3/2 154/3/2
f 151/3/2 153/3/2 155/3/2
f 154/3/2 152/3/2 156/3/2
f 151/3/2 155/3/2 157/3/2
f 155/3/2 156/3/2 157/3/2
f 156/3/2 152/3/2 158/3/2
f 157/3/2 156/3/2 158/3/2
f 159/3/2 160/3/2 161/3/2
f 161/3/2 160/3/2 162/3/2
f 167/2/3 164/2/3 163/2/3
f 168/2/3 164/2/3 167/2/3
f 169/3/3 166/3/3 165/3/3
f 170/3/3 166/3/3 169/3/3
f 171/3/3 166/3/3 170/3/3
f 172/3/3 166/3/3 171/3/3
f 173/3/3 171/3/3 170/3/3
f 174/3/3 171/3/3 173/3/3
f 178/3/3 176/3/3 175/3/3
f 180/3/3 178/3/3 177/3/3
f 181/3/3 176/3/3 178/3/3
f 181/3/3 178/3/3 180/3/3
f 183/3/3 180/3/3 179/3/3
f 184/2/3 183/2/3 182/2/3
f 185/3/3 180/3/3 183/3/3
f 185/2/3 183/2/3 184/2/3
f 186/3/3 180/3/3 185/3/3
f 189/3/3 176/3/3 181/3/3
f 190/3/3 187/3/3 186/3/3
f 190/3/3 186/3/3 185/3/3
f 191/3/3 187/3/3 190/3/3
f 192/3/3 187/3/3 191/3/3
f 193/3/3 189/3/3 188/3/3
f 194/3/3 192/3/3 191/3/3
f 194/3/3 193/3/3 192/3/3
f 195/3/3 189/3/3 193/3/3
f 195/3/3 193/3/3 194/3/3
f 195/3/3 176/3/3 189/3/3
f 198/3/3 197/3/3 196/3/3
f 199/3/3 197/3/3 198/3/3
f 202/3/3 197/3/3 199/3/3
f 203/3/3 197/3/3 202/3/3
f 204/2/3 201/2/3 200/2/3
f 205/2/3 201/2/3 204/2/3
f 208/3/3 207/3/3 206/3/3
f 209/3/3 207/3/3 208/3/3
f 212/3/3 211/3/3 210/3/3
f 213/3/3 211/3/3 212/3/3
f 217/1/3 215/1/3 214/1/3
f 218/1/3 215/1/3 217/1/3
f 221/2/3 217/2/3 216/2/3
f 221/2/3 219/2/3 218/2/3
f 221/2/3 218/2/3 217/2/3
f 222/2/3 219/2/3 221/2/3
f 223/2/3 219/2/3 222/2/3
f 225/2/3 221/2/3 220/2/3
f 225/2/3 222/2/3 221/2/3
f 226/4/3 223/4/3 222/4/3
f 226/2/3 222/2/3 225/2/3
f 227/2/3 219/2/3 223/2/3
f 227/4/3 223/4/3 226/4/3
f 229/2/3 226/2/3 225/2/3
f 229/2/3 225/2/3 224/2/3
f 229/2/3 227/2/3 226/2/3
f 230/2/3 227/2/3 229/2/3
f 231/2/3 219/2/3 227/2/3
f 231/2/3 227/2/3 230/2/3
f 232/2/3 230/2/3 229/2/3
f 232/2/3 229/2/3 228/2/3
f 233/2/3 230/2/3 232/2/3
f 234/2/3 232/2/3 228/2/3
f 235/2/3 232/2/3 234/2/3
f 238/2/3 237/2/3 236/2/3
f 239/2/3 237/2/3 238/2/3
f 242/2/3 241/2/3 240/2/3
f 243/2/3 241/2/3 242/2/3
f 246/2/3 245/2/3 244/2/3
f 247/2/3 245/2/3 246/2/3
f 248/2/4 249/2/4 250/2/4
f 250/2/4 249/2/4 251/2/4
f 252/2/4 253/2/4 254/2/4
f 254/2/4 253/2/4 255/2/4
f 256/2/4 257/2/4 258/2/4
f 258/2/4 257/2/4 259/2/4
f 260/1/4 261/1/4 263/1/4
f 263/1/4 261/1/4 264/1/4
f 262/2/4 263/2/4 267/2/4
f 264/2/4 265/2/4 267/2/4
f 263/2/4 264/2/4 267/2/4
f 267/2/4 265/2/4 268/2/4
f 268/2/4 265/2/4 269/2/4
f 266/2/4 267/2/4 271/2/4
f 267/2/4 268/2/4 271/2/4
f 268/4/4 269/4/4 272/4/4
f 271/2/4 268/2/4 272/2/4
f 269/2/4 265/2/4 273/2/4
f 272/4/4 269/4/4 273/4/4
f 271/2/4 272/2/4 275/2/4
f 270/2/4 271/2/4 275/2/4
f 272/2/4 273/2/4 275/2/4
f 275/2/4 273/2/4 276/2/4
f 273/2/4 265/2/4 277/2/4
f 276/2/4 273/2/4 277/2/4
f 275/2/4 276/2/4 278/2/4
f 274/2/4 275/2/4 278/2/4
f 278/2/4 276/2/4 279/2/4
f 274/2/4 278/2/4 280/2/4
f 280/2/4 278/2/4 281/2/4
f 282/3/4 283/3/4 284/3/4
f 284/3/4 283/3/4 285/3/4
f 285/3/4 283/3/4 288/3/4
f 288/3/4 283/3/4 289/3/4
f 286/2/4 287/2/4 290/2/4
f 290/2/4 287/2/4 291/2/4
f 292/3/4 293/3/4 294/3/4
f 294/3/4 293/3/4 295/3/4
f 296/3/4 297/3/4 298/3/4
f 298/3/4 297/3/4 299/3/4
f 300/3/4 301/3/4 303/3/4
f 302/3/4 303/3/4 305/3/4
f 303/3/4 301/3/4 306/3/4
f 305/3/4 303/3/4 306/3/4
f 304/3/4 305/3/4 308/3/4
f 307/2/4 308/2/4 309/2/4
f 308/3/4 305/3/4 310/3/4
f 309/2/4 308/2/4 310/2/4
f 310/3/4 305/3/4 311/3/4
f 306/3/4 301/3/4 314/3/4
f 311/3/4 312/3/4 315/3/4
f 310/3/4 311/3/4 315/3/4
f 315/3/4 312/3/4 316/3/4
f 316/3/4 312/3/4 317/3/4
f 313/3/4 314/3/4 318/3/4
f 316/3/4 317/3/4 319/3/4
f 317/3/4 318/3/4 319/3/4
f 318/3/4 314/3/4 320/3/4
f 319/3/4 318/3/4 320/3/4
f 314/3/4 301/3/4 320/3/4
f 321/2/4 322/2/4 325/2/4
f 325/2/4 322/2/4 326/2/4
f 323/3/4 324/3/4 327/3/4
f 327/3/4 324/3/4 328/3/4
f 328/3/4 324/3/4 329/3/4
f 329/3/4 324/3/4 330/3/4
f 328/3/4 329/3/4 331/3/4
f 331/3/4 329/3/4 332/3/4
f 335/2/5 334/2/5 333/2/5
f 336/2/5 334/2/5 335/2/5
f 338/2/5 334/2/5 336/2/5
f 339/2/5 338/2/5 337/2/5
f 340/2/5 334/2/5 338/2/5
f 340/2/5 338/2/5 339/2/5
f 343/2/5 342/2/5 341/2/5
f 344/2/5 342/2/5 343/2/5
f 346/2/5 342/2/5 344/2/5
f 347/2/5 346/2/5 345/2/5
f 348/2/5 342/2/5 346/2/5
f 348/2/5 346/2/5 347/2/5
f 353/3/5 350/3/5 349/3/5
f 354/3/5 352/3/5 351/3/5
f 355/3/5 353/3/5 349/3/5
f 355/3/5 354/3/5 353/3/5
f 356/3/5 352/3/5 354/3/5
f 356/3/5 354/3/5 355/3/5
f 357/3/5 355/3/5 349/3/5
f 358/3/5 355/3/5 357/3/5
f 359/3/5 352/3/5 356/3/5
f 360/3/5 352/3/5 359/3/5
f 364/3/5 362/3/5 361/3/5
f 365/3/5 362/3/5 364/3/5
f 368/3/5 364/3/5 363/3/5
f 369/3/5 364/3/5 368/3/5
f 371/3/5 367/3/5 366/3/5
f 372/3/5 367/3/5 371/3/5
f 373/3/5 370/3/5 369/3/5
f 374/3/5 370/3/5 373/3/5
f 379/3/5 376/3/5 375/3/5
f 380/3/5 376/3/5 379/3/5
f 383/3/5 382/3/5 381/3/5
f 384/3/5 382/3/5 383/3/5
f 385/3/5 378/3/5 377/3/5
f 386/3/5 378/3/5 385/3/5
f 389/3/5 388/3/5 387/3/5
f 390/3/5 388/3/5 389/3/5
f 393/3/5 392/3/5 391/3/5
f 394/3/5 392/3/5 393/3/5
f 397/2/5 396/2/5 395/2/5
f 398/2/5 396/2/5 397/2/5
f 401/2/5 400/2/5 399/2/5
f 402/2/5 400/2/5 401/2/5
f 405/2/5 404/2/5 403/2/5
f 406/2/5 404/2/5 405/2/5
f 409/1/5 408/1/5 407/1/5
f 410/1/5 408/1/5 409/1/5
f 411/2/6 412/2/6 413/2/6
f 413/2/6 412/2/6 414/2/6
f 414/2/6 412/2/6 415/2/6
f 415/2/6 412/2/6 416/2/6
f 414/2/6 415/2/6 418/2/6
f 418/2/6 415/2/6 419/2/6
f 417/2/6 418/2/6 421/2/6
f 419/2/6 420/2/6 421/2/6
f 418/2/6 419/2/6 421/2/6
f 421/2/6 420/2/6 422/2/6
f 423/2/6 424/2/6 425/2/6
f 425/2/6 424/2/6 426/2/6
f 426/2/6 424/2/6 427/2/6
f 427/2/6 424/2/6 428/2/6
f 426/2/6 427/2/6 430/2/6
f 430/2/6 427/2/6 431/2/6
f 429/2/6 430/2/6 433/2/6
f 431/2/6 432/2/6 433/2/6
f 430/2/6 431/2/6 433/2/6
f 433/2/6 432/2/6 434/2/6
f 435/3/6 436/3/6 437/3/6
f 437/3/6 436/3/6 438/3/6
f 439/3/6 440/3/6 441/3/6
f 441/3/6 440/3/6 442/3/6
f 443/3/6 444/3/6 445/3/6
f 445/3/6 444/3/6 446/3/6
f 447/3/6 448/3/6 449/3/6
f 449/3/6 448/3/6 450/3/6
f 451/3/6 452/3/6 453/3/6
f 453/3/6 452/3/6 454/3/6
f 455/3/6 456/3/6 457/3/6
f 457/3/6 456/3/6 458/3/6
f 458/3/6 456/3/6 459/3/6
f 459/3/6 456/3/6 460/3/6
f 458/3/6 459/3/6 462/3/6
f 462/3/6 459/3/6 463/3/6
f 460/3/6 456/3/6 464/3/6
f 462/3/6 463/3/6 465/3/6
f 463/3/6 464/3/6 465/3/6
f 461/3/6 462/3/6 465/3/6
f 464/3/6 456/3/6 466/3/6
f 465/3/6 464/3/6 466/3/6
f 467/3/6 468/3/6 471/3/6
f 471/3/6 468/3/6 472/3/6
f 467/3/6 471/3/6 473/3/6
f 472/3/6 468/3/6 474/3/6
f 467/3/6 473/3/6 475/3/6
f 473/3/6 474/3/6 475/3/6
f 474/3/6 468/3/6 476/3/6
f 475/3/6 474/3/6 476/3/6
f 469/3/6 470/3/6 477/3/6
f 477/3/6 470/3/6 478/3/6
f 479/2/6 480/2/6 481/2/6
f 481/2/6 480/2/6 482/2/6
f 483/2/6 484/2/6 485/2/6
f 485/2/6 484/2/6 486/2/6
f 487/1/6 488/1/6 489/1/6
f 489/1/6 488/1/6 490/1/6
f 491/2/6 492/2/6 493/2/6
f 493/2/6 492/2/6 494/2/6
