# MagicaVoxel @ Ephtracy

# group
g Sheep_White

# material
mtllib Sheep_White.mtl
usemtl palette

# normals
vn -1 0 0
vn 1 0 0
vn 0 0 1
vn 0 0 -1
vn 0 -1 0
vn 0 1 0

# texcoords
vt 0.912109 0.5
vt 0.982422 0.5
vt 0.990234 0.5
vt 0.994141 0.5

# verts
v -12 9 5
v -12 9 -0
v -12 12 5
v -12 12 -0
v -9 12 5
v -9 12 4
v -9 12 3
v -9 12 2
v -9 12 1
v -9 12 -0
v -9 13 4
v -9 13 3
v -9 13 2
v -9 13 1
v -9 14 5
v -9 14 -0
v -8 8 6
v -8 8 -1
v -8 9 5
v -8 9 -0
v -8 14 5
v -8 14 -0
v -8 15 6
v -8 15 -1
v -6 12 8
v -6 12 6
v -6 12 -1
v -6 12 -3
v -6 14 8
v -6 14 6
v -6 14 -1
v -6 14 -3
v -4 5 7
v -4 5 -2
v -4 6 8
v -4 6 7
v -4 6 -2
v -4 6 -3
v -4 8 6
v -4 8 -1
v -4 12 8
v -4 12 6
v -4 12 -1
v -4 12 -3
v -3 0 7
v -3 0 5
v -3 0 -0
v -3 0 -2
v -3 2 7
v -3 2 5
v -3 2 -0
v -3 2 -2
v -3 5 7
v -3 5 5
v -3 5 -0
v -3 5 -2
v -3 12 7
v -3 12 6
v -3 12 -1
v -3 12 -2
v -3 13 7
v -3 13 6
v -3 13 -1
v -3 13 -2
v 8 0 7
v 8 0 5
v 8 0 -0
v 8 0 -2
v 8 2 7
v 8 2 5
v 8 2 -0
v 8 2 -2
v 8 5 7
v 8 5 5
v 8 5 -0
v 8 5 -2
v -5 12 8
v -5 12 6
v -5 12 -1
v -5 12 -3
v -5 14 8
v -5 14 6
v -5 14 -1
v -5 14 -3
v -3 13 6
v -3 13 -1
v -3 15 6
v -3 15 -1
v -1 0 7
v -1 0 5
v -1 0 -0
v -1 0 -2
v -1 2 7
v -1 2 5
v -1 2 -0
v -1 2 -2
v -1 5 7
v -1 5 5
v -1 5 -0
v -1 5 -2
v 10 0 7
v 10 0 5
v 10 0 -0
v 10 0 -2
v 10 2 7
v 10 2 5
v 10 2 -0
v 10 2 -2
v 10 5 5
v 10 5 -0
v 10 6 7
v 10 6 -2
v 10 12 7
v 10 12 -2
v 10 13 7
v 10 13 -2
v 11 6 8
v 11 6 -3
v 11 7 4
v 11 7 1
v 11 11 4
v 11 11 1
v 11 12 8
v 11 12 -3
v 12 7 4
v 12 7 1
v 12 11 4
v 12 11 1
v -6 12 8
v -6 14 8
v -5 12 8
v -5 14 8
v -4 6 8
v -4 12 8
v 11 6 8
v 11 12 8
v -4 5 7
v -4 6 7
v -3 0 7
v -3 2 7
v -3 5 7
v -3 12 7
v -3 13 7
v -1 0 7
v -1 2 7
v -1 5 7
v 8 0 7
v 8 2 7
v 8 5 7
v 10 0 7
v 10 2 7
v 10 6 7
v 10 12 7
v 10 13 7
v -8 8 6
v -8 15 6
v -6 12 6
v -6 14 6
v -5 12 6
v -5 14 6
v -4 8 6
v -4 12 6
v -3 12 6
v -3 13 6
v -3 15 6
v -12 9 5
v -12 12 5
v -9 12 5
v -9 14 5
v -8 9 5
v -8 14 5
v 11 7 4
v 11 11 4
v 12 7 4
v 12 11 4
v -3 0 -0
v -3 2 -0
v -3 5 -0
v -1 0 -0
v -1 2 -0
v -1 5 -0
v 8 0 -0
v 8 2 -0
v 8 5 -0
v 10 0 -0
v 10 2 -0
v 10 5 -0
v -3 0 5
v -3 2 5
v -3 5 5
v -1 0 5
v -1 2 5
v -1 5 5
v 8 0 5
v 8 2 5
v 8 5 5
v 10 0 5
v 10 2 5
v 10 5 5
v 11 7 1
v 11 11 1
v 12 7 1
v 12 11 1
v -12 9 -0
v -12 12 -0
v -9 12 -0
v -9 14 -0
v -8 9 -0
v -8 14 -0
v -8 8 -1
v -8 15 -1
v -6 12 -1
v -6 14 -1
v -5 12 -1
v -5 14 -1
v -4 8 -1
v -4 12 -1
v -3 12 -1
v -3 13 -1
v -3 15 -1
v -4 5 -2
v -4 6 -2
v -3 0 -2
v -3 2 -2
v -3 5 -2
v -3 12 -2
v -3 13 -2
v -1 0 -2
v -1 2 -2
v -1 5 -2
v 8 0 -2
v 8 2 -2
v 8 5 -2
v 10 0 -2
v 10 2 -2
v 10 6 -2
v 10 12 -2
v 10 13 -2
v -6 12 -3
v -6 14 -3
v -5 12 -3
v -5 14 -3
v -4 6 -3
v -4 12 -3
v 11 6 -3
v 11 12 -3
v -3 0 7
v -1 0 7
v 8 0 7
v 10 0 7
v -3 0 5
v -1 0 5
v 8 0 5
v 10 0 5
v -3 0 -0
v -1 0 -0
v 8 0 -0
v 10 0 -0
v -3 0 -2
v -1 0 -2
v 8 0 -2
v 10 0 -2
v -4 5 7
v -3 5 7
v -1 5 7
v 8 5 7
v -3 5 5
v -1 5 5
v 8 5 5
v 10 5 5
v -3 5 -0
v -1 5 -0
v 8 5 -0
v 10 5 -0
v -4 5 -2
v -3 5 -2
v -1 5 -2
v 8 5 -2
v -4 6 8
v 11 6 8
v -4 6 7
v 10 6 7
v -4 6 -2
v 10 6 -2
v -4 6 -3
v 11 6 -3
v 11 7 4
v 12 7 4
v 11 7 1
v 12 7 1
v -8 8 6
v -4 8 6
v -8 8 -1
v -4 8 -1
v -12 9 5
v -8 9 5
v -12 9 -0
v -8 9 -0
v -6 12 8
v -5 12 8
v -6 12 6
v -5 12 6
v -6 12 -1
v -5 12 -1
v -6 12 -3
v -5 12 -3
v 11 11 4
v 12 11 4
v 11 11 1
v 12 11 1
v -4 12 8
v 11 12 8
v -3 12 7
v 10 12 7
v -4 12 6
v -3 12 6
v -12 12 5
v -9 12 5
v -9 12 4
v -9 12 3
v -9 12 2
v -9 12 1
v -12 12 -0
v -9 12 -0
v -4 12 -1
v -3 12 -1
v -3 12 -2
v 10 12 -2
v -4 12 -3
v 11 12 -3
v -3 13 7
v 10 13 7
v -3 13 6
v -3 13 -1
v -3 13 -2
v 10 13 -2
v -6 14 8
v -5 14 8
v -6 14 6
v -5 14 6
v -9 14 5
v -8 14 5
v -9 14 -0
v -8 14 -0
v -6 14 -1
v -5 14 -1
v -6 14 -3
v -5 14 -3
v -8 15 6
v -3 15 6
v -8 15 -1
v -3 15 -1

# faces
f 3/2/1 2/2/1 1/2/1
f 4/2/1 2/2/1 3/2/1
f 11/2/1 6/2/1 5/2/1
f 11/4/1 7/4/1 6/4/1
f 12/2/1 8/2/1 7/2/1
f 12/4/1 7/4/1 11/4/1
f 13/4/1 9/4/1 8/4/1
f 13/2/1 8/2/1 12/2/1
f 14/2/1 10/2/1 9/2/1
f 14/4/1 9/4/1 13/4/1
f 15/2/1 13/2/1 12/2/1
f 15/2/1 12/2/1 11/2/1
f 15/2/1 14/2/1 13/2/1
f 15/2/1 11/2/1 5/2/1
f 16/2/1 10/2/1 14/2/1
f 16/2/1 14/2/1 15/2/1
f 19/1/1 18/1/1 17/1/1
f 20/1/1 18/1/1 19/1/1
f 21/1/1 19/1/1 17/1/1
f 22/1/1 18/1/1 20/1/1
f 23/1/1 21/1/1 17/1/1
f 23/1/1 22/1/1 21/1/1
f 24/1/1 18/1/1 22/1/1
f 24/1/1 22/1/1 23/1/1
f 29/2/1 26/2/1 25/2/1
f 30/2/1 26/2/1 29/2/1
f 31/2/1 28/2/1 27/2/1
f 32/2/1 28/2/1 31/2/1
f 36/1/1 34/1/1 33/1/1
f 37/1/1 34/1/1 36/1/1
f 39/1/1 36/1/1 35/1/1
f 39/1/1 38/1/1 37/1/1
f 39/1/1 37/1/1 36/1/1
f 40/1/1 38/1/1 39/1/1
f 41/1/1 39/1/1 35/1/1
f 42/1/1 39/1/1 41/1/1
f 43/1/1 38/1/1 40/1/1
f 44/1/1 38/1/1 43/1/1
f 49/2/1 46/2/1 45/2/1
f 50/2/1 46/2/1 49/2/1
f 51/2/1 48/2/1 47/2/1
f 52/2/1 48/2/1 51/2/1
f 53/1/1 50/1/1 49/1/1
f 54/1/1 50/1/1 53/1/1
f 55/1/1 52/1/1 51/1/1
f 56/1/1 52/1/1 55/1/1
f 61/1/1 58/1/1 57/1/1
f 62/1/1 58/1/1 61/1/1
f 63/1/1 60/1/1 59/1/1
f 64/1/1 60/1/1 63/1/1
f 69/2/1 66/2/1 65/2/1
f 70/2/1 66/2/1 69/2/1
f 71/2/1 68/2/1 67/2/1
f 72/2/1 68/2/1 71/2/1
f 73/1/1 70/1/1 69/1/1
f 74/1/1 70/1/1 73/1/1
f 75/1/1 72/1/1 71/1/1
f 76/1/1 72/1/1 75/1/1
f 77/2/2 78/2/2 81/2/2
f 81/2/2 78/2/2 82/2/2
f 79/2/2 80/2/2 83/2/2
f 83/2/2 80/2/2 84/2/2
f 85/1/2 86/1/2 87/1/2
f 87/1/2 86/1/2 88/1/2
f 89/2/2 90/2/2 93/2/2
f 93/2/2 90/2/2 94/2/2
f 91/2/2 92/2/2 95/2/2
f 95/2/2 92/2/2 96/2/2
f 93/1/2 94/1/2 97/1/2
f 97/1/2 94/1/2 98/1/2
f 95/1/2 96/1/2 99/1/2
f 99/1/2 96/1/2 100/1/2
f 101/2/2 102/2/2 105/2/2
f 105/2/2 102/2/2 106/2/2
f 103/2/2 104/2/2 107/2/2
f 107/2/2 104/2/2 108/2/2
f 105/1/2 106/1/2 109/1/2
f 107/1/2 108/1/2 110/1/2
f 105/1/2 109/1/2 111/1/2
f 109/1/2 110/1/2 111/1/2
f 110/1/2 108/1/2 112/1/2
f 111/1/2 110/1/2 112/1/2
f 113/1/2 114/1/2 115/1/2
f 115/1/2 114/1/2 116/1/2
f 117/1/2 118/1/2 119/1/2
f 119/1/2 118/1/2 120/1/2
f 117/1/2 119/1/2 121/1/2
f 120/1/2 118/1/2 122/1/2
f 117/1/2 121/1/2 123/1/2
f 121/1/2 122/1/2 123/1/2
f 122/1/2 118/1/2 124/1/2
f 123/1/2 122/1/2 124/1/2
f 125/1/2 126/1/2 127/1/2
f 127/1/2 126/1/2 128/1/2
f 131/2/3 130/2/3 129/2/3
f 132/2/3 130/2/3 131/2/3
f 135/1/3 134/1/3 133/1/3
f 136/1/3 134/1/3 135/1/3
f 141/1/3 138/1/3 137/1/3
f 144/2/3 140/2/3 139/2/3
f 145/1/3 141/1/3 140/1/3
f 145/2/3 140/2/3 144/2/3
f 146/1/3 138/1/3 141/1/3
f 146/1/3 141/1/3 145/1/3
f 149/1/3 138/1/3 146/1/3
f 150/2/3 148/2/3 147/2/3
f 151/1/3 149/1/3 148/1/3
f 151/2/3 148/2/3 150/2/3
f 152/1/3 138/1/3 149/1/3
f 152/1/3 149/1/3 151/1/3
f 153/1/3 143/1/3 142/1/3
f 154/1/3 143/1/3 153/1/3
f 157/1/3 156/1/3 155/1/3
f 158/1/3 156/1/3 157/1/3
f 159/1/3 157/1/3 155/1/3
f 160/1/3 156/1/3 158/1/3
f 161/1/3 159/1/3 155/1/3
f 161/1/3 160/1/3 159/1/3
f 162/1/3 160/1/3 161/1/3
f 163/1/3 160/1/3 162/1/3
f 164/1/3 160/1/3 163/1/3
f 165/1/3 156/1/3 160/1/3
f 165/1/3 160/1/3 164/1/3
f 168/2/3 167/2/3 166/2/3
f 170/2/3 168/2/3 166/2/3
f 170/2/3 169/2/3 168/2/3
f 171/2/3 169/2/3 170/2/3
f 174/1/3 173/1/3 172/1/3
f 175/1/3 173/1/3 174/1/3
f 179/2/3 177/2/3 176/2/3
f 180/1/3 178/1/3 177/1/3
f 180/2/3 177/2/3 179/2/3
f 181/1/3 178/1/3 180/1/3
f 185/2/3 183/2/3 182/2/3
f 186/1/3 184/1/3 183/1/3
f 186/2/3 183/2/3 185/2/3
f 187/1/3 184/1/3 186/1/3
f 188/2/4 189/2/4 191/2/4
f 189/1/4 190/1/4 192/1/4
f 191/2/4 189/2/4 192/2/4
f 192/1/4 190/1/4 193/1/4
f 194/2/4 195/2/4 197/2/4
f 195/1/4 196/1/4 198/1/4
f 197/2/4 195/2/4 198/2/4
f 198/1/4 196/1/4 199/1/4
f 200/1/4 201/1/4 202/1/4
f 202/1/4 201/1/4 203/1/4
f 204/2/4 205/2/4 206/2/4
f 204/2/4 206/2/4 208/2/4
f 206/2/4 207/2/4 208/2/4
f 208/2/4 207/2/4 209/2/4
f 210/1/4 211/1/4 212/1/4
f 212/1/4 211/1/4 213/1/4
f 210/1/4 212/1/4 214/1/4
f 213/1/4 211/1/4 215/1/4
f 210/1/4 214/1/4 216/1/4
f 214/1/4 215/1/4 216/1/4
f 216/1/4 215/1/4 217/1/4
f 217/1/4 215/1/4 218/1/4
f 218/1/4 215/1/4 219/1/4
f 215/1/4 211/1/4 220/1/4
f 219/1/4 215/1/4 220/1/4
f 221/1/4 222/1/4 225/1/4
f 223/2/4 224/2/4 228/2/4
f 224/1/4 225/1/4 229/1/4
f 228/2/4 224/2/4 229/2/4
f 225/1/4 222/1/4 230/1/4
f 229/1/4 225/1/4 230/1/4
f 230/1/4 222/1/4 233/1/4
f 231/2/4 232/2/4 234/2/4
f 232/1/4 233/1/4 235/1/4
f 234/2/4 232/2/4 235/2/4
f 233/1/4 222/1/4 236/1/4
f 235/1/4 233/1/4 236/1/4
f 226/1/4 227/1/4 237/1/4
f 237/1/4 227/1/4 238/1/4
f 239/2/4 240/2/4 241/2/4
f 241/2/4 240/2/4 242/2/4
f 243/1/4 244/1/4 245/1/4
f 245/1/4 244/1/4 246/1/4
f 251/2/5 248/2/5 247/2/5
f 252/2/5 248/2/5 251/2/5
f 253/2/5 250/2/5 249/2/5
f 254/2/5 250/2/5 253/2/5
f 259/2/5 256/2/5 255/2/5
f 260/2/5 256/2/5 259/2/5
f 261/2/5 258/2/5 257/2/5
f 262/2/5 258/2/5 261/2/5
f 267/1/5 264/1/5 263/1/5
f 268/1/5 266/1/5 265/1/5
f 269/1/5 266/1/5 268/1/5
f 271/1/5 267/1/5 263/1/5
f 271/1/5 270/1/5 269/1/5
f 271/1/5 269/1/5 268/1/5
f 271/1/5 268/1/5 267/1/5
f 272/1/5 270/1/5 271/1/5
f 273/1/5 270/1/5 272/1/5
f 274/1/5 270/1/5 273/1/5
f 275/1/5 271/1/5 263/1/5
f 276/1/5 271/1/5 275/1/5
f 277/1/5 273/1/5 272/1/5
f 278/1/5 273/1/5 277/1/5
f 281/1/5 280/1/5 279/1/5
f 282/1/5 280/1/5 281/1/5
f 284/1/5 280/1/5 282/1/5
f 285/1/5 284/1/5 283/1/5
f 286/1/5 280/1/5 284/1/5
f 286/1/5 284/1/5 285/1/5
f 289/1/5 288/1/5 287/1/5
f 290/1/5 288/1/5 289/1/5
f 293/1/5 292/1/5 291/1/5
f 294/1/5 292/1/5 293/1/5
f 297/2/5 296/2/5 295/2/5
f 298/2/5 296/2/5 297/2/5
f 301/2/5 300/2/5 299/2/5
f 302/2/5 300/2/5 301/2/5
f 305/2/5 304/2/5 303/2/5
f 306/2/5 304/2/5 305/2/5
f 307/1/6 308/1/6 309/1/6
f 309/1/6 308/1/6 310/1/6
f 311/1/6 312/1/6 313/1/6
f 313/1/6 312/1/6 314/1/6
f 311/1/6 313/1/6 315/1/6
f 315/1/6 313/1/6 316/1/6
f 317/2/6 318/2/6 319/2/6
f 317/2/6 319/2/6 320/2/6
f 317/2/6 320/2/6 321/2/6
f 317/2/6 321/2/6 322/2/6
f 317/2/6 322/2/6 323/2/6
f 323/2/6 322/2/6 324/2/6
f 325/1/6 326/1/6 327/1/6
f 314/1/6 312/1/6 328/1/6
f 325/1/6 327/1/6 329/1/6
f 327/1/6 328/1/6 329/1/6
f 328/1/6 312/1/6 330/1/6
f 329/1/6 328/1/6 330/1/6
f 331/1/6 332/1/6 333/1/6
f 333/1/6 332/1/6 334/1/6
f 334/1/6 332/1/6 335/1/6
f 335/1/6 332/1/6 336/1/6
f 337/2/6 338/2/6 339/2/6
f 339/2/6 338/2/6 340/2/6
f 341/2/6 342/2/6 343/2/6
f 343/2/6 342/2/6 344/2/6
f 345/2/6 346/2/6 347/2/6
f 347/2/6 346/2/6 348/2/6
f 349/1/6 350/1/6 351/1/6
f 351/1/6 350/1/6 352/1/6
