# MagicaVoxel @ Ephtracy

# group
g Water_2

# material
mtllib Water_2.mtl
usemtl palette

# normals
vn -1 0 0
vn 1 0 0
vn 0 0 1
vn 0 0 -1
vn 0 -1 0
vn 0 1 0

# texcoords
vt 0.271484 0.5
vt 0.279297 0.5
vt 0.310547 0.5
vt 0.416016 0.5
vt 0.556641 0.5
vt 0.677734 0.5
vt 0.716797 0.5

# verts
v -47 0 -39
v -47 0 -59
v -47 1 -39
v -47 1 -41
v -47 2 -41
v -47 2 -42
v -47 3 -42
v -47 3 -43
v -47 3 -59
v -47 4 -43
v -47 4 -44
v -47 5 -44
v -47 5 -46
v -47 6 -44
v -47 6 -46
v -47 6 -47
v -47 6 -59
v -47 7 -47
v -47 7 -49
v -47 8 -49
v -47 8 -51
v -47 9 -39
v -47 9 -43
v -47 9 -46
v -47 9 -48
v -47 9 -51
v -47 9 -53
v -47 10 -48
v -47 10 -50
v -47 10 -53
v -47 10 -59
v -47 11 -50
v -47 11 -53
v -47 11 -59
v -27 0 -39
v -27 0 -59
v -27 1 -39
v -27 1 -41
v -27 2 -41
v -27 2 -42
v -27 3 -42
v -27 3 -43
v -27 3 -59
v -27 4 -43
v -27 4 -44
v -27 5 -44
v -27 5 -46
v -27 6 -44
v -27 6 -46
v -27 6 -47
v -27 6 -59
v -27 7 -47
v -27 7 -49
v -27 8 -49
v -27 8 -51
v -27 9 -39
v -27 9 -43
v -27 9 -46
v -27 9 -48
v -27 9 -51
v -27 9 -53
v -27 10 -48
v -27 10 -50
v -27 10 -53
v -27 10 -59
v -27 11 -50
v -27 11 -53
v -27 11 -59
v -47 0 -39
v -47 1 -39
v -47 9 -39
v -27 0 -39
v -27 1 -39
v -27 9 -39
v -47 9 -48
v -47 10 -48
v -27 9 -48
v -27 10 -48
v -47 10 -50
v -47 11 -50
v -27 10 -50
v -27 11 -50
v -47 0 -59
v -47 3 -59
v -47 6 -59
v -47 10 -59
v -47 11 -59
v -27 0 -59
v -27 3 -59
v -27 6 -59
v -27 10 -59
v -27 11 -59
v -47 0 -39
v -27 0 -39
v -47 0 -59
v -27 0 -59
v -47 9 -39
v -27 9 -39
v -47 9 -43
v -27 9 -43
v -47 9 -46
v -27 9 -46
v -47 9 -48
v -27 9 -48
v -47 10 -48
v -27 10 -48
v -47 10 -50
v -27 10 -50
v -47 11 -50
v -27 11 -50
v -47 11 -53
v -27 11 -53
v -47 11 -59
v -27 11 -59

# faces
f 3/3/1 2/3/1 1/3/1
f 4/3/1 2/3/1 3/3/1
f 5/7/1 4/7/1 3/7/1
f 5/3/1 2/3/1 4/3/1
f 6/3/1 2/3/1 5/3/1
f 7/7/1 6/7/1 5/7/1
f 7/3/1 2/3/1 6/3/1
f 8/3/1 2/3/1 7/3/1
f 9/3/1 2/3/1 8/3/1
f 10/7/1 8/7/1 7/7/1
f 10/2/1 9/2/1 8/2/1
f 11/2/1 9/2/1 10/2/1
f 12/6/1 11/6/1 10/6/1
f 12/2/1 9/2/1 11/2/1
f 13/2/1 9/2/1 12/2/1
f 14/6/1 12/6/1 10/6/1
f 14/4/1 13/4/1 12/4/1
f 15/2/1 9/2/1 13/2/1
f 15/4/1 13/4/1 14/4/1
f 16/2/1 9/2/1 15/2/1
f 17/2/1 9/2/1 16/2/1
f 18/4/1 16/4/1 15/4/1
f 18/1/1 17/1/1 16/1/1
f 19/1/1 17/1/1 18/1/1
f 20/4/1 19/4/1 18/4/1
f 20/1/1 17/1/1 19/1/1
f 21/1/1 17/1/1 20/1/1
f 22/7/1 5/7/1 3/7/1
f 22/7/1 7/7/1 5/7/1
f 22/7/1 10/7/1 7/7/1
f 23/6/1 14/6/1 10/6/1
f 23/7/1 10/7/1 22/7/1
f 23/6/1 15/6/1 14/6/1
f 24/4/1 21/4/1 20/4/1
f 24/6/1 15/6/1 23/6/1
f 24/4/1 20/4/1 18/4/1
f 24/4/1 18/4/1 15/4/1
f 25/4/1 21/4/1 24/4/1
f 26/1/1 17/1/1 21/1/1
f 26/4/1 21/4/1 25/4/1
f 27/1/1 17/1/1 26/1/1
f 28/4/1 27/4/1 26/4/1
f 28/4/1 26/4/1 25/4/1
f 29/4/1 27/4/1 28/4/1
f 30/1/1 17/1/1 27/1/1
f 30/4/1 27/4/1 29/4/1
f 31/1/1 17/1/1 30/1/1
f 32/4/1 30/4/1 29/4/1
f 33/5/1 31/5/1 30/5/1
f 33/4/1 30/4/1 32/4/1
f 34/5/1 31/5/1 33/5/1
f 35/3/2 36/3/2 37/3/2
f 37/3/2 36/3/2 38/3/2
f 37/7/2 38/7/2 39/7/2
f 38/3/2 36/3/2 39/3/2
f 39/3/2 36/3/2 40/3/2
f 39/7/2 40/7/2 41/7/2
f 40/3/2 36/3/2 41/3/2
f 41/3/2 36/3/2 42/3/2
f 42/3/2 36/3/2 43/3/2
f 41/7/2 42/7/2 44/7/2
f 42/2/2 43/2/2 44/2/2
f 44/2/2 43/2/2 45/2/2
f 44/6/2 45/6/2 46/6/2
f 45/2/2 43/2/2 46/2/2
f 46/2/2 43/2/2 47/2/2
f 44/6/2 46/6/2 48/6/2
f 46/4/2 47/4/2 48/4/2
f 47/2/2 43/2/2 49/2/2
f 48/4/2 47/4/2 49/4/2
f 49/2/2 43/2/2 50/2/2
f 50/2/2 43/2/2 51/2/2
f 49/4/2 50/4/2 52/4/2
f 50/1/2 51/1/2 52/1/2
f 52/1/2 51/1/2 53/1/2
f 52/4/2 53/4/2 54/4/2
f 53/1/2 51/1/2 54/1/2
f 54/1/2 51/1/2 55/1/2
f 37/7/2 39/7/2 56/7/2
f 39/7/2 41/7/2 56/7/2
f 41/7/2 44/7/2 56/7/2
f 44/6/2 48/6/2 57/6/2
f 56/7/2 44/7/2 57/7/2
f 48/6/2 49/6/2 57/6/2
f 54/4/2 55/4/2 58/4/2
f 57/6/2 49/6/2 58/6/2
f 52/4/2 54/4/2 58/4/2
f 49/4/2 52/4/2 58/4/2
f 58/4/2 55/4/2 59/4/2
f 55/1/2 51/1/2 60/1/2
f 59/4/2 55/4/2 60/4/2
f 60/1/2 51/1/2 61/1/2
f 60/4/2 61/4/2 62/4/2
f 59/4/2 60/4/2 62/4/2
f 62/4/2 61/4/2 63/4/2
f 61/1/2 51/1/2 64/1/2
f 63/4/2 61/4/2 64/4/2
f 64/1/2 51/1/2 65/1/2
f 63/4/2 64/4/2 66/4/2
f 64/5/2 65/5/2 67/5/2
f 66/4/2 64/4/2 67/4/2
f 67/5/2 65/5/2 68/5/2
f 72/3/3 70/3/3 69/3/3
f 73/7/3 71/7/3 70/7/3
f 73/3/3 70/3/3 72/3/3
f 74/7/3 71/7/3 73/7/3
f 77/4/3 76/4/3 75/4/3
f 78/4/3 76/4/3 77/4/3
f 81/4/3 80/4/3 79/4/3
f 82/4/3 80/4/3 81/4/3
f 83/3/4 84/3/4 88/3/4
f 84/2/4 85/2/4 89/2/4
f 88/3/4 84/3/4 89/3/4
f 85/1/4 86/1/4 90/1/4
f 89/2/4 85/2/4 90/2/4
f 86/5/4 87/5/4 91/5/4
f 90/1/4 86/1/4 91/1/4
f 91/5/4 87/5/4 92/5/4
f 95/3/5 94/3/5 93/3/5
f 96/3/5 94/3/5 95/3/5
f 97/7/6 98/7/6 99/7/6
f 99/7/6 98/7/6 100/7/6
f 99/6/6 100/6/6 101/6/6
f 101/6/6 100/6/6 102/6/6
f 101/4/6 102/4/6 103/4/6
f 103/4/6 102/4/6 104/4/6
f 105/4/6 106/4/6 107/4/6
f 107/4/6 106/4/6 108/4/6
f 109/4/6 110/4/6 111/4/6
f 111/4/6 110/4/6 112/4/6
f 111/5/6 112/5/6 113/5/6
f 113/5/6 112/5/6 114/5/6
