# MagicaVoxel @ Ephtracy

# group
g Chicken_Male

# material
mtllib Chicken_Male.mtl
usemtl palette

# normals
vn -1 0 0
vn 1 0 0
vn 0 0 1
vn 0 0 -1
vn 0 -1 0
vn 0 1 0

# texcoords
vt 0.146484 0.5
vt 0.224609 0.5
vt 0.318359 0.5
vt 0.529297 0.5
vt 0.728516 0.5

# verts
v -13 1 9
v -13 1 -15
v -13 6 9
v -13 6 -15
v -13 17 5
v -13 17 3
v -13 17 -9
v -13 17 -11
v -13 19 9
v -13 19 5
v -13 19 3
v -13 19 -9
v -13 19 -11
v -13 19 -15
v -13 20 9
v -13 20 -15
v -11 20 9
v -11 20 -15
v -11 21 9
v -11 21 -15
v -9 21 9
v -9 21 -15
v -9 22 9
v -9 22 -15
v -7 22 9
v -7 22 -15
v -7 23 9
v -7 23 -15
v -6 5 8
v -6 5 -14
v -6 6 8
v -6 6 -14
v -5 6 5
v -5 6 3
v -5 6 -9
v -5 6 -11
v -5 20 5
v -5 20 3
v -5 20 -9
v -5 20 -11
v -5 21 9
v -5 21 5
v -5 21 3
v -5 21 -9
v -5 21 -11
v -5 21 -15
v -5 22 9
v -5 22 5
v -5 22 3
v -5 22 -9
v -5 22 -11
v -5 22 -15
v -5 23 9
v -5 23 -15
v -5 24 9
v -5 24 -15
v -3 1 9
v -3 1 5
v -3 1 3
v -3 1 -9
v -3 1 -11
v -3 1 -15
v -3 6 9
v -3 6 5
v -3 6 3
v -3 6 -9
v -3 6 -11
v -3 6 -15
v -1 19 5
v -1 19 3
v -1 19 -9
v -1 19 -11
v -1 20 5
v -1 20 3
v -1 20 -9
v -1 20 -11
v -1 21 9
v -1 21 5
v -1 21 3
v -1 21 -9
v -1 21 -11
v -1 21 -15
v -1 22 9
v -1 22 5
v -1 22 3
v -1 22 -9
v -1 22 -11
v -1 22 -15
v 1 18 5
v 1 18 3
v 1 18 -9
v 1 18 -11
v 1 19 5
v 1 19 3
v 1 19 -9
v 1 19 -11
v 1 20 9
v 1 20 5
v 1 20 3
v 1 20 -9
v 1 20 -11
v 1 20 -15
v 1 21 9
v 1 21 5
v 1 21 3
v 1 21 -9
v 1 21 -11
v 1 21 -15
v 3 17 5
v 3 17 3
v 3 17 -9
v 3 17 -11
v 3 18 5
v 3 18 3
v 3 18 -9
v 3 18 -11
v 3 19 9
v 3 19 5
v 3 19 3
v 3 19 -9
v 3 19 -11
v 3 19 -15
v 3 20 9
v 3 20 5
v 3 20 3
v 3 20 -9
v 3 20 -11
v 3 20 -15
v 4 5 8
v 4 5 -14
v 4 6 8
v 4 6 -14
v -12 5 8
v -12 5 -14
v -12 6 8
v -12 6 -14
v -11 17 5
v -11 17 3
v -11 17 -9
v -11 17 -11
v -11 18 5
v -11 18 3
v -11 18 -9
v -11 18 -11
v -11 19 9
v -11 19 5
v -11 19 3
v -11 19 -9
v -11 19 -11
v -11 19 -15
v -11 20 9
v -11 20 5
v -11 20 3
v -11 20 -9
v -11 20 -11
v -11 20 -15
v -9 18 5
v -9 18 3
v -9 18 -9
v -9 18 -11
v -9 19 5
v -9 19 3
v -9 19 -9
v -9 19 -11
v -9 20 9
v -9 20 5
v -9 20 3
v -9 20 -9
v -9 20 -11
v -9 20 -15
v -9 21 9
v -9 21 5
v -9 21 3
v -9 21 -9
v -9 21 -11
v -9 21 -15
v -7 19 5
v -7 19 3
v -7 19 -9
v -7 19 -11
v -7 20 5
v -7 20 3
v -7 20 -9
v -7 20 -11
v -7 21 9
v -7 21 5
v -7 21 3
v -7 21 -9
v -7 21 -11
v -7 21 -15
v -7 22 9
v -7 22 5
v -7 22 3
v -7 22 -9
v -7 22 -11
v -7 22 -15
v -5 1 9
v -5 1 5
v -5 1 3
v -5 1 -9
v -5 1 -11
v -5 1 -15
v -5 6 9
v -5 6 5
v -5 6 3
v -5 6 -9
v -5 6 -11
v -5 6 -15
v -3 6 5
v -3 6 3
v -3 6 -9
v -3 6 -11
v -3 20 5
v -3 20 3
v -3 20 -9
v -3 20 -11
v -3 21 9
v -3 21 5
v -3 21 3
v -3 21 -9
v -3 21 -11
v -3 21 -15
v -3 22 9
v -3 22 5
v -3 22 3
v -3 22 -9
v -3 22 -11
v -3 22 -15
v -3 23 9
v -3 23 -15
v -3 24 9
v -3 24 -15
v -2 5 8
v -2 5 -14
v -2 6 8
v -2 6 -14
v -1 22 9
v -1 22 -15
v -1 23 9
v -1 23 -15
v 1 21 9
v 1 21 -15
v 1 22 9
v 1 22 -15
v 3 20 9
v 3 20 -15
v 3 21 9
v 3 21 -15
v 5 1 9
v 5 1 -15
v 5 6 9
v 5 6 -15
v 5 17 5
v 5 17 3
v 5 17 -9
v 5 17 -11
v 5 19 9
v 5 19 5
v 5 19 3
v 5 19 -9
v 5 19 -11
v 5 19 -15
v 5 20 9
v 5 20 -15
v -13 1 9
v -13 6 9
v -13 19 9
v -13 20 9
v -11 19 9
v -11 20 9
v -11 21 9
v -9 20 9
v -9 21 9
v -9 22 9
v -7 21 9
v -7 22 9
v -7 23 9
v -5 1 9
v -5 6 9
v -5 21 9
v -5 22 9
v -5 23 9
v -5 24 9
v -3 1 9
v -3 6 9
v -3 21 9
v -3 22 9
v -3 23 9
v -3 24 9
v -1 21 9
v -1 22 9
v -1 23 9
v 1 20 9
v 1 21 9
v 1 22 9
v 3 19 9
v 3 20 9
v 3 21 9
v 5 1 9
v 5 6 9
v 5 19 9
v 5 20 9
v -13 17 5
v -13 19 5
v -11 17 5
v -11 18 5
v -11 19 5
v -11 20 5
v -9 18 5
v -9 19 5
v -9 20 5
v -9 21 5
v -7 19 5
v -7 20 5
v -7 21 5
v -7 22 5
v -5 1 5
v -5 6 5
v -5 20 5
v -5 21 5
v -5 22 5
v -3 1 5
v -3 6 5
v -3 20 5
v -3 21 5
v -3 22 5
v -1 19 5
v -1 20 5
v -1 21 5
v -1 22 5
v 1 18 5
v 1 19 5
v 1 20 5
v 1 21 5
v 3 17 5
v 3 18 5
v 3 19 5
v 3 20 5
v 5 17 5
v 5 19 5
v -13 17 -9
v -13 19 -9
v -11 17 -9
v -11 18 -9
v -11 19 -9
v -11 20 -9
v -9 18 -9
v -9 19 -9
v -9 20 -9
v -9 21 -9
v -7 19 -9
v -7 20 -9
v -7 21 -9
v -7 22 -9
v -5 1 -9
v -5 6 -9
v -5 20 -9
v -5 21 -9
v -5 22 -9
v -3 1 -9
v -3 6 -9
v -3 20 -9
v -3 21 -9
v -3 22 -9
v -1 19 -9
v -1 20 -9
v -1 21 -9
v -1 22 -9
v 1 18 -9
v 1 19 -9
v 1 20 -9
v 1 21 -9
v 3 17 -9
v 3 18 -9
v 3 19 -9
v 3 20 -9
v 5 17 -9
v 5 19 -9
v -12 5 -14
v -12 6 -14
v -6 5 -14
v -6 6 -14
v -2 5 -14
v -2 6 -14
v 4 5 -14
v 4 6 -14
v -12 5 8
v -12 6 8
v -6 5 8
v -6 6 8
v -2 5 8
v -2 6 8
v 4 5 8
v 4 6 8
v -13 17 3
v -13 19 3
v -11 17 3
v -11 18 3
v -11 19 3
v -11 20 3
v -9 18 3
v -9 19 3
v -9 20 3
v -9 21 3
v -7 19 3
v -7 20 3
v -7 21 3
v -7 22 3
v -5 1 3
v -5 6 3
v -5 20 3
v -5 21 3
v -5 22 3
v -3 1 3
v -3 6 3
v -3 20 3
v -3 21 3
v -3 22 3
v -1 19 3
v -1 20 3
v -1 21 3
v -1 22 3
v 1 18 3
v 1 19 3
v 1 20 3
v 1 21 3
v 3 17 3
v 3 18 3
v 3 19 3
v 3 20 3
v 5 17 3
v 5 19 3
v -13 17 -11
v -13 19 -11
v -11 17 -11
v -11 18 -11
v -11 19 -11
v -11 20 -11
v -9 18 -11
v -9 19 -11
v -9 20 -11
v -9 21 -11
v -7 19 -11
v -7 20 -11
v -7 21 -11
v -7 22 -11
v -5 1 -11
v -5 6 -11
v -5 20 -11
v -5 21 -11
v -5 22 -11
v -3 1 -11
v -3 6 -11
v -3 20 -11
v -3 21 -11
v -3 22 -11
v -1 19 -11
v -1 20 -11
v -1 21 -11
v -1 22 -11
v 1 18 -11
v 1 19 -11
v 1 20 -11
v 1 21 -11
v 3 17 -11
v 3 18 -11
v 3 19 -11
v 3 20 -11
v 5 17 -11
v 5 19 -11
v -13 1 -15
v -13 6 -15
v -13 19 -15
v -13 20 -15
v -11 19 -15
v -11 20 -15
v -11 21 -15
v -9 20 -15
v -9 21 -15
v -9 22 -15
v -7 21 -15
v -7 22 -15
v -7 23 -15
v -5 1 -15
v -5 6 -15
v -5 21 -15
v -5 22 -15
v -5 23 -15
v -5 24 -15
v -3 1 -15
v -3 6 -15
v -3 21 -15
v -3 22 -15
v -3 23 -15
v -3 24 -15
v -1 21 -15
v -1 22 -15
v -1 23 -15
v 1 20 -15
v 1 21 -15
v 1 22 -15
v 3 19 -15
v 3 20 -15
v 3 21 -15
v 5 1 -15
v 5 6 -15
v 5 19 -15
v 5 20 -15
v -13 1 9
v -5 1 9
v -3 1 9
v 5 1 9
v -5 1 5
v -3 1 5
v -5 1 3
v -3 1 3
v -5 1 -9
v -3 1 -9
v -5 1 -11
v -3 1 -11
v -13 1 -15
v -5 1 -15
v -3 1 -15
v 5 1 -15
v -13 17 5
v -11 17 5
v 3 17 5
v 5 17 5
v -13 17 3
v -11 17 3
v 3 17 3
v 5 17 3
v -13 17 -9
v -11 17 -9
v 3 17 -9
v 5 17 -9
v -13 17 -11
v -11 17 -11
v 3 17 -11
v 5 17 -11
v -11 18 5
v -9 18 5
v 1 18 5
v 3 18 5
v -11 18 3
v -9 18 3
v 1 18 3
v 3 18 3
v -11 18 -9
v -9 18 -9
v 1 18 -9
v 3 18 -9
v -11 18 -11
v -9 18 -11
v 1 18 -11
v 3 18 -11
v -13 19 9
v -11 19 9
v 3 19 9
v 5 19 9
v -13 19 5
v -11 19 5
v -9 19 5
v -7 19 5
v -1 19 5
v 1 19 5
v 3 19 5
v 5 19 5
v -13 19 3
v -11 19 3
v -9 19 3
v -7 19 3
v -1 19 3
v 1 19 3
v 3 19 3
v 5 19 3
v -13 19 -9
v -11 19 -9
v -9 19 -9
v -7 19 -9
v -1 19 -9
v 1 19 -9
v 3 19 -9
v 5 19 -9
v -13 19 -11
v -11 19 -11
v -9 19 -11
v -7 19 -11
v -1 19 -11
v 1 19 -11
v 3 19 -11
v 5 19 -11
v -13 19 -15
v -11 19 -15
v 3 19 -15
v 5 19 -15
v -11 20 9
v -9 20 9
v 1 20 9
v 3 20 9
v -11 20 5
v -9 20 5
v -7 20 5
v -5 20 5
v -3 20 5
v -1 20 5
v 1 20 5
v 3 20 5
v -11 20 3
v -9 20 3
v -7 20 3
v -5 20 3
v -3 20 3
v -1 20 3
v 1 20 3
v 3 20 3
v -11 20 -9
v -9 20 -9
v -7 20 -9
v -5 20 -9
v -3 20 -9
v -1 20 -9
v 1 20 -9
v 3 20 -9
v -11 20 -11
v -9 20 -11
v -7 20 -11
v -5 20 -11
v -3 20 -11
v -1 20 -11
v 1 20 -11
v 3 20 -11
v -11 20 -15
v -9 20 -15
v 1 20 -15
v 3 20 -15
v -9 21 9
v -7 21 9
v -5 21 9
v -3 21 9
v -1 21 9
v 1 21 9
v -9 21 5
v -7 21 5
v -5 21 5
v -3 21 5
v -1 21 5
v 1 21 5
v -9 21 3
v -7 21 3
v -5 21 3
v -3 21 3
v -1 21 3
v 1 21 3
v -9 21 -9
v -7 21 -9
v -5 21 -9
v -3 21 -9
v -1 21 -9
v 1 21 -9
v -9 21 -11
v -7 21 -11
v -5 21 -11
v -3 21 -11
v -1 21 -11
v 1 21 -11
v -9 21 -15
v -7 21 -15
v -5 21 -15
v -3 21 -15
v -1 21 -15
v 1 21 -15
v -7 22 9
v -5 22 9
v -3 22 9
v -1 22 9
v -7 22 5
v -5 22 5
v -3 22 5
v -1 22 5
v -7 22 3
v -5 22 3
v -3 22 3
v -1 22 3
v -7 22 -9
v -5 22 -9
v -3 22 -9
v -1 22 -9
v -7 22 -11
v -5 22 -11
v -3 22 -11
v -1 22 -11
v -7 22 -15
v -5 22 -15
v -3 22 -15
v -1 22 -15
v -12 5 8
v -6 5 8
v -2 5 8
v 4 5 8
v -12 5 -14
v -6 5 -14
v -2 5 -14
v 4 5 -14
v -13 6 9
v -5 6 9
v -3 6 9
v 5 6 9
v -12 6 8
v -6 6 8
v -2 6 8
v 4 6 8
v -5 6 5
v -3 6 5
v -5 6 3
v -3 6 3
v -5 6 -9
v -3 6 -9
v -5 6 -11
v -3 6 -11
v -12 6 -14
v -6 6 -14
v -2 6 -14
v 4 6 -14
v -13 6 -15
v -5 6 -15
v -3 6 -15
v 5 6 -15
v -13 20 9
v -11 20 9
v 3 20 9
v 5 20 9
v -13 20 -15
v -11 20 -15
v 3 20 -15
v 5 20 -15
v -11 21 9
v -9 21 9
v 1 21 9
v 3 21 9
v -11 21 -15
v -9 21 -15
v 1 21 -15
v 3 21 -15
v -9 22 9
v -7 22 9
v -1 22 9
v 1 22 9
v -9 22 -15
v -7 22 -15
v -1 22 -15
v 1 22 -15
v -7 23 9
v -5 23 9
v -3 23 9
v -1 23 9
v -7 23 -15
v -5 23 -15
v -3 23 -15
v -1 23 -15
v -5 24 9
v -3 24 9
v -5 24 -15
v -3 24 -15

# faces
f 3/3/1 2/3/1 1/3/1
f 4/3/1 2/3/1 3/3/1
f 10/3/1 6/3/1 5/3/1
f 11/3/1 6/3/1 10/3/1
f 12/3/1 8/3/1 7/3/1
f 13/3/1 8/3/1 12/3/1
f 15/1/1 11/1/1 10/1/1
f 15/1/1 14/1/1 13/1/1
f 15/1/1 13/1/1 12/1/1
f 15/1/1 12/1/1 11/1/1
f 15/1/1 10/1/1 9/1/1
f 16/1/1 14/1/1 15/1/1
f 19/1/1 18/1/1 17/1/1
f 20/1/1 18/1/1 19/1/1
f 23/1/1 22/1/1 21/1/1
f 24/1/1 22/1/1 23/1/1
f 27/1/1 26/1/1 25/1/1
f 28/1/1 26/1/1 27/1/1
f 31/3/1 30/3/1 29/3/1
f 32/3/1 30/3/1 31/3/1
f 37/3/1 34/3/1 33/3/1
f 38/3/1 34/3/1 37/3/1
f 39/3/1 36/3/1 35/3/1
f 40/3/1 36/3/1 39/3/1
f 47/3/1 42/3/1 41/3/1
f 48/3/1 42/3/1 47/3/1
f 49/3/1 44/3/1 43/3/1
f 50/3/1 44/3/1 49/3/1
f 51/3/1 46/3/1 45/3/1
f 52/3/1 46/3/1 51/3/1
f 55/1/1 54/1/1 53/1/1
f 56/1/1 54/1/1 55/1/1
f 63/3/1 58/3/1 57/3/1
f 64/3/1 58/3/1 63/3/1
f 65/3/1 60/3/1 59/3/1
f 66/3/1 60/3/1 65/3/1
f 67/3/1 62/3/1 61/3/1
f 68/3/1 62/3/1 67/3/1
f 73/3/1 70/3/1 69/3/1
f 74/3/1 70/3/1 73/3/1
f 75/3/1 72/3/1 71/3/1
f 76/3/1 72/3/1 75/3/1
f 83/1/1 78/1/1 77/1/1
f 84/1/1 78/1/1 83/1/1
f 85/1/1 80/1/1 79/1/1
f 86/1/1 80/1/1 85/1/1
f 87/1/1 82/1/1 81/1/1
f 88/1/1 82/1/1 87/1/1
f 93/3/1 90/3/1 89/3/1
f 94/3/1 90/3/1 93/3/1
f 95/3/1 92/3/1 91/3/1
f 96/3/1 92/3/1 95/3/1
f 103/1/1 98/1/1 97/1/1
f 104/1/1 98/1/1 103/1/1
f 105/1/1 100/1/1 99/1/1
f 106/1/1 100/1/1 105/1/1
f 107/1/1 102/1/1 101/1/1
f 108/1/1 102/1/1 107/1/1
f 113/3/1 110/3/1 109/3/1
f 114/3/1 110/3/1 113/3/1
f 115/3/1 112/3/1 111/3/1
f 116/3/1 112/3/1 115/3/1
f 123/1/1 118/1/1 117/1/1
f 124/1/1 118/1/1 123/1/1
f 125/1/1 120/1/1 119/1/1
f 126/1/1 120/1/1 125/1/1
f 127/1/1 122/1/1 121/1/1
f 128/1/1 122/1/1 127/1/1
f 131/3/1 130/3/1 129/3/1
f 132/3/1 130/3/1 131/3/1
f 133/3/2 134/3/2 135/3/2
f 135/3/2 134/3/2 136/3/2
f 137/3/2 138/3/2 141/3/2
f 141/3/2 138/3/2 142/3/2
f 139/3/2 140/3/2 143/3/2
f 143/3/2 140/3/2 144/3/2
f 145/1/2 146/1/2 151/1/2
f 151/1/2 146/1/2 152/1/2
f 147/1/2 148/1/2 153/1/2
f 153/1/2 148/1/2 154/1/2
f 149/1/2 150/1/2 155/1/2
f 155/1/2 150/1/2 156/1/2
f 157/3/2 158/3/2 161/3/2
f 161/3/2 158/3/2 162/3/2
f 159/3/2 160/3/2 163/3/2
f 163/3/2 160/3/2 164/3/2
f 165/1/2 166/1/2 171/1/2
f 171/1/2 166/1/2 172/1/2
f 167/1/2 168/1/2 173/1/2
f 173/1/2 168/1/2 174/1/2
f 169/1/2 170/1/2 175/1/2
f 175/1/2 170/1/2 176/1/2
f 177/3/2 178/3/2 181/3/2
f 181/3/2 178/3/2 182/3/2
f 179/3/2 180/3/2 183/3/2
f 183/3/2 180/3/2 184/3/2
f 185/1/2 186/1/2 191/1/2
f 191/1/2 186/1/2 192/1/2
f 187/1/2 188/1/2 193/1/2
f 193/1/2 188/1/2 194/1/2
f 189/1/2 190/1/2 195/1/2
f 195/1/2 190/1/2 196/1/2
f 197/3/2 198/3/2 203/3/2
f 203/3/2 198/3/2 204/3/2
f 199/3/2 200/3/2 205/3/2
f 205/3/2 200/3/2 206/3/2
f 201/3/2 202/3/2 207/3/2
f 207/3/2 202/3/2 208/3/2
f 209/3/2 210/3/2 213/3/2
f 213/3/2 210/3/2 214/3/2
f 211/3/2 212/3/2 215/3/2
f 215/3/2 212/3/2 216/3/2
f 217/3/2 218/3/2 223/3/2
f 223/3/2 218/3/2 224/3/2
f 219/3/2 220/3/2 225/3/2
f 225/3/2 220/3/2 226/3/2
f 221/3/2 222/3/2 227/3/2
f 227/3/2 222/3/2 228/3/2
f 229/1/2 230/1/2 231/1/2
f 231/1/2 230/1/2 232/1/2
f 233/3/2 234/3/2 235/3/2
f 235/3/2 234/3/2 236/3/2
f 237/1/2 238/1/2 239/1/2
f 239/1/2 238/1/2 240/1/2
f 241/1/2 242/1/2 243/1/2
f 243/1/2 242/1/2 244/1/2
f 245/1/2 246/1/2 247/1/2
f 247/1/2 246/1/2 248/1/2
f 249/3/2 250/3/2 251/3/2
f 251/3/2 250/3/2 252/3/2
f 253/3/2 254/3/2 258/3/2
f 258/3/2 254/3/2 259/3/2
f 255/3/2 256/3/2 260/3/2
f 260/3/2 256/3/2 261/3/2
f 258/1/2 259/1/2 263/1/2
f 261/1/2 262/1/2 263/1/2
f 260/1/2 261/1/2 263/1/2
f 259/1/2 260/1/2 263/1/2
f 257/1/2 258/1/2 263/1/2
f 263/1/2 262/1/2 264/1/2
f 269/1/3 268/1/3 267/1/3
f 270/1/3 268/1/3 269/1/3
f 272/1/3 271/1/3 270/1/3
f 273/1/3 271/1/3 272/1/3
f 275/1/3 274/1/3 273/1/3
f 276/1/3 274/1/3 275/1/3
f 278/3/3 266/3/3 265/3/3
f 279/3/3 266/3/3 278/3/3
f 281/1/3 277/1/3 276/1/3
f 282/1/3 277/1/3 281/1/3
f 286/3/3 281/3/3 280/3/3
f 286/3/3 282/3/3 281/3/3
f 287/3/3 282/3/3 286/3/3
f 288/1/3 283/1/3 282/1/3
f 288/3/3 282/3/3 287/3/3
f 289/1/3 283/1/3 288/1/3
f 291/1/3 288/1/3 287/1/3
f 292/1/3 288/1/3 291/1/3
f 294/1/3 291/1/3 290/1/3
f 295/1/3 291/1/3 294/1/3
f 297/1/3 294/1/3 293/1/3
f 298/1/3 294/1/3 297/1/3
f 299/3/3 285/3/3 284/3/3
f 300/3/3 285/3/3 299/3/3
f 301/1/3 297/1/3 296/1/3
f 302/1/3 297/1/3 301/1/3
f 305/3/3 304/3/3 303/3/3
f 306/3/3 304/3/3 305/3/3
f 307/3/3 304/3/3 306/3/3
f 309/3/3 308/3/3 307/3/3
f 309/3/3 307/3/3 306/3/3
f 310/3/3 308/3/3 309/3/3
f 311/3/3 308/3/3 310/3/3
f 313/3/3 312/3/3 311/3/3
f 313/3/3 311/3/3 310/3/3
f 314/3/3 312/3/3 313/3/3
f 315/3/3 312/3/3 314/3/3
f 319/3/3 316/3/3 315/3/3
f 319/3/3 315/3/3 314/3/3
f 320/3/3 316/3/3 319/3/3
f 321/3/3 316/3/3 320/3/3
f 322/3/3 318/3/3 317/3/3
f 322/3/3 319/3/3 318/3/3
f 322/3/3 320/3/3 319/3/3
f 323/3/3 320/3/3 322/3/3
f 324/3/3 320/3/3 323/3/3
f 325/3/3 320/3/3 324/3/3
f 328/3/3 326/3/3 325/3/3
f 328/3/3 325/3/3 324/3/3
f 329/3/3 326/3/3 328/3/3
f 330/3/3 326/3/3 329/3/3
f 332/3/3 328/3/3 327/3/3
f 332/3/3 329/3/3 328/3/3
f 333/3/3 329/3/3 332/3/3
f 334/3/3 329/3/3 333/3/3
f 336/3/3 332/3/3 331/3/3
f 336/3/3 333/3/3 332/3/3
f 337/3/3 333/3/3 336/3/3
f 338/3/3 333/3/3 337/3/3
f 339/3/3 336/3/3 335/3/3
f 339/3/3 337/3/3 336/3/3
f 340/3/3 337/3/3 339/3/3
f 343/3/3 342/3/3 341/3/3
f 344/3/3 342/3/3 343/3/3
f 345/3/3 342/3/3 344/3/3
f 347/3/3 346/3/3 345/3/3
f 347/3/3 345/3/3 344/3/3
f 348/3/3 346/3/3 347/3/3
f 349/3/3 346/3/3 348/3/3
f 351/3/3 350/3/3 349/3/3
f 351/3/3 349/3/3 348/3/3
f 352/3/3 350/3/3 351/3/3
f 353/3/3 350/3/3 352/3/3
f 357/3/3 354/3/3 353/3/3
f 357/3/3 353/3/3 352/3/3
f 358/3/3 354/3/3 357/3/3
f 359/3/3 354/3/3 358/3/3
f 360/3/3 356/3/3 355/3/3
f 360/3/3 357/3/3 356/3/3
f 360/3/3 358/3/3 357/3/3
f 361/3/3 358/3/3 360/3/3
f 362/3/3 358/3/3 361/3/3
f 363/3/3 358/3/3 362/3/3
f 366/3/3 364/3/3 363/3/3
f 366/3/3 363/3/3 362/3/3
f 367/3/3 364/3/3 366/3/3
f 368/3/3 364/3/3 367/3/3
f 370/3/3 366/3/3 365/3/3
f 370/3/3 367/3/3 366/3/3
f 371/3/3 367/3/3 370/3/3
f 372/3/3 367/3/3 371/3/3
f 374/3/3 370/3/3 369/3/3
f 374/3/3 371/3/3 370/3/3
f 375/3/3 371/3/3 374/3/3
f 376/3/3 371/3/3 375/3/3
f 377/3/3 374/3/3 373/3/3
f 377/3/3 375/3/3 374/3/3
f 378/3/3 375/3/3 377/3/3
f 381/3/3 380/3/3 379/3/3
f 382/3/3 380/3/3 381/3/3
f 385/3/3 384/3/3 383/3/3
f 386/3/3 384/3/3 385/3/3
f 387/3/4 388/3/4 389/3/4
f 389/3/4 388/3/4 390/3/4
f 391/3/4 392/3/4 393/3/4
f 393/3/4 392/3/4 394/3/4
f 395/3/4 396/3/4 397/3/4
f 397/3/4 396/3/4 398/3/4
f 398/3/4 396/3/4 399/3/4
f 399/3/4 400/3/4 401/3/4
f 398/3/4 399/3/4 401/3/4
f 401/3/4 400/3/4 402/3/4
f 402/3/4 400/3/4 403/3/4
f 403/3/4 404/3/4 405/3/4
f 402/3/4 403/3/4 405/3/4
f 405/3/4 404/3/4 406/3/4
f 406/3/4 404/3/4 407/3/4
f 407/3/4 408/3/4 411/3/4
f 406/3/4 407/3/4 411/3/4
f 411/3/4 408/3/4 412/3/4
f 412/3/4 408/3/4 413/3/4
f 409/3/4 410/3/4 414/3/4
f 410/3/4 411/3/4 414/3/4
f 411/3/4 412/3/4 414/3/4
f 414/3/4 412/3/4 415/3/4
f 415/3/4 412/3/4 416/3/4
f 416/3/4 412/3/4 417/3/4
f 417/3/4 418/3/4 420/3/4
f 416/3/4 417/3/4 420/3/4
f 420/3/4 418/3/4 421/3/4
f 421/3/4 418/3/4 422/3/4
f 419/3/4 420/3/4 424/3/4
f 420/3/4 421/3/4 424/3/4
f 424/3/4 421/3/4 425/3/4
f 425/3/4 421/3/4 426/3/4
f 423/3/4 424/3/4 428/3/4
f 424/3/4 425/3/4 428/3/4
f 428/3/4 425/3/4 429/3/4
f 429/3/4 425/3/4 430/3/4
f 427/3/4 428/3/4 431/3/4
f 428/3/4 429/3/4 431/3/4
f 431/3/4 429/3/4 432/3/4
f 433/3/4 434/3/4 435/3/4
f 435/3/4 434/3/4 436/3/4
f 436/3/4 434/3/4 437/3/4
f 437/3/4 438/3/4 439/3/4
f 436/3/4 437/3/4 439/3/4
f 439/3/4 438/3/4 440/3/4
f 440/3/4 438/3/4 441/3/4
f 441/3/4 442/3/4 443/3/4
f 440/3/4 441/3/4 443/3/4
f 443/3/4 442/3/4 444/3/4
f 444/3/4 442/3/4 445/3/4
f 445/3/4 446/3/4 449/3/4
f 444/3/4 445/3/4 449/3/4
f 449/3/4 446/3/4 450/3/4
f 450/3/4 446/3/4 451/3/4
f 447/3/4 448/3/4 452/3/4
f 448/3/4 449/3/4 452/3/4
f 449/3/4 450/3/4 452/3/4
f 452/3/4 450/3/4 453/3/4
f 453/3/4 450/3/4 454/3/4
f 454/3/4 450/3/4 455/3/4
f 455/3/4 456/3/4 458/3/4
f 454/3/4 455/3/4 458/3/4
f 458/3/4 456/3/4 459/3/4
f 459/3/4 456/3/4 460/3/4
f 457/3/4 458/3/4 462/3/4
f 458/3/4 459/3/4 462/3/4
f 462/3/4 459/3/4 463/3/4
f 463/3/4 459/3/4 464/3/4
f 461/3/4 462/3/4 466/3/4
f 462/3/4 463/3/4 466/3/4
f 466/3/4 463/3/4 467/3/4
f 467/3/4 463/3/4 468/3/4
f 465/3/4 466/3/4 469/3/4
f 466/3/4 467/3/4 469/3/4
f 469/3/4 467/3/4 470/3/4
f 473/1/4 474/1/4 475/1/4
f 475/1/4 474/1/4 476/1/4
f 476/1/4 477/1/4 478/1/4
f 478/1/4 477/1/4 479/1/4
f 479/1/4 480/1/4 481/1/4
f 481/1/4 480/1/4 482/1/4
f 471/3/4 472/3/4 484/3/4
f 484/3/4 472/3/4 485/3/4
f 482/1/4 483/1/4 487/1/4
f 487/1/4 483/1/4 488/1/4
f 486/3/4 487/3/4 492/3/4
f 487/3/4 488/3/4 492/3/4
f 492/3/4 488/3/4 493/3/4
f 488/1/4 489/1/4 494/1/4
f 493/3/4 488/3/4 494/3/4
f 494/1/4 489/1/4 495/1/4
f 493/1/4 494/1/4 497/1/4
f 497/1/4 494/1/4 498/1/4
f 496/1/4 497/1/4 500/1/4
f 500/1/4 497/1/4 501/1/4
f 499/1/4 500/1/4 503/1/4
f 503/1/4 500/1/4 504/1/4
f 490/3/4 491/3/4 505/3/4
f 505/3/4 491/3/4 506/3/4
f 502/1/4 503/1/4 507/1/4
f 507/1/4 503/1/4 508/1/4
f 513/3/5 510/3/5 509/3/5
f 514/3/5 512/3/5 511/3/5
f 515/3/5 513/3/5 509/3/5
f 515/3/5 514/3/5 513/3/5
f 516/3/5 512/3/5 514/3/5
f 516/3/5 514/3/5 515/3/5
f 517/3/5 515/3/5 509/3/5
f 518/3/5 512/3/5 516/3/5
f 519/3/5 517/3/5 509/3/5
f 519/3/5 518/3/5 517/3/5
f 520/3/5 512/3/5 518/3/5
f 520/3/5 518/3/5 519/3/5
f 521/3/5 519/3/5 509/3/5
f 522/3/5 519/3/5 521/3/5
f 523/3/5 512/3/5 520/3/5
f 524/3/5 512/3/5 523/3/5
f 529/3/5 526/3/5 525/3/5
f 530/3/5 526/3/5 529/3/5
f 531/3/5 528/3/5 527/3/5
f 532/3/5 528/3/5 531/3/5
f 537/3/5 534/3/5 533/3/5
f 538/3/5 534/3/5 537/3/5
f 539/3/5 536/3/5 535/3/5
f 540/3/5 536/3/5 539/3/5
f 545/3/5 542/3/5 541/3/5
f 546/3/5 542/3/5 545/3/5
f 547/3/5 544/3/5 543/3/5
f 548/3/5 544/3/5 547/3/5
f 553/3/5 550/3/5 549/3/5
f 554/3/5 550/3/5 553/3/5
f 555/3/5 552/3/5 551/3/5
f 556/3/5 552/3/5 555/3/5
f 561/1/5 558/1/5 557/1/5
f 562/1/5 558/1/5 561/1/5
f 567/1/5 560/1/5 559/1/5
f 568/1/5 560/1/5 567/1/5
f 571/3/5 564/3/5 563/3/5
f 572/3/5 564/3/5 571/3/5
f 573/3/5 566/3/5 565/3/5
f 574/3/5 566/3/5 573/3/5
f 577/1/5 570/1/5 569/1/5
f 578/1/5 570/1/5 577/1/5
f 583/1/5 576/1/5 575/1/5
f 584/1/5 576/1/5 583/1/5
f 587/3/5 580/3/5 579/3/5
f 588/3/5 580/3/5 587/3/5
f 589/3/5 582/3/5 581/3/5
f 590/3/5 582/3/5 589/3/5
f 593/1/5 586/1/5 585/1/5
f 594/1/5 586/1/5 593/1/5
f 595/1/5 592/1/5 591/1/5
f 596/1/5 592/1/5 595/1/5
f 601/1/5 598/1/5 597/1/5
f 602/1/5 598/1/5 601/1/5
f 607/1/5 600/1/5 599/1/5
f 608/1/5 600/1/5 607/1/5
f 611/3/5 604/3/5 603/3/5
f 612/3/5 604/3/5 611/3/5
f 613/3/5 606/3/5 605/3/5
f 614/3/5 606/3/5 613/3/5
f 617/1/5 610/1/5 609/1/5
f 618/1/5 610/1/5 617/1/5
f 623/1/5 616/1/5 615/1/5
f 624/1/5 616/1/5 623/1/5
f 627/3/5 620/3/5 619/3/5
f 628/3/5 620/3/5 627/3/5
f 629/3/5 622/3/5 621/3/5
f 630/3/5 622/3/5 629/3/5
f 633/1/5 626/1/5 625/1/5
f 634/1/5 626/1/5 633/1/5
f 635/1/5 632/1/5 631/1/5
f 636/1/5 632/1/5 635/1/5
f 643/1/5 638/1/5 637/1/5
f 644/1/5 638/1/5 643/1/5
f 645/3/5 640/3/5 639/3/5
f 646/3/5 640/3/5 645/3/5
f 647/1/5 642/1/5 641/1/5
f 648/1/5 642/1/5 647/1/5
f 655/1/5 650/1/5 649/1/5
f 656/1/5 650/1/5 655/1/5
f 657/3/5 652/3/5 651/3/5
f 658/3/5 652/3/5 657/3/5
f 659/1/5 654/1/5 653/1/5
f 660/1/5 654/1/5 659/1/5
f 667/1/5 662/1/5 661/1/5
f 668/1/5 662/1/5 667/1/5
f 669/3/5 664/3/5 663/3/5
f 670/3/5 664/3/5 669/3/5
f 671/1/5 666/1/5 665/1/5
f 672/1/5 666/1/5 671/1/5
f 677/1/5 674/1/5 673/1/5
f 678/1/5 674/1/5 677/1/5
f 679/1/5 676/1/5 675/1/5
f 680/1/5 676/1/5 679/1/5
f 685/1/5 682/1/5 681/1/5
f 686/1/5 682/1/5 685/1/5
f 687/1/5 684/1/5 683/1/5
f 688/1/5 684/1/5 687/1/5
f 693/1/5 690/1/5 689/1/5
f 694/1/5 690/1/5 693/1/5
f 695/1/5 692/1/5 691/1/5
f 696/1/5 692/1/5 695/1/5
f 697/5/6 698/5/6 701/5/6
f 701/5/6 698/5/6 702/5/6
f 699/4/6 700/4/6 703/4/6
f 703/4/6 700/4/6 704/4/6
f 705/3/6 706/3/6 709/3/6
f 709/3/6 706/3/6 710/3/6
f 707/3/6 708/3/6 711/3/6
f 711/3/6 708/3/6 712/3/6
f 710/3/6 706/3/6 713/3/6
f 707/3/6 711/3/6 714/3/6
f 710/3/6 713/3/6 715/3/6
f 714/3/6 711/3/6 716/3/6
f 710/3/6 715/3/6 717/3/6
f 716/3/6 711/3/6 718/3/6
f 710/3/6 717/3/6 719/3/6
f 718/3/6 711/3/6 720/3/6
f 705/3/6 709/3/6 721/3/6
f 710/3/6 719/3/6 722/3/6
f 720/3/6 711/3/6 723/3/6
f 712/3/6 708/3/6 724/3/6
f 721/3/6 722/3/6 725/3/6
f 705/3/6 721/3/6 725/3/6
f 722/3/6 719/3/6 726/3/6
f 725/3/6 722/3/6 726/3/6
f 720/3/6 723/3/6 727/3/6
f 723/3/6 724/3/6 727/3/6
f 724/3/6 708/3/6 728/3/6
f 727/3/6 724/3/6 728/3/6
f 729/1/6 730/1/6 733/1/6
f 733/1/6 730/1/6 734/1/6
f 731/1/6 732/1/6 735/1/6
f 735/1/6 732/1/6 736/1/6
f 737/1/6 738/1/6 741/1/6
f 741/1/6 738/1/6 742/1/6
f 739/1/6 740/1/6 743/1/6
f 743/1/6 740/1/6 744/1/6
f 745/1/6 746/1/6 749/1/6
f 749/1/6 746/1/6 750/1/6
f 747/1/6 748/1/6 751/1/6
f 751/1/6 748/1/6 752/1/6
f 753/1/6 754/1/6 757/1/6
f 757/1/6 754/1/6 758/1/6
f 755/1/6 756/1/6 759/1/6
f 759/1/6 756/1/6 760/1/6
f 761/1/6 762/1/6 763/1/6
f 763/1/6 762/1/6 764/1/6
